<?xml version="1.0" encoding="utf-8" standalone="no"?>
<!DOCTYPE svg PUBLIC "-//W3C//DTD SVG 1.1//EN"
  "http://www.w3.org/Graphics/SVG/1.1/DTD/svg11.dtd">
<!-- Created with matplotlib (https://matplotlib.org/) -->
<svg height="576pt" version="1.1" viewBox="0 0 576 576" width="576pt" xmlns="http://www.w3.org/2000/svg" xmlns:xlink="http://www.w3.org/1999/xlink">
 <defs>
  <style type="text/css">
*{stroke-linecap:butt;stroke-linejoin:round;}
  </style>
 </defs>
 <g id="figure_1">
  <g id="patch_1">
   <path d="M 0 576 
L 576 576 
L 576 0 
L 0 0 
z
" style="fill:#ffffff;"/>
  </g>
  <g id="axes_1">
   <g id="patch_2">
    <path d="M 72 272 
L 274.909091 272 
L 274.909091 86.4 
L 72 86.4 
z
" style="fill:#ffffff;"/>
   </g>
   <g id="PathCollection_1">
    <defs>
     <path d="M 0 5 
C 1.326016 5 2.597899 4.473168 3.535534 3.535534 
C 4.473168 2.597899 5 1.326016 5 0 
C 5 -1.326016 4.473168 -2.597899 3.535534 -3.535534 
C 2.597899 -4.473168 1.326016 -5 0 -5 
C -1.326016 -5 -2.597899 -4.473168 -3.535534 -3.535534 
C -4.473168 -2.597899 -5 -1.326016 -5 0 
C -5 1.326016 -4.473168 2.597899 -3.535534 3.535534 
C -2.597899 4.473168 -1.326016 5 0 5 
z
" id="m4f6374684c" style="stroke:#ffffff;stroke-opacity:0.7;"/>
    </defs>
    <g clip-path="url(#p9cedfaa02b)">
     <use style="fill:#00ffff;fill-opacity:0.7;stroke:#ffffff;stroke-opacity:0.7;" x="132.557499" xlink:href="#m4f6374684c" y="268.649503"/>
     <use style="fill:#00ffff;fill-opacity:0.7;stroke:#ffffff;stroke-opacity:0.7;" x="207.920498" xlink:href="#m4f6374684c" y="268.425813"/>
     <use style="fill:#00ffff;fill-opacity:0.7;stroke:#ffffff;stroke-opacity:0.7;" x="110.276073" xlink:href="#m4f6374684c" y="267.73529"/>
     <use style="fill:#00ffff;fill-opacity:0.7;stroke:#ffffff;stroke-opacity:0.7;" x="240.563254" xlink:href="#m4f6374684c" y="267.278183"/>
     <use style="fill:#00ffff;fill-opacity:0.7;stroke:#ffffff;stroke-opacity:0.7;" x="117.789512" xlink:href="#m4f6374684c" y="267.176063"/>
     <use style="fill:#00ffff;fill-opacity:0.7;stroke:#ffffff;stroke-opacity:0.7;" x="117.740352" xlink:href="#m4f6374684c" y="267.176063"/>
     <use style="fill:#00ffff;fill-opacity:0.7;stroke:#ffffff;stroke-opacity:0.7;" x="206.539954" xlink:href="#m4f6374684c" y="265.581052"/>
     <use style="fill:#00ffff;fill-opacity:0.7;stroke:#ffffff;stroke-opacity:0.7;" x="181.954365" xlink:href="#m4f6374684c" y="265.33791"/>
     <use style="fill:#00ffff;fill-opacity:0.7;stroke:#ffffff;stroke-opacity:0.7;" x="116.721452" xlink:href="#m4f6374684c" y="264.637661"/>
     <use style="fill:#00ffff;fill-opacity:0.7;stroke:#ffffff;stroke-opacity:0.7;" x="175.088841" xlink:href="#m4f6374684c" y="264.165965"/>
     <use style="fill:#00ffff;fill-opacity:0.7;stroke:#ffffff;stroke-opacity:0.7;" x="242.122498" xlink:href="#m4f6374684c" y="263.98604"/>
     <use style="fill:#00ffff;fill-opacity:0.7;stroke:#ffffff;stroke-opacity:0.7;" x="170.184568" xlink:href="#m4f6374684c" y="263.144769"/>
     <use style="fill:#00ffff;fill-opacity:0.7;stroke:#ffffff;stroke-opacity:0.7;" x="234.732973" xlink:href="#m4f6374684c" y="263.144769"/>
     <use style="fill:#00ffff;fill-opacity:0.7;stroke:#ffffff;stroke-opacity:0.7;" x="169.05563" xlink:href="#m4f6374684c" y="262.619582"/>
     <use style="fill:#00ffff;fill-opacity:0.7;stroke:#ffffff;stroke-opacity:0.7;" x="142.868657" xlink:href="#m4f6374684c" y="262.395892"/>
     <use style="fill:#00ffff;fill-opacity:0.7;stroke:#ffffff;stroke-opacity:0.7;" x="187.223078" xlink:href="#m4f6374684c" y="262.230555"/>
     <use style="fill:#00ffff;fill-opacity:0.7;stroke:#ffffff;stroke-opacity:0.7;" x="186.140032" xlink:href="#m4f6374684c" y="260.368088"/>
     <use style="fill:#00ffff;fill-opacity:0.7;stroke:#ffffff;stroke-opacity:0.7;" x="240.548652" xlink:href="#m4f6374684c" y="257.411481"/>
     <use style="fill:#00ffff;fill-opacity:0.7;stroke:#ffffff;stroke-opacity:0.7;" x="215.170798" xlink:href="#m4f6374684c" y="256.17632"/>
     <use style="fill:#00ffff;fill-opacity:0.7;stroke:#ffffff;stroke-opacity:0.7;" x="102.679641" xlink:href="#m4f6374684c" y="255.675447"/>
     <use style="fill:#00ffff;fill-opacity:0.7;stroke:#ffffff;stroke-opacity:0.7;" x="237.165817" xlink:href="#m4f6374684c" y="254.980061"/>
     <use style="fill:#00ffff;fill-opacity:0.7;stroke:#ffffff;stroke-opacity:0.7;" x="208.485216" xlink:href="#m4f6374684c" y="253.88106"/>
     <use style="fill:#00ffff;fill-opacity:0.7;stroke:#ffffff;stroke-opacity:0.7;" x="162.599329" xlink:href="#m4f6374684c" y="252.801509"/>
     <use style="fill:#00ffff;fill-opacity:0.7;stroke:#ffffff;stroke-opacity:0.7;" x="182.652991" xlink:href="#m4f6374684c" y="251.235675"/>
     <use style="fill:#00ffff;fill-opacity:0.7;stroke:#ffffff;stroke-opacity:0.7;" x="206.112132" xlink:href="#m4f6374684c" y="247.223832"/>
     <use style="fill:#00ffff;fill-opacity:0.7;stroke:#ffffff;stroke-opacity:0.7;" x="230.241891" xlink:href="#m4f6374684c" y="246.450641"/>
     <use style="fill:#00ffff;fill-opacity:0.7;stroke:#ffffff;stroke-opacity:0.7;" x="109.114794" xlink:href="#m4f6374684c" y="244.797275"/>
     <use style="fill:#00ffff;fill-opacity:0.7;stroke:#ffffff;stroke-opacity:0.7;" x="220.597659" xlink:href="#m4f6374684c" y="243.494034"/>
     <use style="fill:#00ffff;fill-opacity:0.7;stroke:#ffffff;stroke-opacity:0.7;" x="229.380527" xlink:href="#m4f6374684c" y="243.260618"/>
     <use style="fill:#00ffff;fill-opacity:0.7;stroke:#ffffff;stroke-opacity:0.7;" x="174.664745" xlink:href="#m4f6374684c" y="243.260618"/>
     <use style="fill:#00ffff;fill-opacity:0.7;stroke:#ffffff;stroke-opacity:0.7;" x="165.891721" xlink:href="#m4f6374684c" y="242.667351"/>
     <use style="fill:#00ffff;fill-opacity:0.7;stroke:#ffffff;stroke-opacity:0.7;" x="228.838389" xlink:href="#m4f6374684c" y="237.85314"/>
     <use style="fill:#00ffff;fill-opacity:0.7;stroke:#ffffff;stroke-opacity:0.7;" x="208.66365" xlink:href="#m4f6374684c" y="235.621097"/>
     <use style="fill:#00ffff;fill-opacity:0.7;stroke:#ffffff;stroke-opacity:0.7;" x="169.635992" xlink:href="#m4f6374684c" y="234.492918"/>
     <use style="fill:#00ffff;fill-opacity:0.7;stroke:#ffffff;stroke-opacity:0.7;" x="191.105655" xlink:href="#m4f6374684c" y="232.100401"/>
     <use style="fill:#00ffff;fill-opacity:0.7;stroke:#ffffff;stroke-opacity:0.7;" x="154.16425" xlink:href="#m4f6374684c" y="229.946163"/>
     <use style="fill:#00ffff;fill-opacity:0.7;stroke:#ffffff;stroke-opacity:0.7;" x="191.279467" xlink:href="#m4f6374684c" y="228.142049"/>
     <use style="fill:#00ffff;fill-opacity:0.7;stroke:#ffffff;stroke-opacity:0.7;" x="232.323317" xlink:href="#m4f6374684c" y="224.130207"/>
     <use style="fill:#00ffff;fill-opacity:0.7;stroke:#ffffff;stroke-opacity:0.7;" x="225.149405" xlink:href="#m4f6374684c" y="220.940184"/>
     <use style="fill:#00ffff;fill-opacity:0.7;stroke:#ffffff;stroke-opacity:0.7;" x="168.077644" xlink:href="#m4f6374684c" y="190.634967"/>
     <use style="fill:#00ffff;fill-opacity:0.7;stroke:#ffffff;stroke-opacity:0.7;" x="103.503704" xlink:href="#m4f6374684c" y="177.077371"/>
     <use style="fill:#00ffff;fill-opacity:0.7;stroke:#ffffff;stroke-opacity:0.7;" x="132.365698" xlink:href="#m4f6374684c" y="164.395085"/>
     <use style="fill:#00ffff;fill-opacity:0.7;stroke:#ffffff;stroke-opacity:0.7;" x="199.122579" xlink:href="#m4f6374684c" y="91.26284"/>
     <use style="fill:#00ffff;fill-opacity:0.7;stroke:#ffffff;stroke-opacity:0.7;" x="216.416435" xlink:href="#m4f6374684c" y="-1"/>
    </g>
   </g>
   <g id="matplotlib.axis_1">
    <g id="xtick_1">
     <g id="line2d_1">
      <defs>
       <path d="M 0 0 
L 0 3.5 
" id="mcf6b0dece8" style="stroke:#000000;stroke-width:0.8;"/>
      </defs>
      <g>
       <use style="stroke:#000000;stroke-width:0.8;" x="173.454545" xlink:href="#mcf6b0dece8" y="272"/>
      </g>
     </g>
     <g id="text_1">
      <!-- winter -->
      <defs>
       <path d="M 4.203125 54.6875 
L 13.1875 54.6875 
L 24.421875 12.015625 
L 35.59375 54.6875 
L 46.1875 54.6875 
L 57.421875 12.015625 
L 68.609375 54.6875 
L 77.59375 54.6875 
L 63.28125 0 
L 52.6875 0 
L 40.921875 44.828125 
L 29.109375 0 
L 18.5 0 
z
" id="DejaVuSans-119"/>
       <path d="M 9.421875 54.6875 
L 18.40625 54.6875 
L 18.40625 0 
L 9.421875 0 
z
M 9.421875 75.984375 
L 18.40625 75.984375 
L 18.40625 64.59375 
L 9.421875 64.59375 
z
" id="DejaVuSans-105"/>
       <path d="M 54.890625 33.015625 
L 54.890625 0 
L 45.90625 0 
L 45.90625 32.71875 
Q 45.90625 40.484375 42.875 44.328125 
Q 39.84375 48.1875 33.796875 48.1875 
Q 26.515625 48.1875 22.3125 43.546875 
Q 18.109375 38.921875 18.109375 30.90625 
L 18.109375 0 
L 9.078125 0 
L 9.078125 54.6875 
L 18.109375 54.6875 
L 18.109375 46.1875 
Q 21.34375 51.125 25.703125 53.5625 
Q 30.078125 56 35.796875 56 
Q 45.21875 56 50.046875 50.171875 
Q 54.890625 44.34375 54.890625 33.015625 
z
" id="DejaVuSans-110"/>
       <path d="M 18.3125 70.21875 
L 18.3125 54.6875 
L 36.8125 54.6875 
L 36.8125 47.703125 
L 18.3125 47.703125 
L 18.3125 18.015625 
Q 18.3125 11.328125 20.140625 9.421875 
Q 21.96875 7.515625 27.59375 7.515625 
L 36.8125 7.515625 
L 36.8125 0 
L 27.59375 0 
Q 17.1875 0 13.234375 3.875 
Q 9.28125 7.765625 9.28125 18.015625 
L 9.28125 47.703125 
L 2.6875 47.703125 
L 2.6875 54.6875 
L 9.28125 54.6875 
L 9.28125 70.21875 
z
" id="DejaVuSans-116"/>
       <path d="M 56.203125 29.59375 
L 56.203125 25.203125 
L 14.890625 25.203125 
Q 15.484375 15.921875 20.484375 11.0625 
Q 25.484375 6.203125 34.421875 6.203125 
Q 39.59375 6.203125 44.453125 7.46875 
Q 49.3125 8.734375 54.109375 11.28125 
L 54.109375 2.78125 
Q 49.265625 0.734375 44.1875 -0.34375 
Q 39.109375 -1.421875 33.890625 -1.421875 
Q 20.796875 -1.421875 13.15625 6.1875 
Q 5.515625 13.8125 5.515625 26.8125 
Q 5.515625 40.234375 12.765625 48.109375 
Q 20.015625 56 32.328125 56 
Q 43.359375 56 49.78125 48.890625 
Q 56.203125 41.796875 56.203125 29.59375 
z
M 47.21875 32.234375 
Q 47.125 39.59375 43.09375 43.984375 
Q 39.0625 48.390625 32.421875 48.390625 
Q 24.90625 48.390625 20.390625 44.140625 
Q 15.875 39.890625 15.1875 32.171875 
z
" id="DejaVuSans-101"/>
       <path d="M 41.109375 46.296875 
Q 39.59375 47.171875 37.8125 47.578125 
Q 36.03125 48 33.890625 48 
Q 26.265625 48 22.1875 43.046875 
Q 18.109375 38.09375 18.109375 28.8125 
L 18.109375 0 
L 9.078125 0 
L 9.078125 54.6875 
L 18.109375 54.6875 
L 18.109375 46.1875 
Q 20.953125 51.171875 25.484375 53.578125 
Q 30.03125 56 36.53125 56 
Q 37.453125 56 38.578125 55.875 
Q 39.703125 55.765625 41.0625 55.515625 
z
" id="DejaVuSans-114"/>
      </defs>
      <g transform="translate(151.419858 289.637812)scale(0.14 -0.14)">
       <use xlink:href="#DejaVuSans-119"/>
       <use x="81.787109" xlink:href="#DejaVuSans-105"/>
       <use x="109.570312" xlink:href="#DejaVuSans-110"/>
       <use x="172.949219" xlink:href="#DejaVuSans-116"/>
       <use x="212.158203" xlink:href="#DejaVuSans-101"/>
       <use x="273.681641" xlink:href="#DejaVuSans-114"/>
      </g>
     </g>
    </g>
   </g>
   <g id="matplotlib.axis_2">
    <g id="ytick_1">
     <g id="line2d_2">
      <defs>
       <path d="M 0 0 
L -3.5 0 
" id="mbbd31a7fd8" style="stroke:#000000;stroke-width:0.8;"/>
      </defs>
      <g>
       <use style="stroke:#000000;stroke-width:0.8;" x="72" xlink:href="#mbbd31a7fd8" y="269.56858"/>
      </g>
     </g>
     <g id="text_2">
      <!-- 0.0 -->
      <defs>
       <path d="M 31.78125 66.40625 
Q 24.171875 66.40625 20.328125 58.90625 
Q 16.5 51.421875 16.5 36.375 
Q 16.5 21.390625 20.328125 13.890625 
Q 24.171875 6.390625 31.78125 6.390625 
Q 39.453125 6.390625 43.28125 13.890625 
Q 47.125 21.390625 47.125 36.375 
Q 47.125 51.421875 43.28125 58.90625 
Q 39.453125 66.40625 31.78125 66.40625 
z
M 31.78125 74.21875 
Q 44.046875 74.21875 50.515625 64.515625 
Q 56.984375 54.828125 56.984375 36.375 
Q 56.984375 17.96875 50.515625 8.265625 
Q 44.046875 -1.421875 31.78125 -1.421875 
Q 19.53125 -1.421875 13.0625 8.265625 
Q 6.59375 17.96875 6.59375 36.375 
Q 6.59375 54.828125 13.0625 64.515625 
Q 19.53125 74.21875 31.78125 74.21875 
z
" id="DejaVuSans-48"/>
       <path d="M 10.6875 12.40625 
L 21 12.40625 
L 21 0 
L 10.6875 0 
z
" id="DejaVuSans-46"/>
      </defs>
      <g transform="translate(49.096875 273.367799)scale(0.1 -0.1)">
       <use xlink:href="#DejaVuSans-48"/>
       <use x="63.623047" xlink:href="#DejaVuSans-46"/>
       <use x="95.410156" xlink:href="#DejaVuSans-48"/>
      </g>
     </g>
    </g>
    <g id="ytick_2">
     <g id="line2d_3">
      <g>
       <use style="stroke:#000000;stroke-width:0.8;" x="72" xlink:href="#mbbd31a7fd8" y="245.254382"/>
      </g>
     </g>
     <g id="text_3">
      <!-- 0.5 -->
      <defs>
       <path d="M 10.796875 72.90625 
L 49.515625 72.90625 
L 49.515625 64.59375 
L 19.828125 64.59375 
L 19.828125 46.734375 
Q 21.96875 47.46875 24.109375 47.828125 
Q 26.265625 48.1875 28.421875 48.1875 
Q 40.625 48.1875 47.75 41.5 
Q 54.890625 34.8125 54.890625 23.390625 
Q 54.890625 11.625 47.5625 5.09375 
Q 40.234375 -1.421875 26.90625 -1.421875 
Q 22.3125 -1.421875 17.546875 -0.640625 
Q 12.796875 0.140625 7.71875 1.703125 
L 7.71875 11.625 
Q 12.109375 9.234375 16.796875 8.0625 
Q 21.484375 6.890625 26.703125 6.890625 
Q 35.15625 6.890625 40.078125 11.328125 
Q 45.015625 15.765625 45.015625 23.390625 
Q 45.015625 31 40.078125 35.4375 
Q 35.15625 39.890625 26.703125 39.890625 
Q 22.75 39.890625 18.8125 39.015625 
Q 14.890625 38.140625 10.796875 36.28125 
z
" id="DejaVuSans-53"/>
      </defs>
      <g transform="translate(49.096875 249.053601)scale(0.1 -0.1)">
       <use xlink:href="#DejaVuSans-48"/>
       <use x="63.623047" xlink:href="#DejaVuSans-46"/>
       <use x="95.410156" xlink:href="#DejaVuSans-53"/>
      </g>
     </g>
    </g>
    <g id="ytick_3">
     <g id="line2d_4">
      <g>
       <use style="stroke:#000000;stroke-width:0.8;" x="72" xlink:href="#mbbd31a7fd8" y="220.940184"/>
      </g>
     </g>
     <g id="text_4">
      <!-- 1.0 -->
      <defs>
       <path d="M 12.40625 8.296875 
L 28.515625 8.296875 
L 28.515625 63.921875 
L 10.984375 60.40625 
L 10.984375 69.390625 
L 28.421875 72.90625 
L 38.28125 72.90625 
L 38.28125 8.296875 
L 54.390625 8.296875 
L 54.390625 0 
L 12.40625 0 
z
" id="DejaVuSans-49"/>
      </defs>
      <g transform="translate(49.096875 224.739403)scale(0.1 -0.1)">
       <use xlink:href="#DejaVuSans-49"/>
       <use x="63.623047" xlink:href="#DejaVuSans-46"/>
       <use x="95.410156" xlink:href="#DejaVuSans-48"/>
      </g>
     </g>
    </g>
    <g id="ytick_4">
     <g id="line2d_5">
      <g>
       <use style="stroke:#000000;stroke-width:0.8;" x="72" xlink:href="#mbbd31a7fd8" y="196.625986"/>
      </g>
     </g>
     <g id="text_5">
      <!-- 1.5 -->
      <g transform="translate(49.096875 200.425205)scale(0.1 -0.1)">
       <use xlink:href="#DejaVuSans-49"/>
       <use x="63.623047" xlink:href="#DejaVuSans-46"/>
       <use x="95.410156" xlink:href="#DejaVuSans-53"/>
      </g>
     </g>
    </g>
    <g id="ytick_5">
     <g id="line2d_6">
      <g>
       <use style="stroke:#000000;stroke-width:0.8;" x="72" xlink:href="#mbbd31a7fd8" y="172.311788"/>
      </g>
     </g>
     <g id="text_6">
      <!-- 2.0 -->
      <defs>
       <path d="M 19.1875 8.296875 
L 53.609375 8.296875 
L 53.609375 0 
L 7.328125 0 
L 7.328125 8.296875 
Q 12.9375 14.109375 22.625 23.890625 
Q 32.328125 33.6875 34.8125 36.53125 
Q 39.546875 41.84375 41.421875 45.53125 
Q 43.3125 49.21875 43.3125 52.78125 
Q 43.3125 58.59375 39.234375 62.25 
Q 35.15625 65.921875 28.609375 65.921875 
Q 23.96875 65.921875 18.8125 64.3125 
Q 13.671875 62.703125 7.8125 59.421875 
L 7.8125 69.390625 
Q 13.765625 71.78125 18.9375 73 
Q 24.125 74.21875 28.421875 74.21875 
Q 39.75 74.21875 46.484375 68.546875 
Q 53.21875 62.890625 53.21875 53.421875 
Q 53.21875 48.921875 51.53125 44.890625 
Q 49.859375 40.875 45.40625 35.40625 
Q 44.1875 33.984375 37.640625 27.21875 
Q 31.109375 20.453125 19.1875 8.296875 
z
" id="DejaVuSans-50"/>
      </defs>
      <g transform="translate(49.096875 176.111006)scale(0.1 -0.1)">
       <use xlink:href="#DejaVuSans-50"/>
       <use x="63.623047" xlink:href="#DejaVuSans-46"/>
       <use x="95.410156" xlink:href="#DejaVuSans-48"/>
      </g>
     </g>
    </g>
    <g id="ytick_6">
     <g id="line2d_7">
      <g>
       <use style="stroke:#000000;stroke-width:0.8;" x="72" xlink:href="#mbbd31a7fd8" y="147.99759"/>
      </g>
     </g>
     <g id="text_7">
      <!-- 2.5 -->
      <g transform="translate(49.096875 151.796808)scale(0.1 -0.1)">
       <use xlink:href="#DejaVuSans-50"/>
       <use x="63.623047" xlink:href="#DejaVuSans-46"/>
       <use x="95.410156" xlink:href="#DejaVuSans-53"/>
      </g>
     </g>
    </g>
    <g id="ytick_7">
     <g id="line2d_8">
      <g>
       <use style="stroke:#000000;stroke-width:0.8;" x="72" xlink:href="#mbbd31a7fd8" y="123.683391"/>
      </g>
     </g>
     <g id="text_8">
      <!-- 3.0 -->
      <defs>
       <path d="M 40.578125 39.3125 
Q 47.65625 37.796875 51.625 33 
Q 55.609375 28.21875 55.609375 21.1875 
Q 55.609375 10.40625 48.1875 4.484375 
Q 40.765625 -1.421875 27.09375 -1.421875 
Q 22.515625 -1.421875 17.65625 -0.515625 
Q 12.796875 0.390625 7.625 2.203125 
L 7.625 11.71875 
Q 11.71875 9.328125 16.59375 8.109375 
Q 21.484375 6.890625 26.8125 6.890625 
Q 36.078125 6.890625 40.9375 10.546875 
Q 45.796875 14.203125 45.796875 21.1875 
Q 45.796875 27.640625 41.28125 31.265625 
Q 36.765625 34.90625 28.71875 34.90625 
L 20.21875 34.90625 
L 20.21875 43.015625 
L 29.109375 43.015625 
Q 36.375 43.015625 40.234375 45.921875 
Q 44.09375 48.828125 44.09375 54.296875 
Q 44.09375 59.90625 40.109375 62.90625 
Q 36.140625 65.921875 28.71875 65.921875 
Q 24.65625 65.921875 20.015625 65.03125 
Q 15.375 64.15625 9.8125 62.3125 
L 9.8125 71.09375 
Q 15.4375 72.65625 20.34375 73.4375 
Q 25.25 74.21875 29.59375 74.21875 
Q 40.828125 74.21875 47.359375 69.109375 
Q 53.90625 64.015625 53.90625 55.328125 
Q 53.90625 49.265625 50.4375 45.09375 
Q 46.96875 40.921875 40.578125 39.3125 
z
" id="DejaVuSans-51"/>
      </defs>
      <g transform="translate(49.096875 127.48261)scale(0.1 -0.1)">
       <use xlink:href="#DejaVuSans-51"/>
       <use x="63.623047" xlink:href="#DejaVuSans-46"/>
       <use x="95.410156" xlink:href="#DejaVuSans-48"/>
      </g>
     </g>
    </g>
    <g id="ytick_8">
     <g id="line2d_9">
      <g>
       <use style="stroke:#000000;stroke-width:0.8;" x="72" xlink:href="#mbbd31a7fd8" y="99.369193"/>
      </g>
     </g>
     <g id="text_9">
      <!-- 3.5 -->
      <g transform="translate(49.096875 103.168412)scale(0.1 -0.1)">
       <use xlink:href="#DejaVuSans-51"/>
       <use x="63.623047" xlink:href="#DejaVuSans-46"/>
       <use x="95.410156" xlink:href="#DejaVuSans-53"/>
      </g>
     </g>
    </g>
    <g id="text_10">
     <!-- Broken plastics per meter -->
     <defs>
      <path d="M 19.671875 34.8125 
L 19.671875 8.109375 
L 35.5 8.109375 
Q 43.453125 8.109375 47.28125 11.40625 
Q 51.125 14.703125 51.125 21.484375 
Q 51.125 28.328125 47.28125 31.5625 
Q 43.453125 34.8125 35.5 34.8125 
z
M 19.671875 64.796875 
L 19.671875 42.828125 
L 34.28125 42.828125 
Q 41.5 42.828125 45.03125 45.53125 
Q 48.578125 48.25 48.578125 53.8125 
Q 48.578125 59.328125 45.03125 62.0625 
Q 41.5 64.796875 34.28125 64.796875 
z
M 9.8125 72.90625 
L 35.015625 72.90625 
Q 46.296875 72.90625 52.390625 68.21875 
Q 58.5 63.53125 58.5 54.890625 
Q 58.5 48.1875 55.375 44.234375 
Q 52.25 40.28125 46.1875 39.3125 
Q 53.46875 37.75 57.5 32.78125 
Q 61.53125 27.828125 61.53125 20.40625 
Q 61.53125 10.640625 54.890625 5.3125 
Q 48.25 0 35.984375 0 
L 9.8125 0 
z
" id="DejaVuSans-66"/>
      <path d="M 30.609375 48.390625 
Q 23.390625 48.390625 19.1875 42.75 
Q 14.984375 37.109375 14.984375 27.296875 
Q 14.984375 17.484375 19.15625 11.84375 
Q 23.34375 6.203125 30.609375 6.203125 
Q 37.796875 6.203125 41.984375 11.859375 
Q 46.1875 17.53125 46.1875 27.296875 
Q 46.1875 37.015625 41.984375 42.703125 
Q 37.796875 48.390625 30.609375 48.390625 
z
M 30.609375 56 
Q 42.328125 56 49.015625 48.375 
Q 55.71875 40.765625 55.71875 27.296875 
Q 55.71875 13.875 49.015625 6.21875 
Q 42.328125 -1.421875 30.609375 -1.421875 
Q 18.84375 -1.421875 12.171875 6.21875 
Q 5.515625 13.875 5.515625 27.296875 
Q 5.515625 40.765625 12.171875 48.375 
Q 18.84375 56 30.609375 56 
z
" id="DejaVuSans-111"/>
      <path d="M 9.078125 75.984375 
L 18.109375 75.984375 
L 18.109375 31.109375 
L 44.921875 54.6875 
L 56.390625 54.6875 
L 27.390625 29.109375 
L 57.625 0 
L 45.90625 0 
L 18.109375 26.703125 
L 18.109375 0 
L 9.078125 0 
z
" id="DejaVuSans-107"/>
      <path id="DejaVuSans-32"/>
      <path d="M 18.109375 8.203125 
L 18.109375 -20.796875 
L 9.078125 -20.796875 
L 9.078125 54.6875 
L 18.109375 54.6875 
L 18.109375 46.390625 
Q 20.953125 51.265625 25.265625 53.625 
Q 29.59375 56 35.59375 56 
Q 45.5625 56 51.78125 48.09375 
Q 58.015625 40.1875 58.015625 27.296875 
Q 58.015625 14.40625 51.78125 6.484375 
Q 45.5625 -1.421875 35.59375 -1.421875 
Q 29.59375 -1.421875 25.265625 0.953125 
Q 20.953125 3.328125 18.109375 8.203125 
z
M 48.6875 27.296875 
Q 48.6875 37.203125 44.609375 42.84375 
Q 40.53125 48.484375 33.40625 48.484375 
Q 26.265625 48.484375 22.1875 42.84375 
Q 18.109375 37.203125 18.109375 27.296875 
Q 18.109375 17.390625 22.1875 11.75 
Q 26.265625 6.109375 33.40625 6.109375 
Q 40.53125 6.109375 44.609375 11.75 
Q 48.6875 17.390625 48.6875 27.296875 
z
" id="DejaVuSans-112"/>
      <path d="M 9.421875 75.984375 
L 18.40625 75.984375 
L 18.40625 0 
L 9.421875 0 
z
" id="DejaVuSans-108"/>
      <path d="M 34.28125 27.484375 
Q 23.390625 27.484375 19.1875 25 
Q 14.984375 22.515625 14.984375 16.5 
Q 14.984375 11.71875 18.140625 8.90625 
Q 21.296875 6.109375 26.703125 6.109375 
Q 34.1875 6.109375 38.703125 11.40625 
Q 43.21875 16.703125 43.21875 25.484375 
L 43.21875 27.484375 
z
M 52.203125 31.203125 
L 52.203125 0 
L 43.21875 0 
L 43.21875 8.296875 
Q 40.140625 3.328125 35.546875 0.953125 
Q 30.953125 -1.421875 24.3125 -1.421875 
Q 15.921875 -1.421875 10.953125 3.296875 
Q 6 8.015625 6 15.921875 
Q 6 25.140625 12.171875 29.828125 
Q 18.359375 34.515625 30.609375 34.515625 
L 43.21875 34.515625 
L 43.21875 35.40625 
Q 43.21875 41.609375 39.140625 45 
Q 35.0625 48.390625 27.6875 48.390625 
Q 23 48.390625 18.546875 47.265625 
Q 14.109375 46.140625 10.015625 43.890625 
L 10.015625 52.203125 
Q 14.9375 54.109375 19.578125 55.046875 
Q 24.21875 56 28.609375 56 
Q 40.484375 56 46.34375 49.84375 
Q 52.203125 43.703125 52.203125 31.203125 
z
" id="DejaVuSans-97"/>
      <path d="M 44.28125 53.078125 
L 44.28125 44.578125 
Q 40.484375 46.53125 36.375 47.5 
Q 32.28125 48.484375 27.875 48.484375 
Q 21.1875 48.484375 17.84375 46.4375 
Q 14.5 44.390625 14.5 40.28125 
Q 14.5 37.15625 16.890625 35.375 
Q 19.28125 33.59375 26.515625 31.984375 
L 29.59375 31.296875 
Q 39.15625 29.25 43.1875 25.515625 
Q 47.21875 21.78125 47.21875 15.09375 
Q 47.21875 7.46875 41.1875 3.015625 
Q 35.15625 -1.421875 24.609375 -1.421875 
Q 20.21875 -1.421875 15.453125 -0.5625 
Q 10.6875 0.296875 5.421875 2 
L 5.421875 11.28125 
Q 10.40625 8.6875 15.234375 7.390625 
Q 20.0625 6.109375 24.8125 6.109375 
Q 31.15625 6.109375 34.5625 8.28125 
Q 37.984375 10.453125 37.984375 14.40625 
Q 37.984375 18.0625 35.515625 20.015625 
Q 33.0625 21.96875 24.703125 23.78125 
L 21.578125 24.515625 
Q 13.234375 26.265625 9.515625 29.90625 
Q 5.8125 33.546875 5.8125 39.890625 
Q 5.8125 47.609375 11.28125 51.796875 
Q 16.75 56 26.8125 56 
Q 31.78125 56 36.171875 55.265625 
Q 40.578125 54.546875 44.28125 53.078125 
z
" id="DejaVuSans-115"/>
      <path d="M 48.78125 52.59375 
L 48.78125 44.1875 
Q 44.96875 46.296875 41.140625 47.34375 
Q 37.3125 48.390625 33.40625 48.390625 
Q 24.65625 48.390625 19.8125 42.84375 
Q 14.984375 37.3125 14.984375 27.296875 
Q 14.984375 17.28125 19.8125 11.734375 
Q 24.65625 6.203125 33.40625 6.203125 
Q 37.3125 6.203125 41.140625 7.25 
Q 44.96875 8.296875 48.78125 10.40625 
L 48.78125 2.09375 
Q 45.015625 0.34375 40.984375 -0.53125 
Q 36.96875 -1.421875 32.421875 -1.421875 
Q 20.0625 -1.421875 12.78125 6.34375 
Q 5.515625 14.109375 5.515625 27.296875 
Q 5.515625 40.671875 12.859375 48.328125 
Q 20.21875 56 33.015625 56 
Q 37.15625 56 41.109375 55.140625 
Q 45.0625 54.296875 48.78125 52.59375 
z
" id="DejaVuSans-99"/>
      <path d="M 52 44.1875 
Q 55.375 50.25 60.0625 53.125 
Q 64.75 56 71.09375 56 
Q 79.640625 56 84.28125 50.015625 
Q 88.921875 44.046875 88.921875 33.015625 
L 88.921875 0 
L 79.890625 0 
L 79.890625 32.71875 
Q 79.890625 40.578125 77.09375 44.375 
Q 74.3125 48.1875 68.609375 48.1875 
Q 61.625 48.1875 57.5625 43.546875 
Q 53.515625 38.921875 53.515625 30.90625 
L 53.515625 0 
L 44.484375 0 
L 44.484375 32.71875 
Q 44.484375 40.625 41.703125 44.40625 
Q 38.921875 48.1875 33.109375 48.1875 
Q 26.21875 48.1875 22.15625 43.53125 
Q 18.109375 38.875 18.109375 30.90625 
L 18.109375 0 
L 9.078125 0 
L 9.078125 54.6875 
L 18.109375 54.6875 
L 18.109375 46.1875 
Q 21.1875 51.21875 25.484375 53.609375 
Q 29.78125 56 35.6875 56 
Q 41.65625 56 45.828125 52.96875 
Q 50 49.953125 52 44.1875 
z
" id="DejaVuSans-109"/>
     </defs>
     <g transform="translate(42.60125 256.875625)rotate(-90)scale(0.12 -0.12)">
      <use xlink:href="#DejaVuSans-66"/>
      <use x="68.603516" xlink:href="#DejaVuSans-114"/>
      <use x="109.685547" xlink:href="#DejaVuSans-111"/>
      <use x="170.867188" xlink:href="#DejaVuSans-107"/>
      <use x="228.730469" xlink:href="#DejaVuSans-101"/>
      <use x="290.253906" xlink:href="#DejaVuSans-110"/>
      <use x="353.632812" xlink:href="#DejaVuSans-32"/>
      <use x="385.419922" xlink:href="#DejaVuSans-112"/>
      <use x="448.896484" xlink:href="#DejaVuSans-108"/>
      <use x="476.679688" xlink:href="#DejaVuSans-97"/>
      <use x="537.958984" xlink:href="#DejaVuSans-115"/>
      <use x="590.058594" xlink:href="#DejaVuSans-116"/>
      <use x="629.267578" xlink:href="#DejaVuSans-105"/>
      <use x="657.050781" xlink:href="#DejaVuSans-99"/>
      <use x="712.03125" xlink:href="#DejaVuSans-115"/>
      <use x="764.130859" xlink:href="#DejaVuSans-32"/>
      <use x="795.917969" xlink:href="#DejaVuSans-112"/>
      <use x="859.394531" xlink:href="#DejaVuSans-101"/>
      <use x="920.917969" xlink:href="#DejaVuSans-114"/>
      <use x="962.03125" xlink:href="#DejaVuSans-32"/>
      <use x="993.818359" xlink:href="#DejaVuSans-109"/>
      <use x="1091.230469" xlink:href="#DejaVuSans-101"/>
      <use x="1152.753906" xlink:href="#DejaVuSans-116"/>
      <use x="1191.962891" xlink:href="#DejaVuSans-101"/>
      <use x="1253.486328" xlink:href="#DejaVuSans-114"/>
     </g>
    </g>
   </g>
   <g id="line2d_10">
    <path clip-path="url(#p9cedfaa02b)" d="M 102.436364 263.355087 
L 244.472727 263.355087 
L 244.472727 235.339052 
L 102.436364 235.339052 
L 102.436364 263.355087 
" style="fill:none;stroke:#000000;stroke-linecap:square;"/>
   </g>
   <g id="line2d_11">
    <path clip-path="url(#p9cedfaa02b)" d="M 173.454545 263.355087 
L 173.454545 268.649503 
" style="fill:none;stroke:#000000;stroke-linecap:square;"/>
   </g>
   <g id="line2d_12">
    <path clip-path="url(#p9cedfaa02b)" d="M 173.454545 235.339052 
L 173.454545 220.940184 
" style="fill:none;stroke:#000000;stroke-linecap:square;"/>
   </g>
   <g id="line2d_13">
    <path clip-path="url(#p9cedfaa02b)" d="M 137.945455 268.649503 
L 208.963636 268.649503 
" style="fill:none;stroke:#000000;stroke-linecap:square;"/>
   </g>
   <g id="line2d_14">
    <path clip-path="url(#p9cedfaa02b)" d="M 137.945455 220.940184 
L 208.963636 220.940184 
" style="fill:none;stroke:#000000;stroke-linecap:square;"/>
   </g>
   <g id="line2d_15">
    <path clip-path="url(#p9cedfaa02b)" d="M 102.436364 253.341284 
L 244.472727 253.341284 
" style="fill:none;stroke:#ff7f0e;stroke-linecap:square;"/>
   </g>
   <g id="patch_3">
    <path d="M 72 272 
L 72 86.4 
" style="fill:none;stroke:#000000;stroke-linecap:square;stroke-linejoin:miter;stroke-width:0.8;"/>
   </g>
   <g id="patch_4">
    <path d="M 274.909091 272 
L 274.909091 86.4 
" style="fill:none;stroke:#000000;stroke-linecap:square;stroke-linejoin:miter;stroke-width:0.8;"/>
   </g>
   <g id="patch_5">
    <path d="M 72 272 
L 274.909091 272 
" style="fill:none;stroke:#000000;stroke-linecap:square;stroke-linejoin:miter;stroke-width:0.8;"/>
   </g>
   <g id="patch_6">
    <path d="M 72 86.4 
L 274.909091 86.4 
" style="fill:none;stroke:#000000;stroke-linecap:square;stroke-linejoin:miter;stroke-width:0.8;"/>
   </g>
   <g id="text_11">
    <!-- Dec, Jan, Feb: -->
    <defs>
     <path d="M 19.671875 64.796875 
L 19.671875 8.109375 
L 31.59375 8.109375 
Q 46.6875 8.109375 53.6875 14.9375 
Q 60.6875 21.78125 60.6875 36.53125 
Q 60.6875 51.171875 53.6875 57.984375 
Q 46.6875 64.796875 31.59375 64.796875 
z
M 9.8125 72.90625 
L 30.078125 72.90625 
Q 51.265625 72.90625 61.171875 64.09375 
Q 71.09375 55.28125 71.09375 36.53125 
Q 71.09375 17.671875 61.125 8.828125 
Q 51.171875 0 30.078125 0 
L 9.8125 0 
z
" id="DejaVuSans-68"/>
     <path d="M 11.71875 12.40625 
L 22.015625 12.40625 
L 22.015625 4 
L 14.015625 -11.625 
L 7.71875 -11.625 
L 11.71875 4 
z
" id="DejaVuSans-44"/>
     <path d="M 9.8125 72.90625 
L 19.671875 72.90625 
L 19.671875 5.078125 
Q 19.671875 -8.109375 14.671875 -14.0625 
Q 9.671875 -20.015625 -1.421875 -20.015625 
L -5.171875 -20.015625 
L -5.171875 -11.71875 
L -2.09375 -11.71875 
Q 4.4375 -11.71875 7.125 -8.046875 
Q 9.8125 -4.390625 9.8125 5.078125 
z
" id="DejaVuSans-74"/>
     <path d="M 9.8125 72.90625 
L 51.703125 72.90625 
L 51.703125 64.59375 
L 19.671875 64.59375 
L 19.671875 43.109375 
L 48.578125 43.109375 
L 48.578125 34.8125 
L 19.671875 34.8125 
L 19.671875 0 
L 9.8125 0 
z
" id="DejaVuSans-70"/>
     <path d="M 48.6875 27.296875 
Q 48.6875 37.203125 44.609375 42.84375 
Q 40.53125 48.484375 33.40625 48.484375 
Q 26.265625 48.484375 22.1875 42.84375 
Q 18.109375 37.203125 18.109375 27.296875 
Q 18.109375 17.390625 22.1875 11.75 
Q 26.265625 6.109375 33.40625 6.109375 
Q 40.53125 6.109375 44.609375 11.75 
Q 48.6875 17.390625 48.6875 27.296875 
z
M 18.109375 46.390625 
Q 20.953125 51.265625 25.265625 53.625 
Q 29.59375 56 35.59375 56 
Q 45.5625 56 51.78125 48.09375 
Q 58.015625 40.1875 58.015625 27.296875 
Q 58.015625 14.40625 51.78125 6.484375 
Q 45.5625 -1.421875 35.59375 -1.421875 
Q 29.59375 -1.421875 25.265625 0.953125 
Q 20.953125 3.328125 18.109375 8.203125 
L 18.109375 0 
L 9.078125 0 
L 9.078125 75.984375 
L 18.109375 75.984375 
z
" id="DejaVuSans-98"/>
     <path d="M 11.71875 12.40625 
L 22.015625 12.40625 
L 22.015625 0 
L 11.71875 0 
z
M 11.71875 51.703125 
L 22.015625 51.703125 
L 22.015625 39.3125 
L 11.71875 39.3125 
z
" id="DejaVuSans-58"/>
    </defs>
    <g transform="translate(72 80.4)scale(0.14 -0.14)">
     <use xlink:href="#DejaVuSans-68"/>
     <use x="77.001953" xlink:href="#DejaVuSans-101"/>
     <use x="138.525391" xlink:href="#DejaVuSans-99"/>
     <use x="193.505859" xlink:href="#DejaVuSans-44"/>
     <use x="225.292969" xlink:href="#DejaVuSans-32"/>
     <use x="257.080078" xlink:href="#DejaVuSans-74"/>
     <use x="286.572266" xlink:href="#DejaVuSans-97"/>
     <use x="347.851562" xlink:href="#DejaVuSans-110"/>
     <use x="411.230469" xlink:href="#DejaVuSans-44"/>
     <use x="443.017578" xlink:href="#DejaVuSans-32"/>
     <use x="474.804688" xlink:href="#DejaVuSans-70"/>
     <use x="532.246094" xlink:href="#DejaVuSans-101"/>
     <use x="593.769531" xlink:href="#DejaVuSans-98"/>
     <use x="657.246094" xlink:href="#DejaVuSans-58"/>
    </g>
   </g>
  </g>
  <g id="axes_2">
   <g id="patch_7">
    <path d="M 315.490909 272 
L 518.4 272 
L 518.4 86.4 
L 315.490909 86.4 
z
" style="fill:#ffffff;"/>
   </g>
   <g id="PathCollection_2">
    <defs>
     <path d="M 0 5 
C 1.326016 5 2.597899 4.473168 3.535534 3.535534 
C 4.473168 2.597899 5 1.326016 5 0 
C 5 -1.326016 4.473168 -2.597899 3.535534 -3.535534 
C 2.597899 -4.473168 1.326016 -5 0 -5 
C -1.326016 -5 -2.597899 -4.473168 -3.535534 -3.535534 
C -4.473168 -2.597899 -5 -1.326016 -5 0 
C -5 1.326016 -4.473168 2.597899 -3.535534 3.535534 
C -2.597899 4.473168 -1.326016 5 0 5 
z
" id="m7663b44128" style="stroke:#ffffff;stroke-opacity:0.7;"/>
    </defs>
    <g clip-path="url(#p382b4ad72a)">
     <use style="fill:#00ff00;fill-opacity:0.7;stroke:#ffffff;stroke-opacity:0.7;" x="475.922317" xlink:href="#m7663b44128" y="270.689622"/>
     <use style="fill:#00ff00;fill-opacity:0.7;stroke:#ffffff;stroke-opacity:0.7;" x="487.29246" xlink:href="#m7663b44128" y="270.143008"/>
     <use style="fill:#00ff00;fill-opacity:0.7;stroke:#ffffff;stroke-opacity:0.7;" x="480.849929" xlink:href="#m7663b44128" y="270.004482"/>
     <use style="fill:#00ff00;fill-opacity:0.7;stroke:#ffffff;stroke-opacity:0.7;" x="393.088016" xlink:href="#m7663b44128" y="269.978275"/>
     <use style="fill:#00ff00;fill-opacity:0.7;stroke:#ffffff;stroke-opacity:0.7;" x="352.139821" xlink:href="#m7663b44128" y="269.529002"/>
     <use style="fill:#00ff00;fill-opacity:0.7;stroke:#ffffff;stroke-opacity:0.7;" x="409.785023" xlink:href="#m7663b44128" y="269.435404"/>
     <use style="fill:#00ff00;fill-opacity:0.7;stroke:#ffffff;stroke-opacity:0.7;" x="416.503108" xlink:href="#m7663b44128" y="269.29875"/>
     <use style="fill:#00ff00;fill-opacity:0.7;stroke:#ffffff;stroke-opacity:0.7;" x="378.280421" xlink:href="#m7663b44128" y="269.165841"/>
     <use style="fill:#00ff00;fill-opacity:0.7;stroke:#ffffff;stroke-opacity:0.7;" x="447.305433" xlink:href="#m7663b44128" y="268.609866"/>
     <use style="fill:#00ff00;fill-opacity:0.7;stroke:#ffffff;stroke-opacity:0.7;" x="444.788498" xlink:href="#m7663b44128" y="268.534987"/>
     <use style="fill:#00ff00;fill-opacity:0.7;stroke:#ffffff;stroke-opacity:0.7;" x="459.15711" xlink:href="#m7663b44128" y="268.080099"/>
     <use style="fill:#00ff00;fill-opacity:0.7;stroke:#ffffff;stroke-opacity:0.7;" x="356.080593" xlink:href="#m7663b44128" y="267.995861"/>
     <use style="fill:#00ff00;fill-opacity:0.7;stroke:#ffffff;stroke-opacity:0.7;" x="388.411766" xlink:href="#m7663b44128" y="267.780584"/>
     <use style="fill:#00ff00;fill-opacity:0.7;stroke:#ffffff;stroke-opacity:0.7;" x="357.974268" xlink:href="#m7663b44128" y="267.32008"/>
     <use style="fill:#00ff00;fill-opacity:0.7;stroke:#ffffff;stroke-opacity:0.7;" x="372.446351" xlink:href="#m7663b44128" y="267.265793"/>
     <use style="fill:#00ff00;fill-opacity:0.7;stroke:#ffffff;stroke-opacity:0.7;" x="474.983655" xlink:href="#m7663b44128" y="267.179683"/>
     <use style="fill:#00ff00;fill-opacity:0.7;stroke:#ffffff;stroke-opacity:0.7;" x="464.65784" xlink:href="#m7663b44128" y="266.852088"/>
     <use style="fill:#00ff00;fill-opacity:0.7;stroke:#ffffff;stroke-opacity:0.7;" x="348.167821" xlink:href="#m7663b44128" y="266.696715"/>
     <use style="fill:#00ff00;fill-opacity:0.7;stroke:#ffffff;stroke-opacity:0.7;" x="388.414475" xlink:href="#m7663b44128" y="266.451487"/>
     <use style="fill:#00ff00;fill-opacity:0.7;stroke:#ffffff;stroke-opacity:0.7;" x="460.421021" xlink:href="#m7663b44128" y="266.153844"/>
     <use style="fill:#00ff00;fill-opacity:0.7;stroke:#ffffff;stroke-opacity:0.7;" x="380.430079" xlink:href="#m7663b44128" y="266.071478"/>
     <use style="fill:#00ff00;fill-opacity:0.7;stroke:#ffffff;stroke-opacity:0.7;" x="450.520081" xlink:href="#m7663b44128" y="265.766347"/>
     <use style="fill:#00ff00;fill-opacity:0.7;stroke:#ffffff;stroke-opacity:0.7;" x="385.181504" xlink:href="#m7663b44128" y="265.232836"/>
     <use style="fill:#00ff00;fill-opacity:0.7;stroke:#ffffff;stroke-opacity:0.7;" x="357.31735" xlink:href="#m7663b44128" y="261.019036"/>
     <use style="fill:#00ff00;fill-opacity:0.7;stroke:#ffffff;stroke-opacity:0.7;" x="415.669214" xlink:href="#m7663b44128" y="260.663362"/>
     <use style="fill:#00ff00;fill-opacity:0.7;stroke:#ffffff;stroke-opacity:0.7;" x="357.910728" xlink:href="#m7663b44128" y="260.367592"/>
     <use style="fill:#00ff00;fill-opacity:0.7;stroke:#ffffff;stroke-opacity:0.7;" x="369.643142" xlink:href="#m7663b44128" y="259.364217"/>
     <use style="fill:#00ff00;fill-opacity:0.7;stroke:#ffffff;stroke-opacity:0.7;" x="379.600678" xlink:href="#m7663b44128" y="257.960241"/>
     <use style="fill:#00ff00;fill-opacity:0.7;stroke:#ffffff;stroke-opacity:0.7;" x="411.649259" xlink:href="#m7663b44128" y="257.608311"/>
     <use style="fill:#00ff00;fill-opacity:0.7;stroke:#ffffff;stroke-opacity:0.7;" x="369.734431" xlink:href="#m7663b44128" y="255.152289"/>
     <use style="fill:#00ff00;fill-opacity:0.7;stroke:#ffffff;stroke-opacity:0.7;" x="461.882963" xlink:href="#m7663b44128" y="254.684297"/>
     <use style="fill:#00ff00;fill-opacity:0.7;stroke:#ffffff;stroke-opacity:0.7;" x="390.809359" xlink:href="#m7663b44128" y="253.680922"/>
     <use style="fill:#00ff00;fill-opacity:0.7;stroke:#ffffff;stroke-opacity:0.7;" x="469.828733" xlink:href="#m7663b44128" y="253.036965"/>
     <use style="fill:#00ff00;fill-opacity:0.7;stroke:#ffffff;stroke-opacity:0.7;" x="430.211303" xlink:href="#m7663b44128" y="251.007752"/>
     <use style="fill:#00ff00;fill-opacity:0.7;stroke:#ffffff;stroke-opacity:0.7;" x="351.104063" xlink:href="#m7663b44128" y="251.007752"/>
     <use style="fill:#00ff00;fill-opacity:0.7;stroke:#ffffff;stroke-opacity:0.7;" x="409.418639" xlink:href="#m7663b44128" y="246.996125"/>
     <use style="fill:#00ff00;fill-opacity:0.7;stroke:#ffffff;stroke-opacity:0.7;" x="431.452158" xlink:href="#m7663b44128" y="246.786465"/>
     <use style="fill:#00ff00;fill-opacity:0.7;stroke:#ffffff;stroke-opacity:0.7;" x="386.371608" xlink:href="#m7663b44128" y="244.71794"/>
     <use style="fill:#00ff00;fill-opacity:0.7;stroke:#ffffff;stroke-opacity:0.7;" x="480.017427" xlink:href="#m7663b44128" y="243.568552"/>
     <use style="fill:#00ff00;fill-opacity:0.7;stroke:#ffffff;stroke-opacity:0.7;" x="354.781557" xlink:href="#m7663b44128" y="238.972871"/>
     <use style="fill:#00ff00;fill-opacity:0.7;stroke:#ffffff;stroke-opacity:0.7;" x="405.153452" xlink:href="#m7663b44128" y="237.720524"/>
     <use style="fill:#00ff00;fill-opacity:0.7;stroke:#ffffff;stroke-opacity:0.7;" x="392.626107" xlink:href="#m7663b44128" y="231.75269"/>
     <use style="fill:#00ff00;fill-opacity:0.7;stroke:#ffffff;stroke-opacity:0.7;" x="368.22126" xlink:href="#m7663b44128" y="230.320635"/>
     <use style="fill:#00ff00;fill-opacity:0.7;stroke:#ffffff;stroke-opacity:0.7;" x="394.735494" xlink:href="#m7663b44128" y="212.229937"/>
     <use style="fill:#00ff00;fill-opacity:0.7;stroke:#ffffff;stroke-opacity:0.7;" x="464.608769" xlink:href="#m7663b44128" y="206.080523"/>
     <use style="fill:#00ff00;fill-opacity:0.7;stroke:#ffffff;stroke-opacity:0.7;" x="398.945107" xlink:href="#m7663b44128" y="177.098716"/>
     <use style="fill:#00ff00;fill-opacity:0.7;stroke:#ffffff;stroke-opacity:0.7;" x="480.762339" xlink:href="#m7663b44128" y="168.105782"/>
     <use style="fill:#00ff00;fill-opacity:0.7;stroke:#ffffff;stroke-opacity:0.7;" x="366.512622" xlink:href="#m7663b44128" y="133.161758"/>
     <use style="fill:#00ff00;fill-opacity:0.7;stroke:#ffffff;stroke-opacity:0.7;" x="434.93092" xlink:href="#m7663b44128" y="99.076967"/>
     <use style="fill:#00ff00;fill-opacity:0.7;stroke:#ffffff;stroke-opacity:0.7;" x="351.280919" xlink:href="#m7663b44128" y="88.271968"/>
     <use style="fill:#00ff00;fill-opacity:0.7;stroke:#ffffff;stroke-opacity:0.7;" x="471.526633" xlink:href="#m7663b44128" y="87.171251"/>
    </g>
   </g>
   <g id="matplotlib.axis_3">
    <g id="xtick_2">
     <g id="line2d_16">
      <g>
       <use style="stroke:#000000;stroke-width:0.8;" x="416.945455" xlink:href="#mcf6b0dece8" y="272"/>
      </g>
     </g>
     <g id="text_12">
      <!-- spring -->
      <defs>
       <path d="M 45.40625 27.984375 
Q 45.40625 37.75 41.375 43.109375 
Q 37.359375 48.484375 30.078125 48.484375 
Q 22.859375 48.484375 18.828125 43.109375 
Q 14.796875 37.75 14.796875 27.984375 
Q 14.796875 18.265625 18.828125 12.890625 
Q 22.859375 7.515625 30.078125 7.515625 
Q 37.359375 7.515625 41.375 12.890625 
Q 45.40625 18.265625 45.40625 27.984375 
z
M 54.390625 6.78125 
Q 54.390625 -7.171875 48.1875 -13.984375 
Q 42 -20.796875 29.203125 -20.796875 
Q 24.46875 -20.796875 20.265625 -20.09375 
Q 16.0625 -19.390625 12.109375 -17.921875 
L 12.109375 -9.1875 
Q 16.0625 -11.328125 19.921875 -12.34375 
Q 23.78125 -13.375 27.78125 -13.375 
Q 36.625 -13.375 41.015625 -8.765625 
Q 45.40625 -4.15625 45.40625 5.171875 
L 45.40625 9.625 
Q 42.625 4.78125 38.28125 2.390625 
Q 33.9375 0 27.875 0 
Q 17.828125 0 11.671875 7.65625 
Q 5.515625 15.328125 5.515625 27.984375 
Q 5.515625 40.671875 11.671875 48.328125 
Q 17.828125 56 27.875 56 
Q 33.9375 56 38.28125 53.609375 
Q 42.625 51.21875 45.40625 46.390625 
L 45.40625 54.6875 
L 54.390625 54.6875 
z
" id="DejaVuSans-103"/>
      </defs>
      <g transform="translate(395.152486 289.637812)scale(0.14 -0.14)">
       <use xlink:href="#DejaVuSans-115"/>
       <use x="52.099609" xlink:href="#DejaVuSans-112"/>
       <use x="115.576172" xlink:href="#DejaVuSans-114"/>
       <use x="156.689453" xlink:href="#DejaVuSans-105"/>
       <use x="184.472656" xlink:href="#DejaVuSans-110"/>
       <use x="247.851562" xlink:href="#DejaVuSans-103"/>
      </g>
     </g>
    </g>
   </g>
   <g id="matplotlib.axis_4">
    <g id="ytick_9">
     <g id="line2d_17">
      <g>
       <use style="stroke:#000000;stroke-width:0.8;" x="315.490909" xlink:href="#mbbd31a7fd8" y="271.064016"/>
      </g>
     </g>
     <g id="text_13">
      <!-- 0 -->
      <g transform="translate(302.128409 274.863235)scale(0.1 -0.1)">
       <use xlink:href="#DejaVuSans-48"/>
      </g>
     </g>
    </g>
    <g id="ytick_10">
     <g id="line2d_18">
      <g>
       <use style="stroke:#000000;stroke-width:0.8;" x="315.490909" xlink:href="#mbbd31a7fd8" y="233.624658"/>
      </g>
     </g>
     <g id="text_14">
      <!-- 2 -->
      <g transform="translate(302.128409 237.423877)scale(0.1 -0.1)">
       <use xlink:href="#DejaVuSans-50"/>
      </g>
     </g>
    </g>
    <g id="ytick_11">
     <g id="line2d_19">
      <g>
       <use style="stroke:#000000;stroke-width:0.8;" x="315.490909" xlink:href="#mbbd31a7fd8" y="196.185301"/>
      </g>
     </g>
     <g id="text_15">
      <!-- 4 -->
      <defs>
       <path d="M 37.796875 64.3125 
L 12.890625 25.390625 
L 37.796875 25.390625 
z
M 35.203125 72.90625 
L 47.609375 72.90625 
L 47.609375 25.390625 
L 58.015625 25.390625 
L 58.015625 17.1875 
L 47.609375 17.1875 
L 47.609375 0 
L 37.796875 0 
L 37.796875 17.1875 
L 4.890625 17.1875 
L 4.890625 26.703125 
z
" id="DejaVuSans-52"/>
      </defs>
      <g transform="translate(302.128409 199.984519)scale(0.1 -0.1)">
       <use xlink:href="#DejaVuSans-52"/>
      </g>
     </g>
    </g>
    <g id="ytick_12">
     <g id="line2d_20">
      <g>
       <use style="stroke:#000000;stroke-width:0.8;" x="315.490909" xlink:href="#mbbd31a7fd8" y="158.745943"/>
      </g>
     </g>
     <g id="text_16">
      <!-- 6 -->
      <defs>
       <path d="M 33.015625 40.375 
Q 26.375 40.375 22.484375 35.828125 
Q 18.609375 31.296875 18.609375 23.390625 
Q 18.609375 15.53125 22.484375 10.953125 
Q 26.375 6.390625 33.015625 6.390625 
Q 39.65625 6.390625 43.53125 10.953125 
Q 47.40625 15.53125 47.40625 23.390625 
Q 47.40625 31.296875 43.53125 35.828125 
Q 39.65625 40.375 33.015625 40.375 
z
M 52.59375 71.296875 
L 52.59375 62.3125 
Q 48.875 64.0625 45.09375 64.984375 
Q 41.3125 65.921875 37.59375 65.921875 
Q 27.828125 65.921875 22.671875 59.328125 
Q 17.53125 52.734375 16.796875 39.40625 
Q 19.671875 43.65625 24.015625 45.921875 
Q 28.375 48.1875 33.59375 48.1875 
Q 44.578125 48.1875 50.953125 41.515625 
Q 57.328125 34.859375 57.328125 23.390625 
Q 57.328125 12.15625 50.6875 5.359375 
Q 44.046875 -1.421875 33.015625 -1.421875 
Q 20.359375 -1.421875 13.671875 8.265625 
Q 6.984375 17.96875 6.984375 36.375 
Q 6.984375 53.65625 15.1875 63.9375 
Q 23.390625 74.21875 37.203125 74.21875 
Q 40.921875 74.21875 44.703125 73.484375 
Q 48.484375 72.75 52.59375 71.296875 
z
" id="DejaVuSans-54"/>
      </defs>
      <g transform="translate(302.128409 162.545162)scale(0.1 -0.1)">
       <use xlink:href="#DejaVuSans-54"/>
      </g>
     </g>
    </g>
    <g id="ytick_13">
     <g id="line2d_21">
      <g>
       <use style="stroke:#000000;stroke-width:0.8;" x="315.490909" xlink:href="#mbbd31a7fd8" y="121.306585"/>
      </g>
     </g>
     <g id="text_17">
      <!-- 8 -->
      <defs>
       <path d="M 31.78125 34.625 
Q 24.75 34.625 20.71875 30.859375 
Q 16.703125 27.09375 16.703125 20.515625 
Q 16.703125 13.921875 20.71875 10.15625 
Q 24.75 6.390625 31.78125 6.390625 
Q 38.8125 6.390625 42.859375 10.171875 
Q 46.921875 13.96875 46.921875 20.515625 
Q 46.921875 27.09375 42.890625 30.859375 
Q 38.875 34.625 31.78125 34.625 
z
M 21.921875 38.8125 
Q 15.578125 40.375 12.03125 44.71875 
Q 8.5 49.078125 8.5 55.328125 
Q 8.5 64.0625 14.71875 69.140625 
Q 20.953125 74.21875 31.78125 74.21875 
Q 42.671875 74.21875 48.875 69.140625 
Q 55.078125 64.0625 55.078125 55.328125 
Q 55.078125 49.078125 51.53125 44.71875 
Q 48 40.375 41.703125 38.8125 
Q 48.828125 37.15625 52.796875 32.3125 
Q 56.78125 27.484375 56.78125 20.515625 
Q 56.78125 9.90625 50.3125 4.234375 
Q 43.84375 -1.421875 31.78125 -1.421875 
Q 19.734375 -1.421875 13.25 4.234375 
Q 6.78125 9.90625 6.78125 20.515625 
Q 6.78125 27.484375 10.78125 32.3125 
Q 14.796875 37.15625 21.921875 38.8125 
z
M 18.3125 54.390625 
Q 18.3125 48.734375 21.84375 45.5625 
Q 25.390625 42.390625 31.78125 42.390625 
Q 38.140625 42.390625 41.71875 45.5625 
Q 45.3125 48.734375 45.3125 54.390625 
Q 45.3125 60.0625 41.71875 63.234375 
Q 38.140625 66.40625 31.78125 66.40625 
Q 25.390625 66.40625 21.84375 63.234375 
Q 18.3125 60.0625 18.3125 54.390625 
z
" id="DejaVuSans-56"/>
      </defs>
      <g transform="translate(302.128409 125.105804)scale(0.1 -0.1)">
       <use xlink:href="#DejaVuSans-56"/>
      </g>
     </g>
    </g>
   </g>
   <g id="line2d_22">
    <path clip-path="url(#p382b4ad72a)" d="M 345.927273 267.550332 
L 487.963636 267.550332 
L 487.963636 244.143246 
L 345.927273 244.143246 
L 345.927273 267.550332 
" style="fill:none;stroke:#000000;stroke-linecap:square;"/>
   </g>
   <g id="line2d_23">
    <path clip-path="url(#p382b4ad72a)" d="M 416.945455 267.550332 
L 416.945455 270.689622 
" style="fill:none;stroke:#000000;stroke-linecap:square;"/>
   </g>
   <g id="line2d_24">
    <path clip-path="url(#p382b4ad72a)" d="M 416.945455 244.143246 
L 416.945455 212.229937 
" style="fill:none;stroke:#000000;stroke-linecap:square;"/>
   </g>
   <g id="line2d_25">
    <path clip-path="url(#p382b4ad72a)" d="M 381.436364 270.689622 
L 452.454545 270.689622 
" style="fill:none;stroke:#000000;stroke-linecap:square;"/>
   </g>
   <g id="line2d_26">
    <path clip-path="url(#p382b4ad72a)" d="M 381.436364 212.229937 
L 452.454545 212.229937 
" style="fill:none;stroke:#000000;stroke-linecap:square;"/>
   </g>
   <g id="line2d_27">
    <path clip-path="url(#p382b4ad72a)" d="M 345.927273 260.367592 
L 487.963636 260.367592 
" style="fill:none;stroke:#ff7f0e;stroke-linecap:square;"/>
   </g>
   <g id="patch_8">
    <path d="M 315.490909 272 
L 315.490909 86.4 
" style="fill:none;stroke:#000000;stroke-linecap:square;stroke-linejoin:miter;stroke-width:0.8;"/>
   </g>
   <g id="patch_9">
    <path d="M 518.4 272 
L 518.4 86.4 
" style="fill:none;stroke:#000000;stroke-linecap:square;stroke-linejoin:miter;stroke-width:0.8;"/>
   </g>
   <g id="patch_10">
    <path d="M 315.490909 272 
L 518.4 272 
" style="fill:none;stroke:#000000;stroke-linecap:square;stroke-linejoin:miter;stroke-width:0.8;"/>
   </g>
   <g id="patch_11">
    <path d="M 315.490909 86.4 
L 518.4 86.4 
" style="fill:none;stroke:#000000;stroke-linecap:square;stroke-linejoin:miter;stroke-width:0.8;"/>
   </g>
   <g id="text_18">
    <!-- Mar, Apr, May: -->
    <defs>
     <path d="M 9.8125 72.90625 
L 24.515625 72.90625 
L 43.109375 23.296875 
L 61.8125 72.90625 
L 76.515625 72.90625 
L 76.515625 0 
L 66.890625 0 
L 66.890625 64.015625 
L 48.09375 14.015625 
L 38.1875 14.015625 
L 19.390625 64.015625 
L 19.390625 0 
L 9.8125 0 
z
" id="DejaVuSans-77"/>
     <path d="M 34.1875 63.1875 
L 20.796875 26.90625 
L 47.609375 26.90625 
z
M 28.609375 72.90625 
L 39.796875 72.90625 
L 67.578125 0 
L 57.328125 0 
L 50.6875 18.703125 
L 17.828125 18.703125 
L 11.1875 0 
L 0.78125 0 
z
" id="DejaVuSans-65"/>
     <path d="M 32.171875 -5.078125 
Q 28.375 -14.84375 24.75 -17.8125 
Q 21.140625 -20.796875 15.09375 -20.796875 
L 7.90625 -20.796875 
L 7.90625 -13.28125 
L 13.1875 -13.28125 
Q 16.890625 -13.28125 18.9375 -11.515625 
Q 21 -9.765625 23.484375 -3.21875 
L 25.09375 0.875 
L 2.984375 54.6875 
L 12.5 54.6875 
L 29.59375 11.921875 
L 46.6875 54.6875 
L 56.203125 54.6875 
z
" id="DejaVuSans-121"/>
    </defs>
    <g transform="translate(315.490909 80.4)scale(0.14 -0.14)">
     <use xlink:href="#DejaVuSans-77"/>
     <use x="86.279297" xlink:href="#DejaVuSans-97"/>
     <use x="147.558594" xlink:href="#DejaVuSans-114"/>
     <use x="188.671875" xlink:href="#DejaVuSans-44"/>
     <use x="220.458984" xlink:href="#DejaVuSans-32"/>
     <use x="252.246094" xlink:href="#DejaVuSans-65"/>
     <use x="320.654297" xlink:href="#DejaVuSans-112"/>
     <use x="384.130859" xlink:href="#DejaVuSans-114"/>
     <use x="425.244141" xlink:href="#DejaVuSans-44"/>
     <use x="457.03125" xlink:href="#DejaVuSans-32"/>
     <use x="488.818359" xlink:href="#DejaVuSans-77"/>
     <use x="575.097656" xlink:href="#DejaVuSans-97"/>
     <use x="636.376953" xlink:href="#DejaVuSans-121"/>
     <use x="695.447266" xlink:href="#DejaVuSans-58"/>
    </g>
   </g>
  </g>
  <g id="axes_3">
   <g id="patch_12">
    <path d="M 72 504 
L 274.909091 504 
L 274.909091 318.4 
L 72 318.4 
z
" style="fill:#ffffff;"/>
   </g>
   <g id="PathCollection_3">
    <defs>
     <path d="M 0 5 
C 1.326016 5 2.597899 4.473168 3.535534 3.535534 
C 4.473168 2.597899 5 1.326016 5 0 
C 5 -1.326016 4.473168 -2.597899 3.535534 -3.535534 
C 2.597899 -4.473168 1.326016 -5 0 -5 
C -1.326016 -5 -2.597899 -4.473168 -3.535534 -3.535534 
C -4.473168 -2.597899 -5 -1.326016 -5 0 
C -5 1.326016 -4.473168 2.597899 -3.535534 3.535534 
C -2.597899 4.473168 -1.326016 5 0 5 
z
" id="m94885f145a" style="stroke:#ffffff;stroke-opacity:0.7;"/>
    </defs>
    <g clip-path="url(#p9b8aa88785)">
     <use style="fill:#8b4513;fill-opacity:0.7;stroke:#ffffff;stroke-opacity:0.7;" x="105.491643" xlink:href="#m94885f145a" y="495.625888"/>
     <use style="fill:#8b4513;fill-opacity:0.7;stroke:#ffffff;stroke-opacity:0.7;" x="197.635321" xlink:href="#m94885f145a" y="495.625888"/>
     <use style="fill:#8b4513;fill-opacity:0.7;stroke:#ffffff;stroke-opacity:0.7;" x="151.829912" xlink:href="#m94885f145a" y="493.878985"/>
     <use style="fill:#8b4513;fill-opacity:0.7;stroke:#ffffff;stroke-opacity:0.7;" x="241.414284" xlink:href="#m94885f145a" y="492.899532"/>
     <use style="fill:#8b4513;fill-opacity:0.7;stroke:#ffffff;stroke-opacity:0.7;" x="131.955496" xlink:href="#m94885f145a" y="490.758303"/>
     <use style="fill:#8b4513;fill-opacity:0.7;stroke:#ffffff;stroke-opacity:0.7;" x="175.293408" xlink:href="#m94885f145a" y="489.76613"/>
     <use style="fill:#8b4513;fill-opacity:0.7;stroke:#ffffff;stroke-opacity:0.7;" x="210.451015" xlink:href="#m94885f145a" y="483.707089"/>
     <use style="fill:#8b4513;fill-opacity:0.7;stroke:#ffffff;stroke-opacity:0.7;" x="208.048842" xlink:href="#m94885f145a" y="480.332004"/>
     <use style="fill:#8b4513;fill-opacity:0.7;stroke:#ffffff;stroke-opacity:0.7;" x="224.716207" xlink:href="#m94885f145a" y="479.636634"/>
     <use style="fill:#8b4513;fill-opacity:0.7;stroke:#ffffff;stroke-opacity:0.7;" x="125.747724" xlink:href="#m94885f145a" y="475.464419"/>
     <use style="fill:#8b4513;fill-opacity:0.7;stroke:#ffffff;stroke-opacity:0.7;" x="135.274586" xlink:href="#m94885f145a" y="473.611514"/>
     <use style="fill:#8b4513;fill-opacity:0.7;stroke:#ffffff;stroke-opacity:0.7;" x="149.150039" xlink:href="#m94885f145a" y="461.773276"/>
     <use style="fill:#8b4513;fill-opacity:0.7;stroke:#ffffff;stroke-opacity:0.7;" x="241.046686" xlink:href="#m94885f145a" y="461.048226"/>
     <use style="fill:#8b4513;fill-opacity:0.7;stroke:#ffffff;stroke-opacity:0.7;" x="173.082112" xlink:href="#m94885f145a" y="459.479405"/>
     <use style="fill:#8b4513;fill-opacity:0.7;stroke:#ffffff;stroke-opacity:0.7;" x="192.990271" xlink:href="#m94885f145a" y="459.479405"/>
     <use style="fill:#8b4513;fill-opacity:0.7;stroke:#ffffff;stroke-opacity:0.7;" x="129.013118" xlink:href="#m94885f145a" y="450.392964"/>
     <use style="fill:#8b4513;fill-opacity:0.7;stroke:#ffffff;stroke-opacity:0.7;" x="219.472855" xlink:href="#m94885f145a" y="435.099079"/>
     <use style="fill:#8b4513;fill-opacity:0.7;stroke:#ffffff;stroke-opacity:0.7;" x="176.291599" xlink:href="#m94885f145a" y="429.19268"/>
     <use style="fill:#8b4513;fill-opacity:0.7;stroke:#ffffff;stroke-opacity:0.7;" x="110.854536" xlink:href="#m94885f145a" y="418.469577"/>
     <use style="fill:#8b4513;fill-opacity:0.7;stroke:#ffffff;stroke-opacity:0.7;" x="113.869959" xlink:href="#m94885f145a" y="417.078839"/>
     <use style="fill:#8b4513;fill-opacity:0.7;stroke:#ffffff;stroke-opacity:0.7;" x="133.643317" xlink:href="#m94885f145a" y="396.450963"/>
     <use style="fill:#8b4513;fill-opacity:0.7;stroke:#ffffff;stroke-opacity:0.7;" x="158.75835" xlink:href="#m94885f145a" y="322.640057"/>
     <use style="fill:#8b4513;fill-opacity:0.7;stroke:#ffffff;stroke-opacity:0.7;" x="214.406032" xlink:href="#m94885f145a" y="283.818098"/>
    </g>
   </g>
   <g id="matplotlib.axis_5">
    <g id="xtick_3">
     <g id="line2d_28">
      <g>
       <use style="stroke:#000000;stroke-width:0.8;" x="173.454545" xlink:href="#mcf6b0dece8" y="504"/>
      </g>
     </g>
     <g id="text_19">
      <!-- summer -->
      <defs>
       <path d="M 8.5 21.578125 
L 8.5 54.6875 
L 17.484375 54.6875 
L 17.484375 21.921875 
Q 17.484375 14.15625 20.5 10.265625 
Q 23.53125 6.390625 29.59375 6.390625 
Q 36.859375 6.390625 41.078125 11.03125 
Q 45.3125 15.671875 45.3125 23.6875 
L 45.3125 54.6875 
L 54.296875 54.6875 
L 54.296875 0 
L 45.3125 0 
L 45.3125 8.40625 
Q 42.046875 3.421875 37.71875 1 
Q 33.40625 -1.421875 27.6875 -1.421875 
Q 18.265625 -1.421875 13.375 4.4375 
Q 8.5 10.296875 8.5 21.578125 
z
M 31.109375 56 
z
" id="DejaVuSans-117"/>
      </defs>
      <g transform="translate(144.550014 521.637812)scale(0.14 -0.14)">
       <use xlink:href="#DejaVuSans-115"/>
       <use x="52.099609" xlink:href="#DejaVuSans-117"/>
       <use x="115.478516" xlink:href="#DejaVuSans-109"/>
       <use x="212.890625" xlink:href="#DejaVuSans-109"/>
       <use x="310.302734" xlink:href="#DejaVuSans-101"/>
       <use x="371.826172" xlink:href="#DejaVuSans-114"/>
      </g>
     </g>
    </g>
   </g>
   <g id="matplotlib.axis_6">
    <g id="ytick_14">
     <g id="line2d_29">
      <g>
       <use style="stroke:#000000;stroke-width:0.8;" x="72" xlink:href="#mbbd31a7fd8" y="501.879972"/>
      </g>
     </g>
     <g id="text_20">
      <!-- 0.0 -->
      <g transform="translate(49.096875 505.67919)scale(0.1 -0.1)">
       <use xlink:href="#DejaVuSans-48"/>
       <use x="63.623047" xlink:href="#DejaVuSans-46"/>
       <use x="95.410156" xlink:href="#DejaVuSans-48"/>
      </g>
     </g>
    </g>
    <g id="ytick_15">
     <g id="line2d_30">
      <g>
       <use style="stroke:#000000;stroke-width:0.8;" x="72" xlink:href="#mbbd31a7fd8" y="480.679688"/>
      </g>
     </g>
     <g id="text_21">
      <!-- 0.5 -->
      <g transform="translate(49.096875 484.478907)scale(0.1 -0.1)">
       <use xlink:href="#DejaVuSans-48"/>
       <use x="63.623047" xlink:href="#DejaVuSans-46"/>
       <use x="95.410156" xlink:href="#DejaVuSans-53"/>
      </g>
     </g>
    </g>
    <g id="ytick_16">
     <g id="line2d_31">
      <g>
       <use style="stroke:#000000;stroke-width:0.8;" x="72" xlink:href="#mbbd31a7fd8" y="459.479405"/>
      </g>
     </g>
     <g id="text_22">
      <!-- 1.0 -->
      <g transform="translate(49.096875 463.278624)scale(0.1 -0.1)">
       <use xlink:href="#DejaVuSans-49"/>
       <use x="63.623047" xlink:href="#DejaVuSans-46"/>
       <use x="95.410156" xlink:href="#DejaVuSans-48"/>
      </g>
     </g>
    </g>
    <g id="ytick_17">
     <g id="line2d_32">
      <g>
       <use style="stroke:#000000;stroke-width:0.8;" x="72" xlink:href="#mbbd31a7fd8" y="438.279122"/>
      </g>
     </g>
     <g id="text_23">
      <!-- 1.5 -->
      <g transform="translate(49.096875 442.078341)scale(0.1 -0.1)">
       <use xlink:href="#DejaVuSans-49"/>
       <use x="63.623047" xlink:href="#DejaVuSans-46"/>
       <use x="95.410156" xlink:href="#DejaVuSans-53"/>
      </g>
     </g>
    </g>
    <g id="ytick_18">
     <g id="line2d_33">
      <g>
       <use style="stroke:#000000;stroke-width:0.8;" x="72" xlink:href="#mbbd31a7fd8" y="417.078839"/>
      </g>
     </g>
     <g id="text_24">
      <!-- 2.0 -->
      <g transform="translate(49.096875 420.878057)scale(0.1 -0.1)">
       <use xlink:href="#DejaVuSans-50"/>
       <use x="63.623047" xlink:href="#DejaVuSans-46"/>
       <use x="95.410156" xlink:href="#DejaVuSans-48"/>
      </g>
     </g>
    </g>
    <g id="ytick_19">
     <g id="line2d_34">
      <g>
       <use style="stroke:#000000;stroke-width:0.8;" x="72" xlink:href="#mbbd31a7fd8" y="395.878555"/>
      </g>
     </g>
     <g id="text_25">
      <!-- 2.5 -->
      <g transform="translate(49.096875 399.677774)scale(0.1 -0.1)">
       <use xlink:href="#DejaVuSans-50"/>
       <use x="63.623047" xlink:href="#DejaVuSans-46"/>
       <use x="95.410156" xlink:href="#DejaVuSans-53"/>
      </g>
     </g>
    </g>
    <g id="ytick_20">
     <g id="line2d_35">
      <g>
       <use style="stroke:#000000;stroke-width:0.8;" x="72" xlink:href="#mbbd31a7fd8" y="374.678272"/>
      </g>
     </g>
     <g id="text_26">
      <!-- 3.0 -->
      <g transform="translate(49.096875 378.477491)scale(0.1 -0.1)">
       <use xlink:href="#DejaVuSans-51"/>
       <use x="63.623047" xlink:href="#DejaVuSans-46"/>
       <use x="95.410156" xlink:href="#DejaVuSans-48"/>
      </g>
     </g>
    </g>
    <g id="ytick_21">
     <g id="line2d_36">
      <g>
       <use style="stroke:#000000;stroke-width:0.8;" x="72" xlink:href="#mbbd31a7fd8" y="353.477989"/>
      </g>
     </g>
     <g id="text_27">
      <!-- 3.5 -->
      <g transform="translate(49.096875 357.277207)scale(0.1 -0.1)">
       <use xlink:href="#DejaVuSans-51"/>
       <use x="63.623047" xlink:href="#DejaVuSans-46"/>
       <use x="95.410156" xlink:href="#DejaVuSans-53"/>
      </g>
     </g>
    </g>
    <g id="ytick_22">
     <g id="line2d_37">
      <g>
       <use style="stroke:#000000;stroke-width:0.8;" x="72" xlink:href="#mbbd31a7fd8" y="332.277705"/>
      </g>
     </g>
     <g id="text_28">
      <!-- 4.0 -->
      <g transform="translate(49.096875 336.076924)scale(0.1 -0.1)">
       <use xlink:href="#DejaVuSans-52"/>
       <use x="63.623047" xlink:href="#DejaVuSans-46"/>
       <use x="95.410156" xlink:href="#DejaVuSans-48"/>
      </g>
     </g>
    </g>
    <g id="text_29">
     <!-- Broken plastics per meter -->
     <g transform="translate(42.60125 488.875625)rotate(-90)scale(0.12 -0.12)">
      <use xlink:href="#DejaVuSans-66"/>
      <use x="68.603516" xlink:href="#DejaVuSans-114"/>
      <use x="109.685547" xlink:href="#DejaVuSans-111"/>
      <use x="170.867188" xlink:href="#DejaVuSans-107"/>
      <use x="228.730469" xlink:href="#DejaVuSans-101"/>
      <use x="290.253906" xlink:href="#DejaVuSans-110"/>
      <use x="353.632812" xlink:href="#DejaVuSans-32"/>
      <use x="385.419922" xlink:href="#DejaVuSans-112"/>
      <use x="448.896484" xlink:href="#DejaVuSans-108"/>
      <use x="476.679688" xlink:href="#DejaVuSans-97"/>
      <use x="537.958984" xlink:href="#DejaVuSans-115"/>
      <use x="590.058594" xlink:href="#DejaVuSans-116"/>
      <use x="629.267578" xlink:href="#DejaVuSans-105"/>
      <use x="657.050781" xlink:href="#DejaVuSans-99"/>
      <use x="712.03125" xlink:href="#DejaVuSans-115"/>
      <use x="764.130859" xlink:href="#DejaVuSans-32"/>
      <use x="795.917969" xlink:href="#DejaVuSans-112"/>
      <use x="859.394531" xlink:href="#DejaVuSans-101"/>
      <use x="920.917969" xlink:href="#DejaVuSans-114"/>
      <use x="962.03125" xlink:href="#DejaVuSans-32"/>
      <use x="993.818359" xlink:href="#DejaVuSans-109"/>
      <use x="1091.230469" xlink:href="#DejaVuSans-101"/>
      <use x="1152.753906" xlink:href="#DejaVuSans-116"/>
      <use x="1191.962891" xlink:href="#DejaVuSans-101"/>
      <use x="1253.486328" xlink:href="#DejaVuSans-114"/>
     </g>
    </g>
   </g>
   <g id="line2d_38">
    <path clip-path="url(#p9b8aa88785)" d="M 102.436364 486.736609 
L 244.472727 486.736609 
L 244.472727 432.14588 
L 102.436364 432.14588 
L 102.436364 486.736609 
" style="fill:none;stroke:#000000;stroke-linecap:square;"/>
   </g>
   <g id="line2d_39">
    <path clip-path="url(#p9b8aa88785)" d="M 173.454545 486.736609 
L 173.454545 495.625888 
" style="fill:none;stroke:#000000;stroke-linecap:square;"/>
   </g>
   <g id="line2d_40">
    <path clip-path="url(#p9b8aa88785)" d="M 173.454545 432.14588 
L 173.454545 396.450963 
" style="fill:none;stroke:#000000;stroke-linecap:square;"/>
   </g>
   <g id="line2d_41">
    <path clip-path="url(#p9b8aa88785)" d="M 137.945455 495.625888 
L 208.963636 495.625888 
" style="fill:none;stroke:#000000;stroke-linecap:square;"/>
   </g>
   <g id="line2d_42">
    <path clip-path="url(#p9b8aa88785)" d="M 137.945455 396.450963 
L 208.963636 396.450963 
" style="fill:none;stroke:#000000;stroke-linecap:square;"/>
   </g>
   <g id="line2d_43">
    <path clip-path="url(#p9b8aa88785)" d="M 102.436364 461.773276 
L 244.472727 461.773276 
" style="fill:none;stroke:#ff7f0e;stroke-linecap:square;"/>
   </g>
   <g id="patch_13">
    <path d="M 72 504 
L 72 318.4 
" style="fill:none;stroke:#000000;stroke-linecap:square;stroke-linejoin:miter;stroke-width:0.8;"/>
   </g>
   <g id="patch_14">
    <path d="M 274.909091 504 
L 274.909091 318.4 
" style="fill:none;stroke:#000000;stroke-linecap:square;stroke-linejoin:miter;stroke-width:0.8;"/>
   </g>
   <g id="patch_15">
    <path d="M 72 504 
L 274.909091 504 
" style="fill:none;stroke:#000000;stroke-linecap:square;stroke-linejoin:miter;stroke-width:0.8;"/>
   </g>
   <g id="patch_16">
    <path d="M 72 318.4 
L 274.909091 318.4 
" style="fill:none;stroke:#000000;stroke-linecap:square;stroke-linejoin:miter;stroke-width:0.8;"/>
   </g>
   <g id="text_30">
    <!-- Jun, Jul, Aug: -->
    <g transform="translate(72 312.4)scale(0.14 -0.14)">
     <use xlink:href="#DejaVuSans-74"/>
     <use x="29.492188" xlink:href="#DejaVuSans-117"/>
     <use x="92.871094" xlink:href="#DejaVuSans-110"/>
     <use x="156.25" xlink:href="#DejaVuSans-44"/>
     <use x="188.037109" xlink:href="#DejaVuSans-32"/>
     <use x="219.824219" xlink:href="#DejaVuSans-74"/>
     <use x="249.316406" xlink:href="#DejaVuSans-117"/>
     <use x="312.695312" xlink:href="#DejaVuSans-108"/>
     <use x="340.478516" xlink:href="#DejaVuSans-44"/>
     <use x="372.265625" xlink:href="#DejaVuSans-32"/>
     <use x="404.052734" xlink:href="#DejaVuSans-65"/>
     <use x="472.460938" xlink:href="#DejaVuSans-117"/>
     <use x="535.839844" xlink:href="#DejaVuSans-103"/>
     <use x="599.316406" xlink:href="#DejaVuSans-58"/>
    </g>
   </g>
  </g>
  <g id="axes_4">
   <g id="patch_17">
    <path d="M 315.490909 504 
L 518.4 504 
L 518.4 318.4 
L 315.490909 318.4 
z
" style="fill:#ffffff;"/>
   </g>
   <g id="PathCollection_4">
    <defs>
     <path d="M 0 5 
C 1.326016 5 2.597899 4.473168 3.535534 3.535534 
C 4.473168 2.597899 5 1.326016 5 0 
C 5 -1.326016 4.473168 -2.597899 3.535534 -3.535534 
C 2.597899 -4.473168 1.326016 -5 0 -5 
C -1.326016 -5 -2.597899 -4.473168 -3.535534 -3.535534 
C -4.473168 -2.597899 -5 -1.326016 -5 0 
C -5 1.326016 -4.473168 2.597899 -3.535534 3.535534 
C -2.597899 4.473168 -1.326016 5 0 5 
z
" id="me0c7ff5ffa" style="stroke:#ffffff;stroke-opacity:0.7;"/>
    </defs>
    <g clip-path="url(#pe0ea7b17b3)">
     <use style="fill:#b8860b;fill-opacity:0.7;stroke:#ffffff;stroke-opacity:0.7;" x="410.176833" xlink:href="#me0c7ff5ffa" y="502.484068"/>
     <use style="fill:#b8860b;fill-opacity:0.7;stroke:#ffffff;stroke-opacity:0.7;" x="437.895383" xlink:href="#me0c7ff5ffa" y="501.609775"/>
     <use style="fill:#b8860b;fill-opacity:0.7;stroke:#ffffff;stroke-opacity:0.7;" x="395.645842" xlink:href="#me0c7ff5ffa" y="501.389365"/>
     <use style="fill:#b8860b;fill-opacity:0.7;stroke:#ffffff;stroke-opacity:0.7;" x="349.539844" xlink:href="#me0c7ff5ffa" y="499.895474"/>
     <use style="fill:#b8860b;fill-opacity:0.7;stroke:#ffffff;stroke-opacity:0.7;" x="421.907683" xlink:href="#me0c7ff5ffa" y="499.31751"/>
     <use style="fill:#b8860b;fill-opacity:0.7;stroke:#ffffff;stroke-opacity:0.7;" x="424.997795" xlink:href="#me0c7ff5ffa" y="498.871792"/>
     <use style="fill:#b8860b;fill-opacity:0.7;stroke:#ffffff;stroke-opacity:0.7;" x="430.170925" xlink:href="#me0c7ff5ffa" y="498.453012"/>
     <use style="fill:#b8860b;fill-opacity:0.7;stroke:#ffffff;stroke-opacity:0.7;" x="431.322314" xlink:href="#me0c7ff5ffa" y="497.333819"/>
     <use style="fill:#b8860b;fill-opacity:0.7;stroke:#ffffff;stroke-opacity:0.7;" x="425.398944" xlink:href="#me0c7ff5ffa" y="496.060338"/>
     <use style="fill:#b8860b;fill-opacity:0.7;stroke:#ffffff;stroke-opacity:0.7;" x="421.057373" xlink:href="#me0c7ff5ffa" y="492.163978"/>
     <use style="fill:#b8860b;fill-opacity:0.7;stroke:#ffffff;stroke-opacity:0.7;" x="391.465601" xlink:href="#me0c7ff5ffa" y="489.928039"/>
     <use style="fill:#b8860b;fill-opacity:0.7;stroke:#ffffff;stroke-opacity:0.7;" x="420.793224" xlink:href="#me0c7ff5ffa" y="489.168849"/>
     <use style="fill:#b8860b;fill-opacity:0.7;stroke:#ffffff;stroke-opacity:0.7;" x="439.244918" xlink:href="#me0c7ff5ffa" y="488.262719"/>
     <use style="fill:#b8860b;fill-opacity:0.7;stroke:#ffffff;stroke-opacity:0.7;" x="407.246672" xlink:href="#me0c7ff5ffa" y="485.088813"/>
     <use style="fill:#b8860b;fill-opacity:0.7;stroke:#ffffff;stroke-opacity:0.7;" x="456.268894" xlink:href="#me0c7ff5ffa" y="478.285488"/>
     <use style="fill:#b8860b;fill-opacity:0.7;stroke:#ffffff;stroke-opacity:0.7;" x="483.615525" xlink:href="#me0c7ff5ffa" y="476.723025"/>
     <use style="fill:#b8860b;fill-opacity:0.7;stroke:#ffffff;stroke-opacity:0.7;" x="405.964321" xlink:href="#me0c7ff5ffa" y="454.997936"/>
     <use style="fill:#b8860b;fill-opacity:0.7;stroke:#ffffff;stroke-opacity:0.7;" x="435.964048" xlink:href="#me0c7ff5ffa" y="444.611722"/>
     <use style="fill:#b8860b;fill-opacity:0.7;stroke:#ffffff;stroke-opacity:0.7;" x="385.009636" xlink:href="#me0c7ff5ffa" y="437.247576"/>
     <use style="fill:#b8860b;fill-opacity:0.7;stroke:#ffffff;stroke-opacity:0.7;" x="399.754943" xlink:href="#me0c7ff5ffa" y="359.577505"/>
     <use style="fill:#b8860b;fill-opacity:0.7;stroke:#ffffff;stroke-opacity:0.7;" x="480.758077" xlink:href="#me0c7ff5ffa" y="320.849001"/>
     <use style="fill:#b8860b;fill-opacity:0.7;stroke:#ffffff;stroke-opacity:0.7;" x="446.413794" xlink:href="#me0c7ff5ffa" y="-1"/>
    </g>
   </g>
   <g id="PathCollection_5">
    <defs>
     <path d="M 0 5.59017 
C 1.48253 5.59017 2.90454 5.001154 3.952847 3.952847 
C 5.001154 2.90454 5.59017 1.48253 5.59017 0 
C 5.59017 -1.48253 5.001154 -2.90454 3.952847 -3.952847 
C 2.90454 -5.001154 1.48253 -5.59017 0 -5.59017 
C -1.48253 -5.59017 -2.90454 -5.001154 -3.952847 -3.952847 
C -5.001154 -2.90454 -5.59017 -1.48253 -5.59017 0 
C -5.59017 1.48253 -5.001154 2.90454 -3.952847 3.952847 
C -2.90454 5.001154 -1.48253 5.59017 0 5.59017 
z
" id="m37e0dfac47" style="stroke:#ff0000;"/>
    </defs>
    <g clip-path="url(#pe0ea7b17b3)">
     <use style="fill:#ff0000;stroke:#ff0000;" x="444.914808" xlink:href="#m37e0dfac47" y="492.163978"/>
    </g>
   </g>
   <g id="matplotlib.axis_7">
    <g id="xtick_4">
     <g id="line2d_44">
      <g>
       <use style="stroke:#000000;stroke-width:0.8;" x="416.945455" xlink:href="#mcf6b0dece8" y="504"/>
      </g>
     </g>
     <g id="text_31">
      <!-- fall -->
      <defs>
       <path d="M 37.109375 75.984375 
L 37.109375 68.5 
L 28.515625 68.5 
Q 23.6875 68.5 21.796875 66.546875 
Q 19.921875 64.59375 19.921875 59.515625 
L 19.921875 54.6875 
L 34.71875 54.6875 
L 34.71875 47.703125 
L 19.921875 47.703125 
L 19.921875 0 
L 10.890625 0 
L 10.890625 47.703125 
L 2.296875 47.703125 
L 2.296875 54.6875 
L 10.890625 54.6875 
L 10.890625 58.5 
Q 10.890625 67.625 15.140625 71.796875 
Q 19.390625 75.984375 28.609375 75.984375 
z
" id="DejaVuSans-102"/>
      </defs>
      <g transform="translate(406.302173 521.637812)scale(0.14 -0.14)">
       <use xlink:href="#DejaVuSans-102"/>
       <use x="35.205078" xlink:href="#DejaVuSans-97"/>
       <use x="96.484375" xlink:href="#DejaVuSans-108"/>
       <use x="124.267578" xlink:href="#DejaVuSans-108"/>
      </g>
     </g>
    </g>
   </g>
   <g id="matplotlib.axis_8">
    <g id="ytick_23">
     <g id="line2d_45">
      <g>
       <use style="stroke:#000000;stroke-width:0.8;" x="315.490909" xlink:href="#mbbd31a7fd8" y="502.775499"/>
      </g>
     </g>
     <g id="text_32">
      <!-- 0 -->
      <g transform="translate(302.128409 506.574718)scale(0.1 -0.1)">
       <use xlink:href="#DejaVuSans-48"/>
      </g>
     </g>
    </g>
    <g id="ytick_24">
     <g id="line2d_46">
      <g>
       <use style="stroke:#000000;stroke-width:0.8;" x="315.490909" xlink:href="#mbbd31a7fd8" y="478.285488"/>
      </g>
     </g>
     <g id="text_33">
      <!-- 1 -->
      <g transform="translate(302.128409 482.084707)scale(0.1 -0.1)">
       <use xlink:href="#DejaVuSans-49"/>
      </g>
     </g>
    </g>
    <g id="ytick_25">
     <g id="line2d_47">
      <g>
       <use style="stroke:#000000;stroke-width:0.8;" x="315.490909" xlink:href="#mbbd31a7fd8" y="453.795477"/>
      </g>
     </g>
     <g id="text_34">
      <!-- 2 -->
      <g transform="translate(302.128409 457.594695)scale(0.1 -0.1)">
       <use xlink:href="#DejaVuSans-50"/>
      </g>
     </g>
    </g>
    <g id="ytick_26">
     <g id="line2d_48">
      <g>
       <use style="stroke:#000000;stroke-width:0.8;" x="315.490909" xlink:href="#mbbd31a7fd8" y="429.305465"/>
      </g>
     </g>
     <g id="text_35">
      <!-- 3 -->
      <g transform="translate(302.128409 433.104684)scale(0.1 -0.1)">
       <use xlink:href="#DejaVuSans-51"/>
      </g>
     </g>
    </g>
    <g id="ytick_27">
     <g id="line2d_49">
      <g>
       <use style="stroke:#000000;stroke-width:0.8;" x="315.490909" xlink:href="#mbbd31a7fd8" y="404.815454"/>
      </g>
     </g>
     <g id="text_36">
      <!-- 4 -->
      <g transform="translate(302.128409 408.614673)scale(0.1 -0.1)">
       <use xlink:href="#DejaVuSans-52"/>
      </g>
     </g>
    </g>
    <g id="ytick_28">
     <g id="line2d_50">
      <g>
       <use style="stroke:#000000;stroke-width:0.8;" x="315.490909" xlink:href="#mbbd31a7fd8" y="380.325443"/>
      </g>
     </g>
     <g id="text_37">
      <!-- 5 -->
      <g transform="translate(302.128409 384.124661)scale(0.1 -0.1)">
       <use xlink:href="#DejaVuSans-53"/>
      </g>
     </g>
    </g>
    <g id="ytick_29">
     <g id="line2d_51">
      <g>
       <use style="stroke:#000000;stroke-width:0.8;" x="315.490909" xlink:href="#mbbd31a7fd8" y="355.835431"/>
      </g>
     </g>
     <g id="text_38">
      <!-- 6 -->
      <g transform="translate(302.128409 359.63465)scale(0.1 -0.1)">
       <use xlink:href="#DejaVuSans-54"/>
      </g>
     </g>
    </g>
    <g id="ytick_30">
     <g id="line2d_52">
      <g>
       <use style="stroke:#000000;stroke-width:0.8;" x="315.490909" xlink:href="#mbbd31a7fd8" y="331.34542"/>
      </g>
     </g>
     <g id="text_39">
      <!-- 7 -->
      <defs>
       <path d="M 8.203125 72.90625 
L 55.078125 72.90625 
L 55.078125 68.703125 
L 28.609375 0 
L 18.3125 0 
L 43.21875 64.59375 
L 8.203125 64.59375 
z
" id="DejaVuSans-55"/>
      </defs>
      <g transform="translate(302.128409 335.144639)scale(0.1 -0.1)">
       <use xlink:href="#DejaVuSans-55"/>
      </g>
     </g>
    </g>
   </g>
   <g id="line2d_53">
    <path clip-path="url(#pe0ea7b17b3)" d="M 345.927273 498.767097 
L 487.963636 498.767097 
L 487.963636 460.429209 
L 345.927273 460.429209 
L 345.927273 498.767097 
" style="fill:none;stroke:#000000;stroke-linecap:square;"/>
   </g>
   <g id="line2d_54">
    <path clip-path="url(#pe0ea7b17b3)" d="M 416.945455 498.767097 
L 416.945455 502.484068 
" style="fill:none;stroke:#000000;stroke-linecap:square;"/>
   </g>
   <g id="line2d_55">
    <path clip-path="url(#pe0ea7b17b3)" d="M 416.945455 460.429209 
L 416.945455 437.247576 
" style="fill:none;stroke:#000000;stroke-linecap:square;"/>
   </g>
   <g id="line2d_56">
    <path clip-path="url(#pe0ea7b17b3)" d="M 381.436364 502.484068 
L 452.454545 502.484068 
" style="fill:none;stroke:#000000;stroke-linecap:square;"/>
   </g>
   <g id="line2d_57">
    <path clip-path="url(#pe0ea7b17b3)" d="M 381.436364 437.247576 
L 452.454545 437.247576 
" style="fill:none;stroke:#000000;stroke-linecap:square;"/>
   </g>
   <g id="line2d_58">
    <path clip-path="url(#pe0ea7b17b3)" d="M 345.927273 489.548444 
L 487.963636 489.548444 
" style="fill:none;stroke:#ff7f0e;stroke-linecap:square;"/>
   </g>
   <g id="patch_18">
    <path d="M 315.490909 504 
L 315.490909 318.4 
" style="fill:none;stroke:#000000;stroke-linecap:square;stroke-linejoin:miter;stroke-width:0.8;"/>
   </g>
   <g id="patch_19">
    <path d="M 518.4 504 
L 518.4 318.4 
" style="fill:none;stroke:#000000;stroke-linecap:square;stroke-linejoin:miter;stroke-width:0.8;"/>
   </g>
   <g id="patch_20">
    <path d="M 315.490909 504 
L 518.4 504 
" style="fill:none;stroke:#000000;stroke-linecap:square;stroke-linejoin:miter;stroke-width:0.8;"/>
   </g>
   <g id="patch_21">
    <path d="M 315.490909 318.4 
L 518.4 318.4 
" style="fill:none;stroke:#000000;stroke-linecap:square;stroke-linejoin:miter;stroke-width:0.8;"/>
   </g>
   <g id="text_40">
    <!-- Sep, Oct, Nov: -->
    <defs>
     <path d="M 53.515625 70.515625 
L 53.515625 60.890625 
Q 47.90625 63.578125 42.921875 64.890625 
Q 37.9375 66.21875 33.296875 66.21875 
Q 25.25 66.21875 20.875 63.09375 
Q 16.5 59.96875 16.5 54.203125 
Q 16.5 49.359375 19.40625 46.890625 
Q 22.3125 44.4375 30.421875 42.921875 
L 36.375 41.703125 
Q 47.40625 39.59375 52.65625 34.296875 
Q 57.90625 29 57.90625 20.125 
Q 57.90625 9.515625 50.796875 4.046875 
Q 43.703125 -1.421875 29.984375 -1.421875 
Q 24.8125 -1.421875 18.96875 -0.25 
Q 13.140625 0.921875 6.890625 3.21875 
L 6.890625 13.375 
Q 12.890625 10.015625 18.65625 8.296875 
Q 24.421875 6.59375 29.984375 6.59375 
Q 38.421875 6.59375 43.015625 9.90625 
Q 47.609375 13.234375 47.609375 19.390625 
Q 47.609375 24.75 44.3125 27.78125 
Q 41.015625 30.8125 33.5 32.328125 
L 27.484375 33.5 
Q 16.453125 35.6875 11.515625 40.375 
Q 6.59375 45.0625 6.59375 53.421875 
Q 6.59375 63.09375 13.40625 68.65625 
Q 20.21875 74.21875 32.171875 74.21875 
Q 37.3125 74.21875 42.625 73.28125 
Q 47.953125 72.359375 53.515625 70.515625 
z
" id="DejaVuSans-83"/>
     <path d="M 39.40625 66.21875 
Q 28.65625 66.21875 22.328125 58.203125 
Q 16.015625 50.203125 16.015625 36.375 
Q 16.015625 22.609375 22.328125 14.59375 
Q 28.65625 6.59375 39.40625 6.59375 
Q 50.140625 6.59375 56.421875 14.59375 
Q 62.703125 22.609375 62.703125 36.375 
Q 62.703125 50.203125 56.421875 58.203125 
Q 50.140625 66.21875 39.40625 66.21875 
z
M 39.40625 74.21875 
Q 54.734375 74.21875 63.90625 63.9375 
Q 73.09375 53.65625 73.09375 36.375 
Q 73.09375 19.140625 63.90625 8.859375 
Q 54.734375 -1.421875 39.40625 -1.421875 
Q 24.03125 -1.421875 14.8125 8.828125 
Q 5.609375 19.09375 5.609375 36.375 
Q 5.609375 53.65625 14.8125 63.9375 
Q 24.03125 74.21875 39.40625 74.21875 
z
" id="DejaVuSans-79"/>
     <path d="M 9.8125 72.90625 
L 23.09375 72.90625 
L 55.421875 11.921875 
L 55.421875 72.90625 
L 64.984375 72.90625 
L 64.984375 0 
L 51.703125 0 
L 19.390625 60.984375 
L 19.390625 0 
L 9.8125 0 
z
" id="DejaVuSans-78"/>
     <path d="M 2.984375 54.6875 
L 12.5 54.6875 
L 29.59375 8.796875 
L 46.6875 54.6875 
L 56.203125 54.6875 
L 35.6875 0 
L 23.484375 0 
z
" id="DejaVuSans-118"/>
    </defs>
    <g transform="translate(315.490909 312.4)scale(0.14 -0.14)">
     <use xlink:href="#DejaVuSans-83"/>
     <use x="63.476562" xlink:href="#DejaVuSans-101"/>
     <use x="125" xlink:href="#DejaVuSans-112"/>
     <use x="188.476562" xlink:href="#DejaVuSans-44"/>
     <use x="220.263672" xlink:href="#DejaVuSans-32"/>
     <use x="252.050781" xlink:href="#DejaVuSans-79"/>
     <use x="330.761719" xlink:href="#DejaVuSans-99"/>
     <use x="385.742188" xlink:href="#DejaVuSans-116"/>
     <use x="424.951172" xlink:href="#DejaVuSans-44"/>
     <use x="456.738281" xlink:href="#DejaVuSans-32"/>
     <use x="488.525391" xlink:href="#DejaVuSans-78"/>
     <use x="563.330078" xlink:href="#DejaVuSans-111"/>
     <use x="624.511719" xlink:href="#DejaVuSans-118"/>
     <use x="683.613281" xlink:href="#DejaVuSans-58"/>
    </g>
   </g>
   <g id="legend_1">
    <g id="patch_22">
     <path d="M 402.9875 355.75625 
L 511.4 355.75625 
Q 513.4 355.75625 513.4 353.75625 
L 513.4 325.4 
Q 513.4 323.4 511.4 323.4 
L 402.9875 323.4 
Q 400.9875 323.4 400.9875 325.4 
L 400.9875 353.75625 
Q 400.9875 355.75625 402.9875 355.75625 
z
" style="fill:#ffffff;opacity:0.8;stroke:#cccccc;stroke-linejoin:miter;"/>
    </g>
    <g id="PathCollection_6">
     <g>
      <use style="fill:#b8860b;fill-opacity:0.7;stroke:#ffffff;stroke-opacity:0.7;" x="414.9875" xlink:href="#me0c7ff5ffa" y="332.373437"/>
     </g>
    </g>
    <g id="text_41">
     <!-- Broken plastics -->
     <g transform="translate(432.9875 334.998437)scale(0.1 -0.1)">
      <use xlink:href="#DejaVuSans-66"/>
      <use x="68.603516" xlink:href="#DejaVuSans-114"/>
      <use x="109.685547" xlink:href="#DejaVuSans-111"/>
      <use x="170.867188" xlink:href="#DejaVuSans-107"/>
      <use x="228.730469" xlink:href="#DejaVuSans-101"/>
      <use x="290.253906" xlink:href="#DejaVuSans-110"/>
      <use x="353.632812" xlink:href="#DejaVuSans-32"/>
      <use x="385.419922" xlink:href="#DejaVuSans-112"/>
      <use x="448.896484" xlink:href="#DejaVuSans-108"/>
      <use x="476.679688" xlink:href="#DejaVuSans-97"/>
      <use x="537.958984" xlink:href="#DejaVuSans-115"/>
      <use x="590.058594" xlink:href="#DejaVuSans-116"/>
      <use x="629.267578" xlink:href="#DejaVuSans-105"/>
      <use x="657.050781" xlink:href="#DejaVuSans-99"/>
      <use x="712.03125" xlink:href="#DejaVuSans-115"/>
     </g>
    </g>
    <g id="PathCollection_7">
     <g>
      <use style="fill:#ff0000;stroke:#ff0000;" x="414.9875" xlink:href="#m37e0dfac47" y="347.051562"/>
     </g>
    </g>
    <g id="text_42">
     <!-- Day of interest -->
     <g transform="translate(432.9875 349.676562)scale(0.1 -0.1)">
      <use xlink:href="#DejaVuSans-68"/>
      <use x="77.001953" xlink:href="#DejaVuSans-97"/>
      <use x="138.28125" xlink:href="#DejaVuSans-121"/>
      <use x="197.460938" xlink:href="#DejaVuSans-32"/>
      <use x="229.248047" xlink:href="#DejaVuSans-111"/>
      <use x="290.429688" xlink:href="#DejaVuSans-102"/>
      <use x="325.634766" xlink:href="#DejaVuSans-32"/>
      <use x="357.421875" xlink:href="#DejaVuSans-105"/>
      <use x="385.205078" xlink:href="#DejaVuSans-110"/>
      <use x="448.583984" xlink:href="#DejaVuSans-116"/>
      <use x="487.792969" xlink:href="#DejaVuSans-101"/>
      <use x="549.316406" xlink:href="#DejaVuSans-114"/>
      <use x="590.398438" xlink:href="#DejaVuSans-101"/>
      <use x="651.921875" xlink:href="#DejaVuSans-115"/>
      <use x="704.021484" xlink:href="#DejaVuSans-116"/>
     </g>
    </g>
   </g>
  </g>
  <g id="text_43">
   <!-- Broken plastics, all locations 2015-2018 Lake Geneva -->
   <defs>
    <path d="M 4.890625 31.390625 
L 31.203125 31.390625 
L 31.203125 23.390625 
L 4.890625 23.390625 
z
" id="DejaVuSans-45"/>
    <path d="M 9.8125 72.90625 
L 19.671875 72.90625 
L 19.671875 8.296875 
L 55.171875 8.296875 
L 55.171875 0 
L 9.8125 0 
z
" id="DejaVuSans-76"/>
    <path d="M 59.515625 10.40625 
L 59.515625 29.984375 
L 43.40625 29.984375 
L 43.40625 38.09375 
L 69.28125 38.09375 
L 69.28125 6.78125 
Q 63.578125 2.734375 56.6875 0.65625 
Q 49.8125 -1.421875 42 -1.421875 
Q 24.90625 -1.421875 15.25 8.5625 
Q 5.609375 18.5625 5.609375 36.375 
Q 5.609375 54.25 15.25 64.234375 
Q 24.90625 74.21875 42 74.21875 
Q 49.125 74.21875 55.546875 72.453125 
Q 61.96875 70.703125 67.390625 67.28125 
L 67.390625 56.78125 
Q 61.921875 61.421875 55.765625 63.765625 
Q 49.609375 66.109375 42.828125 66.109375 
Q 29.4375 66.109375 22.71875 58.640625 
Q 16.015625 51.171875 16.015625 36.375 
Q 16.015625 21.625 22.71875 14.15625 
Q 29.4375 6.6875 42.828125 6.6875 
Q 48.046875 6.6875 52.140625 7.59375 
Q 56.25 8.5 59.515625 10.40625 
z
" id="DejaVuSans-71"/>
   </defs>
   <g transform="translate(99.952656 22.157812)scale(0.14 -0.14)">
    <use xlink:href="#DejaVuSans-66"/>
    <use x="68.603516" xlink:href="#DejaVuSans-114"/>
    <use x="109.685547" xlink:href="#DejaVuSans-111"/>
    <use x="170.867188" xlink:href="#DejaVuSans-107"/>
    <use x="228.730469" xlink:href="#DejaVuSans-101"/>
    <use x="290.253906" xlink:href="#DejaVuSans-110"/>
    <use x="353.632812" xlink:href="#DejaVuSans-32"/>
    <use x="385.419922" xlink:href="#DejaVuSans-112"/>
    <use x="448.896484" xlink:href="#DejaVuSans-108"/>
    <use x="476.679688" xlink:href="#DejaVuSans-97"/>
    <use x="537.958984" xlink:href="#DejaVuSans-115"/>
    <use x="590.058594" xlink:href="#DejaVuSans-116"/>
    <use x="629.267578" xlink:href="#DejaVuSans-105"/>
    <use x="657.050781" xlink:href="#DejaVuSans-99"/>
    <use x="712.03125" xlink:href="#DejaVuSans-115"/>
    <use x="764.130859" xlink:href="#DejaVuSans-44"/>
    <use x="795.917969" xlink:href="#DejaVuSans-32"/>
    <use x="827.705078" xlink:href="#DejaVuSans-97"/>
    <use x="888.984375" xlink:href="#DejaVuSans-108"/>
    <use x="916.767578" xlink:href="#DejaVuSans-108"/>
    <use x="944.550781" xlink:href="#DejaVuSans-32"/>
    <use x="976.337891" xlink:href="#DejaVuSans-108"/>
    <use x="1004.121094" xlink:href="#DejaVuSans-111"/>
    <use x="1065.302734" xlink:href="#DejaVuSans-99"/>
    <use x="1120.283203" xlink:href="#DejaVuSans-97"/>
    <use x="1181.5625" xlink:href="#DejaVuSans-116"/>
    <use x="1220.771484" xlink:href="#DejaVuSans-105"/>
    <use x="1248.554688" xlink:href="#DejaVuSans-111"/>
    <use x="1309.736328" xlink:href="#DejaVuSans-110"/>
    <use x="1373.115234" xlink:href="#DejaVuSans-115"/>
    <use x="1425.214844" xlink:href="#DejaVuSans-32"/>
    <use x="1457.001953" xlink:href="#DejaVuSans-50"/>
    <use x="1520.625" xlink:href="#DejaVuSans-48"/>
    <use x="1584.248047" xlink:href="#DejaVuSans-49"/>
    <use x="1647.871094" xlink:href="#DejaVuSans-53"/>
    <use x="1711.494141" xlink:href="#DejaVuSans-45"/>
    <use x="1747.578125" xlink:href="#DejaVuSans-50"/>
    <use x="1811.201172" xlink:href="#DejaVuSans-48"/>
    <use x="1874.824219" xlink:href="#DejaVuSans-49"/>
    <use x="1938.447266" xlink:href="#DejaVuSans-56"/>
    <use x="2002.070312" xlink:href="#DejaVuSans-32"/>
    <use x="2033.857422" xlink:href="#DejaVuSans-76"/>
    <use x="2089.570312" xlink:href="#DejaVuSans-97"/>
    <use x="2150.849609" xlink:href="#DejaVuSans-107"/>
    <use x="2208.712891" xlink:href="#DejaVuSans-101"/>
    <use x="2270.236328" xlink:href="#DejaVuSans-32"/>
    <use x="2302.023438" xlink:href="#DejaVuSans-71"/>
    <use x="2379.513672" xlink:href="#DejaVuSans-101"/>
    <use x="2441.037109" xlink:href="#DejaVuSans-110"/>
    <use x="2504.416016" xlink:href="#DejaVuSans-101"/>
    <use x="2565.939453" xlink:href="#DejaVuSans-118"/>
    <use x="2625.119141" xlink:href="#DejaVuSans-97"/>
   </g>
   <!-- Grouped by seasons of the year, n=140 -->
   <defs>
    <path d="M 45.40625 46.390625 
L 45.40625 75.984375 
L 54.390625 75.984375 
L 54.390625 0 
L 45.40625 0 
L 45.40625 8.203125 
Q 42.578125 3.328125 38.25 0.953125 
Q 33.9375 -1.421875 27.875 -1.421875 
Q 17.96875 -1.421875 11.734375 6.484375 
Q 5.515625 14.40625 5.515625 27.296875 
Q 5.515625 40.1875 11.734375 48.09375 
Q 17.96875 56 27.875 56 
Q 33.9375 56 38.25 53.625 
Q 42.578125 51.265625 45.40625 46.390625 
z
M 14.796875 27.296875 
Q 14.796875 17.390625 18.875 11.75 
Q 22.953125 6.109375 30.078125 6.109375 
Q 37.203125 6.109375 41.296875 11.75 
Q 45.40625 17.390625 45.40625 27.296875 
Q 45.40625 37.203125 41.296875 42.84375 
Q 37.203125 48.484375 30.078125 48.484375 
Q 22.953125 48.484375 18.875 42.84375 
Q 14.796875 37.203125 14.796875 27.296875 
z
" id="DejaVuSans-100"/>
    <path d="M 54.890625 33.015625 
L 54.890625 0 
L 45.90625 0 
L 45.90625 32.71875 
Q 45.90625 40.484375 42.875 44.328125 
Q 39.84375 48.1875 33.796875 48.1875 
Q 26.515625 48.1875 22.3125 43.546875 
Q 18.109375 38.921875 18.109375 30.90625 
L 18.109375 0 
L 9.078125 0 
L 9.078125 75.984375 
L 18.109375 75.984375 
L 18.109375 46.1875 
Q 21.34375 51.125 25.703125 53.5625 
Q 30.078125 56 35.796875 56 
Q 45.21875 56 50.046875 50.171875 
Q 54.890625 44.34375 54.890625 33.015625 
z
" id="DejaVuSans-104"/>
    <path d="M 10.59375 45.40625 
L 73.1875 45.40625 
L 73.1875 37.203125 
L 10.59375 37.203125 
z
M 10.59375 25.484375 
L 73.1875 25.484375 
L 73.1875 17.1875 
L 10.59375 17.1875 
z
" id="DejaVuSans-61"/>
   </defs>
   <g transform="translate(147.854531 41.026094)scale(0.14 -0.14)">
    <use xlink:href="#DejaVuSans-71"/>
    <use x="77.490234" xlink:href="#DejaVuSans-114"/>
    <use x="118.572266" xlink:href="#DejaVuSans-111"/>
    <use x="179.753906" xlink:href="#DejaVuSans-117"/>
    <use x="243.132812" xlink:href="#DejaVuSans-112"/>
    <use x="306.609375" xlink:href="#DejaVuSans-101"/>
    <use x="368.132812" xlink:href="#DejaVuSans-100"/>
    <use x="431.609375" xlink:href="#DejaVuSans-32"/>
    <use x="463.396484" xlink:href="#DejaVuSans-98"/>
    <use x="526.873047" xlink:href="#DejaVuSans-121"/>
    <use x="586.052734" xlink:href="#DejaVuSans-32"/>
    <use x="617.839844" xlink:href="#DejaVuSans-115"/>
    <use x="669.939453" xlink:href="#DejaVuSans-101"/>
    <use x="731.462891" xlink:href="#DejaVuSans-97"/>
    <use x="792.742188" xlink:href="#DejaVuSans-115"/>
    <use x="844.841797" xlink:href="#DejaVuSans-111"/>
    <use x="906.023438" xlink:href="#DejaVuSans-110"/>
    <use x="969.402344" xlink:href="#DejaVuSans-115"/>
    <use x="1021.501953" xlink:href="#DejaVuSans-32"/>
    <use x="1053.289062" xlink:href="#DejaVuSans-111"/>
    <use x="1114.470703" xlink:href="#DejaVuSans-102"/>
    <use x="1149.675781" xlink:href="#DejaVuSans-32"/>
    <use x="1181.462891" xlink:href="#DejaVuSans-116"/>
    <use x="1220.671875" xlink:href="#DejaVuSans-104"/>
    <use x="1284.050781" xlink:href="#DejaVuSans-101"/>
    <use x="1345.574219" xlink:href="#DejaVuSans-32"/>
    <use x="1377.361328" xlink:href="#DejaVuSans-121"/>
    <use x="1436.541016" xlink:href="#DejaVuSans-101"/>
    <use x="1498.064453" xlink:href="#DejaVuSans-97"/>
    <use x="1559.34375" xlink:href="#DejaVuSans-114"/>
    <use x="1600.457031" xlink:href="#DejaVuSans-44"/>
    <use x="1632.244141" xlink:href="#DejaVuSans-32"/>
    <use x="1664.03125" xlink:href="#DejaVuSans-110"/>
    <use x="1727.410156" xlink:href="#DejaVuSans-61"/>
    <use x="1811.199219" xlink:href="#DejaVuSans-49"/>
    <use x="1874.822266" xlink:href="#DejaVuSans-52"/>
    <use x="1938.445312" xlink:href="#DejaVuSans-48"/>
   </g>
   <!--  -->
   <g transform="translate(288 59.894375)scale(0.14 -0.14)"/>
  </g>
 </g>
 <defs>
  <clipPath id="p9cedfaa02b">
   <rect height="185.6" width="202.909091" x="72" y="86.4"/>
  </clipPath>
  <clipPath id="p382b4ad72a">
   <rect height="185.6" width="202.909091" x="315.490909" y="86.4"/>
  </clipPath>
  <clipPath id="p9b8aa88785">
   <rect height="185.6" width="202.909091" x="72" y="318.4"/>
  </clipPath>
  <clipPath id="pe0ea7b17b3">
   <rect height="185.6" width="202.909091" x="315.490909" y="318.4"/>
  </clipPath>
 </defs>
</svg>
