<?xml version="1.0" encoding="utf-8" standalone="no"?>
<!DOCTYPE svg PUBLIC "-//W3C//DTD SVG 1.1//EN"
  "http://www.w3.org/Graphics/SVG/1.1/DTD/svg11.dtd">
<!-- Created with matplotlib (https://matplotlib.org/) -->
<svg height="576pt" version="1.1" viewBox="0 0 576 576" width="576pt" xmlns="http://www.w3.org/2000/svg" xmlns:xlink="http://www.w3.org/1999/xlink">
 <defs>
  <style type="text/css">
*{stroke-linecap:butt;stroke-linejoin:round;}
  </style>
 </defs>
 <g id="figure_1">
  <g id="patch_1">
   <path d="M 0 576 
L 576 576 
L 576 0 
L 0 0 
z
" style="fill:#ffffff;"/>
  </g>
  <g id="axes_1">
   <g id="patch_2">
    <path d="M 72 272 
L 274.909091 272 
L 274.909091 86.4 
L 72 86.4 
z
" style="fill:#ffffff;"/>
   </g>
   <g id="PathCollection_1">
    <defs>
     <path d="M 0 5 
C 1.326016 5 2.597899 4.473168 3.535534 3.535534 
C 4.473168 2.597899 5 1.326016 5 0 
C 5 -1.326016 4.473168 -2.597899 3.535534 -3.535534 
C 2.597899 -4.473168 1.326016 -5 0 -5 
C -1.326016 -5 -2.597899 -4.473168 -3.535534 -3.535534 
C -4.473168 -2.597899 -5 -1.326016 -5 0 
C -5 1.326016 -4.473168 2.597899 -3.535534 3.535534 
C -2.597899 4.473168 -1.326016 5 0 5 
z
" id="m2527d12d45" style="stroke:#ffffff;stroke-opacity:0.7;"/>
    </defs>
    <g clip-path="url(#pc4b310cac5)">
     <use style="fill:#00ffff;fill-opacity:0.7;stroke:#ffffff;stroke-opacity:0.7;" x="128.395761" xlink:href="#m2527d12d45" y="256.633376"/>
     <use style="fill:#00ffff;fill-opacity:0.7;stroke:#ffffff;stroke-opacity:0.7;" x="233.769349" xlink:href="#m2527d12d45" y="256.153169"/>
     <use style="fill:#00ffff;fill-opacity:0.7;stroke:#ffffff;stroke-opacity:0.7;" x="109.681995" xlink:href="#m2527d12d45" y="255.432859"/>
     <use style="fill:#00ffff;fill-opacity:0.7;stroke:#ffffff;stroke-opacity:0.7;" x="223.915066" xlink:href="#m2527d12d45" y="248.229754"/>
     <use style="fill:#00ffff;fill-opacity:0.7;stroke:#ffffff;stroke-opacity:0.7;" x="240.214249" xlink:href="#m2527d12d45" y="248.229754"/>
     <use style="fill:#00ffff;fill-opacity:0.7;stroke:#ffffff;stroke-opacity:0.7;" x="167.234055" xlink:href="#m2527d12d45" y="247.029237"/>
     <use style="fill:#00ffff;fill-opacity:0.7;stroke:#ffffff;stroke-opacity:0.7;" x="195.873328" xlink:href="#m2527d12d45" y="246.308926"/>
     <use style="fill:#00ffff;fill-opacity:0.7;stroke:#ffffff;stroke-opacity:0.7;" x="226.593722" xlink:href="#m2527d12d45" y="244.147995"/>
     <use style="fill:#00ffff;fill-opacity:0.7;stroke:#ffffff;stroke-opacity:0.7;" x="156.15774" xlink:href="#m2527d12d45" y="243.907891"/>
     <use style="fill:#00ffff;fill-opacity:0.7;stroke:#ffffff;stroke-opacity:0.7;" x="243.786561" xlink:href="#m2527d12d45" y="242.707374"/>
     <use style="fill:#00ffff;fill-opacity:0.7;stroke:#ffffff;stroke-opacity:0.7;" x="130.497634" xlink:href="#m2527d12d45" y="241.987063"/>
     <use style="fill:#00ffff;fill-opacity:0.7;stroke:#ffffff;stroke-opacity:0.7;" x="119.068627" xlink:href="#m2527d12d45" y="236.464683"/>
     <use style="fill:#00ffff;fill-opacity:0.7;stroke:#ffffff;stroke-opacity:0.7;" x="240.277827" xlink:href="#m2527d12d45" y="228.541268"/>
     <use style="fill:#00ffff;fill-opacity:0.7;stroke:#ffffff;stroke-opacity:0.7;" x="200.810831" xlink:href="#m2527d12d45" y="224.459508"/>
     <use style="fill:#00ffff;fill-opacity:0.7;stroke:#ffffff;stroke-opacity:0.7;" x="240.888986" xlink:href="#m2527d12d45" y="218.216818"/>
     <use style="fill:#00ffff;fill-opacity:0.7;stroke:#ffffff;stroke-opacity:0.7;" x="148.269294" xlink:href="#m2527d12d45" y="214.615265"/>
     <use style="fill:#00ffff;fill-opacity:0.7;stroke:#ffffff;stroke-opacity:0.7;" x="175.857735" xlink:href="#m2527d12d45" y="210.053299"/>
     <use style="fill:#00ffff;fill-opacity:0.7;stroke:#ffffff;stroke-opacity:0.7;" x="244.294803" xlink:href="#m2527d12d45" y="209.813195"/>
     <use style="fill:#00ffff;fill-opacity:0.7;stroke:#ffffff;stroke-opacity:0.7;" x="236.219626" xlink:href="#m2527d12d45" y="205.731436"/>
     <use style="fill:#00ffff;fill-opacity:0.7;stroke:#ffffff;stroke-opacity:0.7;" x="188.514171" xlink:href="#m2527d12d45" y="204.771022"/>
     <use style="fill:#00ffff;fill-opacity:0.7;stroke:#ffffff;stroke-opacity:0.7;" x="122.929664" xlink:href="#m2527d12d45" y="202.129884"/>
     <use style="fill:#00ffff;fill-opacity:0.7;stroke:#ffffff;stroke-opacity:0.7;" x="204.702107" xlink:href="#m2527d12d45" y="200.929366"/>
     <use style="fill:#00ffff;fill-opacity:0.7;stroke:#ffffff;stroke-opacity:0.7;" x="192.777971" xlink:href="#m2527d12d45" y="188.924191"/>
     <use style="fill:#00ffff;fill-opacity:0.7;stroke:#ffffff;stroke-opacity:0.7;" x="201.951391" xlink:href="#m2527d12d45" y="187.003364"/>
     <use style="fill:#00ffff;fill-opacity:0.7;stroke:#ffffff;stroke-opacity:0.7;" x="234.231444" xlink:href="#m2527d12d45" y="177.399224"/>
     <use style="fill:#00ffff;fill-opacity:0.7;stroke:#ffffff;stroke-opacity:0.7;" x="211.299455" xlink:href="#m2527d12d45" y="164.913842"/>
     <use style="fill:#00ffff;fill-opacity:0.7;stroke:#ffffff;stroke-opacity:0.7;" x="237.688113" xlink:href="#m2527d12d45" y="155.789909"/>
     <use style="fill:#00ffff;fill-opacity:0.7;stroke:#ffffff;stroke-opacity:0.7;" x="155.313505" xlink:href="#m2527d12d45" y="110.410349"/>
     <use style="fill:#00ffff;fill-opacity:0.7;stroke:#ffffff;stroke-opacity:0.7;" x="158.866225" xlink:href="#m2527d12d45" y="-1"/>
    </g>
   </g>
   <g id="matplotlib.axis_1">
    <g id="xtick_1">
     <g id="line2d_1">
      <defs>
       <path d="M 0 0 
L 0 3.5 
" id="mb17232fe54" style="stroke:#000000;stroke-width:0.8;"/>
      </defs>
      <g>
       <use style="stroke:#000000;stroke-width:0.8;" x="173.454545" xlink:href="#mb17232fe54" y="272"/>
      </g>
     </g>
     <g id="text_1">
      <!-- winter -->
      <defs>
       <path d="M 4.203125 54.6875 
L 13.1875 54.6875 
L 24.421875 12.015625 
L 35.59375 54.6875 
L 46.1875 54.6875 
L 57.421875 12.015625 
L 68.609375 54.6875 
L 77.59375 54.6875 
L 63.28125 0 
L 52.6875 0 
L 40.921875 44.828125 
L 29.109375 0 
L 18.5 0 
z
" id="DejaVuSans-119"/>
       <path d="M 9.421875 54.6875 
L 18.40625 54.6875 
L 18.40625 0 
L 9.421875 0 
z
M 9.421875 75.984375 
L 18.40625 75.984375 
L 18.40625 64.59375 
L 9.421875 64.59375 
z
" id="DejaVuSans-105"/>
       <path d="M 54.890625 33.015625 
L 54.890625 0 
L 45.90625 0 
L 45.90625 32.71875 
Q 45.90625 40.484375 42.875 44.328125 
Q 39.84375 48.1875 33.796875 48.1875 
Q 26.515625 48.1875 22.3125 43.546875 
Q 18.109375 38.921875 18.109375 30.90625 
L 18.109375 0 
L 9.078125 0 
L 9.078125 54.6875 
L 18.109375 54.6875 
L 18.109375 46.1875 
Q 21.34375 51.125 25.703125 53.5625 
Q 30.078125 56 35.796875 56 
Q 45.21875 56 50.046875 50.171875 
Q 54.890625 44.34375 54.890625 33.015625 
z
" id="DejaVuSans-110"/>
       <path d="M 18.3125 70.21875 
L 18.3125 54.6875 
L 36.8125 54.6875 
L 36.8125 47.703125 
L 18.3125 47.703125 
L 18.3125 18.015625 
Q 18.3125 11.328125 20.140625 9.421875 
Q 21.96875 7.515625 27.59375 7.515625 
L 36.8125 7.515625 
L 36.8125 0 
L 27.59375 0 
Q 17.1875 0 13.234375 3.875 
Q 9.28125 7.765625 9.28125 18.015625 
L 9.28125 47.703125 
L 2.6875 47.703125 
L 2.6875 54.6875 
L 9.28125 54.6875 
L 9.28125 70.21875 
z
" id="DejaVuSans-116"/>
       <path d="M 56.203125 29.59375 
L 56.203125 25.203125 
L 14.890625 25.203125 
Q 15.484375 15.921875 20.484375 11.0625 
Q 25.484375 6.203125 34.421875 6.203125 
Q 39.59375 6.203125 44.453125 7.46875 
Q 49.3125 8.734375 54.109375 11.28125 
L 54.109375 2.78125 
Q 49.265625 0.734375 44.1875 -0.34375 
Q 39.109375 -1.421875 33.890625 -1.421875 
Q 20.796875 -1.421875 13.15625 6.1875 
Q 5.515625 13.8125 5.515625 26.8125 
Q 5.515625 40.234375 12.765625 48.109375 
Q 20.015625 56 32.328125 56 
Q 43.359375 56 49.78125 48.890625 
Q 56.203125 41.796875 56.203125 29.59375 
z
M 47.21875 32.234375 
Q 47.125 39.59375 43.09375 43.984375 
Q 39.0625 48.390625 32.421875 48.390625 
Q 24.90625 48.390625 20.390625 44.140625 
Q 15.875 39.890625 15.1875 32.171875 
z
" id="DejaVuSans-101"/>
       <path d="M 41.109375 46.296875 
Q 39.59375 47.171875 37.8125 47.578125 
Q 36.03125 48 33.890625 48 
Q 26.265625 48 22.1875 43.046875 
Q 18.109375 38.09375 18.109375 28.8125 
L 18.109375 0 
L 9.078125 0 
L 9.078125 54.6875 
L 18.109375 54.6875 
L 18.109375 46.1875 
Q 20.953125 51.171875 25.484375 53.578125 
Q 30.03125 56 36.53125 56 
Q 37.453125 56 38.578125 55.875 
Q 39.703125 55.765625 41.0625 55.515625 
z
" id="DejaVuSans-114"/>
      </defs>
      <g transform="translate(151.419858 289.637812)scale(0.14 -0.14)">
       <use xlink:href="#DejaVuSans-119"/>
       <use x="81.787109" xlink:href="#DejaVuSans-105"/>
       <use x="109.570312" xlink:href="#DejaVuSans-110"/>
       <use x="172.949219" xlink:href="#DejaVuSans-116"/>
       <use x="212.158203" xlink:href="#DejaVuSans-101"/>
       <use x="273.681641" xlink:href="#DejaVuSans-114"/>
      </g>
     </g>
    </g>
   </g>
   <g id="matplotlib.axis_2">
    <g id="ytick_1">
     <g id="line2d_2">
      <defs>
       <path d="M 0 0 
L -3.5 0 
" id="mb29e32f7cb" style="stroke:#000000;stroke-width:0.8;"/>
      </defs>
      <g>
       <use style="stroke:#000000;stroke-width:0.8;" x="72" xlink:href="#mb29e32f7cb" y="259.994825"/>
      </g>
     </g>
     <g id="text_2">
      <!-- 0.0 -->
      <defs>
       <path d="M 31.78125 66.40625 
Q 24.171875 66.40625 20.328125 58.90625 
Q 16.5 51.421875 16.5 36.375 
Q 16.5 21.390625 20.328125 13.890625 
Q 24.171875 6.390625 31.78125 6.390625 
Q 39.453125 6.390625 43.28125 13.890625 
Q 47.125 21.390625 47.125 36.375 
Q 47.125 51.421875 43.28125 58.90625 
Q 39.453125 66.40625 31.78125 66.40625 
z
M 31.78125 74.21875 
Q 44.046875 74.21875 50.515625 64.515625 
Q 56.984375 54.828125 56.984375 36.375 
Q 56.984375 17.96875 50.515625 8.265625 
Q 44.046875 -1.421875 31.78125 -1.421875 
Q 19.53125 -1.421875 13.0625 8.265625 
Q 6.59375 17.96875 6.59375 36.375 
Q 6.59375 54.828125 13.0625 64.515625 
Q 19.53125 74.21875 31.78125 74.21875 
z
" id="DejaVuSans-48"/>
       <path d="M 10.6875 12.40625 
L 21 12.40625 
L 21 0 
L 10.6875 0 
z
" id="DejaVuSans-46"/>
      </defs>
      <g transform="translate(49.096875 263.794044)scale(0.1 -0.1)">
       <use xlink:href="#DejaVuSans-48"/>
       <use x="63.623047" xlink:href="#DejaVuSans-46"/>
       <use x="95.410156" xlink:href="#DejaVuSans-48"/>
      </g>
     </g>
    </g>
    <g id="ytick_2">
     <g id="line2d_3">
      <g>
       <use style="stroke:#000000;stroke-width:0.8;" x="72" xlink:href="#mb29e32f7cb" y="235.984476"/>
      </g>
     </g>
     <g id="text_3">
      <!-- 0.1 -->
      <defs>
       <path d="M 12.40625 8.296875 
L 28.515625 8.296875 
L 28.515625 63.921875 
L 10.984375 60.40625 
L 10.984375 69.390625 
L 28.421875 72.90625 
L 38.28125 72.90625 
L 38.28125 8.296875 
L 54.390625 8.296875 
L 54.390625 0 
L 12.40625 0 
z
" id="DejaVuSans-49"/>
      </defs>
      <g transform="translate(49.096875 239.783695)scale(0.1 -0.1)">
       <use xlink:href="#DejaVuSans-48"/>
       <use x="63.623047" xlink:href="#DejaVuSans-46"/>
       <use x="95.410156" xlink:href="#DejaVuSans-49"/>
      </g>
     </g>
    </g>
    <g id="ytick_3">
     <g id="line2d_4">
      <g>
       <use style="stroke:#000000;stroke-width:0.8;" x="72" xlink:href="#mb29e32f7cb" y="211.974127"/>
      </g>
     </g>
     <g id="text_4">
      <!-- 0.2 -->
      <defs>
       <path d="M 19.1875 8.296875 
L 53.609375 8.296875 
L 53.609375 0 
L 7.328125 0 
L 7.328125 8.296875 
Q 12.9375 14.109375 22.625 23.890625 
Q 32.328125 33.6875 34.8125 36.53125 
Q 39.546875 41.84375 41.421875 45.53125 
Q 43.3125 49.21875 43.3125 52.78125 
Q 43.3125 58.59375 39.234375 62.25 
Q 35.15625 65.921875 28.609375 65.921875 
Q 23.96875 65.921875 18.8125 64.3125 
Q 13.671875 62.703125 7.8125 59.421875 
L 7.8125 69.390625 
Q 13.765625 71.78125 18.9375 73 
Q 24.125 74.21875 28.421875 74.21875 
Q 39.75 74.21875 46.484375 68.546875 
Q 53.21875 62.890625 53.21875 53.421875 
Q 53.21875 48.921875 51.53125 44.890625 
Q 49.859375 40.875 45.40625 35.40625 
Q 44.1875 33.984375 37.640625 27.21875 
Q 31.109375 20.453125 19.1875 8.296875 
z
" id="DejaVuSans-50"/>
      </defs>
      <g transform="translate(49.096875 215.773346)scale(0.1 -0.1)">
       <use xlink:href="#DejaVuSans-48"/>
       <use x="63.623047" xlink:href="#DejaVuSans-46"/>
       <use x="95.410156" xlink:href="#DejaVuSans-50"/>
      </g>
     </g>
    </g>
    <g id="ytick_4">
     <g id="line2d_5">
      <g>
       <use style="stroke:#000000;stroke-width:0.8;" x="72" xlink:href="#mb29e32f7cb" y="187.963777"/>
      </g>
     </g>
     <g id="text_5">
      <!-- 0.3 -->
      <defs>
       <path d="M 40.578125 39.3125 
Q 47.65625 37.796875 51.625 33 
Q 55.609375 28.21875 55.609375 21.1875 
Q 55.609375 10.40625 48.1875 4.484375 
Q 40.765625 -1.421875 27.09375 -1.421875 
Q 22.515625 -1.421875 17.65625 -0.515625 
Q 12.796875 0.390625 7.625 2.203125 
L 7.625 11.71875 
Q 11.71875 9.328125 16.59375 8.109375 
Q 21.484375 6.890625 26.8125 6.890625 
Q 36.078125 6.890625 40.9375 10.546875 
Q 45.796875 14.203125 45.796875 21.1875 
Q 45.796875 27.640625 41.28125 31.265625 
Q 36.765625 34.90625 28.71875 34.90625 
L 20.21875 34.90625 
L 20.21875 43.015625 
L 29.109375 43.015625 
Q 36.375 43.015625 40.234375 45.921875 
Q 44.09375 48.828125 44.09375 54.296875 
Q 44.09375 59.90625 40.109375 62.90625 
Q 36.140625 65.921875 28.71875 65.921875 
Q 24.65625 65.921875 20.015625 65.03125 
Q 15.375 64.15625 9.8125 62.3125 
L 9.8125 71.09375 
Q 15.4375 72.65625 20.34375 73.4375 
Q 25.25 74.21875 29.59375 74.21875 
Q 40.828125 74.21875 47.359375 69.109375 
Q 53.90625 64.015625 53.90625 55.328125 
Q 53.90625 49.265625 50.4375 45.09375 
Q 46.96875 40.921875 40.578125 39.3125 
z
" id="DejaVuSans-51"/>
      </defs>
      <g transform="translate(49.096875 191.762996)scale(0.1 -0.1)">
       <use xlink:href="#DejaVuSans-48"/>
       <use x="63.623047" xlink:href="#DejaVuSans-46"/>
       <use x="95.410156" xlink:href="#DejaVuSans-51"/>
      </g>
     </g>
    </g>
    <g id="ytick_5">
     <g id="line2d_6">
      <g>
       <use style="stroke:#000000;stroke-width:0.8;" x="72" xlink:href="#mb29e32f7cb" y="163.953428"/>
      </g>
     </g>
     <g id="text_6">
      <!-- 0.4 -->
      <defs>
       <path d="M 37.796875 64.3125 
L 12.890625 25.390625 
L 37.796875 25.390625 
z
M 35.203125 72.90625 
L 47.609375 72.90625 
L 47.609375 25.390625 
L 58.015625 25.390625 
L 58.015625 17.1875 
L 47.609375 17.1875 
L 47.609375 0 
L 37.796875 0 
L 37.796875 17.1875 
L 4.890625 17.1875 
L 4.890625 26.703125 
z
" id="DejaVuSans-52"/>
      </defs>
      <g transform="translate(49.096875 167.752647)scale(0.1 -0.1)">
       <use xlink:href="#DejaVuSans-48"/>
       <use x="63.623047" xlink:href="#DejaVuSans-46"/>
       <use x="95.410156" xlink:href="#DejaVuSans-52"/>
      </g>
     </g>
    </g>
    <g id="ytick_6">
     <g id="line2d_7">
      <g>
       <use style="stroke:#000000;stroke-width:0.8;" x="72" xlink:href="#mb29e32f7cb" y="139.943079"/>
      </g>
     </g>
     <g id="text_7">
      <!-- 0.5 -->
      <defs>
       <path d="M 10.796875 72.90625 
L 49.515625 72.90625 
L 49.515625 64.59375 
L 19.828125 64.59375 
L 19.828125 46.734375 
Q 21.96875 47.46875 24.109375 47.828125 
Q 26.265625 48.1875 28.421875 48.1875 
Q 40.625 48.1875 47.75 41.5 
Q 54.890625 34.8125 54.890625 23.390625 
Q 54.890625 11.625 47.5625 5.09375 
Q 40.234375 -1.421875 26.90625 -1.421875 
Q 22.3125 -1.421875 17.546875 -0.640625 
Q 12.796875 0.140625 7.71875 1.703125 
L 7.71875 11.625 
Q 12.109375 9.234375 16.796875 8.0625 
Q 21.484375 6.890625 26.703125 6.890625 
Q 35.15625 6.890625 40.078125 11.328125 
Q 45.015625 15.765625 45.015625 23.390625 
Q 45.015625 31 40.078125 35.4375 
Q 35.15625 39.890625 26.703125 39.890625 
Q 22.75 39.890625 18.8125 39.015625 
Q 14.890625 38.140625 10.796875 36.28125 
z
" id="DejaVuSans-53"/>
      </defs>
      <g transform="translate(49.096875 143.742298)scale(0.1 -0.1)">
       <use xlink:href="#DejaVuSans-48"/>
       <use x="63.623047" xlink:href="#DejaVuSans-46"/>
       <use x="95.410156" xlink:href="#DejaVuSans-53"/>
      </g>
     </g>
    </g>
    <g id="ytick_7">
     <g id="line2d_8">
      <g>
       <use style="stroke:#000000;stroke-width:0.8;" x="72" xlink:href="#mb29e32f7cb" y="115.93273"/>
      </g>
     </g>
     <g id="text_8">
      <!-- 0.6 -->
      <defs>
       <path d="M 33.015625 40.375 
Q 26.375 40.375 22.484375 35.828125 
Q 18.609375 31.296875 18.609375 23.390625 
Q 18.609375 15.53125 22.484375 10.953125 
Q 26.375 6.390625 33.015625 6.390625 
Q 39.65625 6.390625 43.53125 10.953125 
Q 47.40625 15.53125 47.40625 23.390625 
Q 47.40625 31.296875 43.53125 35.828125 
Q 39.65625 40.375 33.015625 40.375 
z
M 52.59375 71.296875 
L 52.59375 62.3125 
Q 48.875 64.0625 45.09375 64.984375 
Q 41.3125 65.921875 37.59375 65.921875 
Q 27.828125 65.921875 22.671875 59.328125 
Q 17.53125 52.734375 16.796875 39.40625 
Q 19.671875 43.65625 24.015625 45.921875 
Q 28.375 48.1875 33.59375 48.1875 
Q 44.578125 48.1875 50.953125 41.515625 
Q 57.328125 34.859375 57.328125 23.390625 
Q 57.328125 12.15625 50.6875 5.359375 
Q 44.046875 -1.421875 33.015625 -1.421875 
Q 20.359375 -1.421875 13.671875 8.265625 
Q 6.984375 17.96875 6.984375 36.375 
Q 6.984375 53.65625 15.1875 63.9375 
Q 23.390625 74.21875 37.203125 74.21875 
Q 40.921875 74.21875 44.703125 73.484375 
Q 48.484375 72.75 52.59375 71.296875 
z
" id="DejaVuSans-54"/>
      </defs>
      <g transform="translate(49.096875 119.731948)scale(0.1 -0.1)">
       <use xlink:href="#DejaVuSans-48"/>
       <use x="63.623047" xlink:href="#DejaVuSans-46"/>
       <use x="95.410156" xlink:href="#DejaVuSans-54"/>
      </g>
     </g>
    </g>
    <g id="ytick_8">
     <g id="line2d_9">
      <g>
       <use style="stroke:#000000;stroke-width:0.8;" x="72" xlink:href="#mb29e32f7cb" y="91.92238"/>
      </g>
     </g>
     <g id="text_9">
      <!-- 0.7 -->
      <defs>
       <path d="M 8.203125 72.90625 
L 55.078125 72.90625 
L 55.078125 68.703125 
L 28.609375 0 
L 18.3125 0 
L 43.21875 64.59375 
L 8.203125 64.59375 
z
" id="DejaVuSans-55"/>
      </defs>
      <g transform="translate(49.096875 95.721599)scale(0.1 -0.1)">
       <use xlink:href="#DejaVuSans-48"/>
       <use x="63.623047" xlink:href="#DejaVuSans-46"/>
       <use x="95.410156" xlink:href="#DejaVuSans-55"/>
      </g>
     </g>
    </g>
    <g id="text_10">
     <!-- Polystyrene per meter -->
     <defs>
      <path d="M 19.671875 64.796875 
L 19.671875 37.40625 
L 32.078125 37.40625 
Q 38.96875 37.40625 42.71875 40.96875 
Q 46.484375 44.53125 46.484375 51.125 
Q 46.484375 57.671875 42.71875 61.234375 
Q 38.96875 64.796875 32.078125 64.796875 
z
M 9.8125 72.90625 
L 32.078125 72.90625 
Q 44.34375 72.90625 50.609375 67.359375 
Q 56.890625 61.8125 56.890625 51.125 
Q 56.890625 40.328125 50.609375 34.8125 
Q 44.34375 29.296875 32.078125 29.296875 
L 19.671875 29.296875 
L 19.671875 0 
L 9.8125 0 
z
" id="DejaVuSans-80"/>
      <path d="M 30.609375 48.390625 
Q 23.390625 48.390625 19.1875 42.75 
Q 14.984375 37.109375 14.984375 27.296875 
Q 14.984375 17.484375 19.15625 11.84375 
Q 23.34375 6.203125 30.609375 6.203125 
Q 37.796875 6.203125 41.984375 11.859375 
Q 46.1875 17.53125 46.1875 27.296875 
Q 46.1875 37.015625 41.984375 42.703125 
Q 37.796875 48.390625 30.609375 48.390625 
z
M 30.609375 56 
Q 42.328125 56 49.015625 48.375 
Q 55.71875 40.765625 55.71875 27.296875 
Q 55.71875 13.875 49.015625 6.21875 
Q 42.328125 -1.421875 30.609375 -1.421875 
Q 18.84375 -1.421875 12.171875 6.21875 
Q 5.515625 13.875 5.515625 27.296875 
Q 5.515625 40.765625 12.171875 48.375 
Q 18.84375 56 30.609375 56 
z
" id="DejaVuSans-111"/>
      <path d="M 9.421875 75.984375 
L 18.40625 75.984375 
L 18.40625 0 
L 9.421875 0 
z
" id="DejaVuSans-108"/>
      <path d="M 32.171875 -5.078125 
Q 28.375 -14.84375 24.75 -17.8125 
Q 21.140625 -20.796875 15.09375 -20.796875 
L 7.90625 -20.796875 
L 7.90625 -13.28125 
L 13.1875 -13.28125 
Q 16.890625 -13.28125 18.9375 -11.515625 
Q 21 -9.765625 23.484375 -3.21875 
L 25.09375 0.875 
L 2.984375 54.6875 
L 12.5 54.6875 
L 29.59375 11.921875 
L 46.6875 54.6875 
L 56.203125 54.6875 
z
" id="DejaVuSans-121"/>
      <path d="M 44.28125 53.078125 
L 44.28125 44.578125 
Q 40.484375 46.53125 36.375 47.5 
Q 32.28125 48.484375 27.875 48.484375 
Q 21.1875 48.484375 17.84375 46.4375 
Q 14.5 44.390625 14.5 40.28125 
Q 14.5 37.15625 16.890625 35.375 
Q 19.28125 33.59375 26.515625 31.984375 
L 29.59375 31.296875 
Q 39.15625 29.25 43.1875 25.515625 
Q 47.21875 21.78125 47.21875 15.09375 
Q 47.21875 7.46875 41.1875 3.015625 
Q 35.15625 -1.421875 24.609375 -1.421875 
Q 20.21875 -1.421875 15.453125 -0.5625 
Q 10.6875 0.296875 5.421875 2 
L 5.421875 11.28125 
Q 10.40625 8.6875 15.234375 7.390625 
Q 20.0625 6.109375 24.8125 6.109375 
Q 31.15625 6.109375 34.5625 8.28125 
Q 37.984375 10.453125 37.984375 14.40625 
Q 37.984375 18.0625 35.515625 20.015625 
Q 33.0625 21.96875 24.703125 23.78125 
L 21.578125 24.515625 
Q 13.234375 26.265625 9.515625 29.90625 
Q 5.8125 33.546875 5.8125 39.890625 
Q 5.8125 47.609375 11.28125 51.796875 
Q 16.75 56 26.8125 56 
Q 31.78125 56 36.171875 55.265625 
Q 40.578125 54.546875 44.28125 53.078125 
z
" id="DejaVuSans-115"/>
      <path id="DejaVuSans-32"/>
      <path d="M 18.109375 8.203125 
L 18.109375 -20.796875 
L 9.078125 -20.796875 
L 9.078125 54.6875 
L 18.109375 54.6875 
L 18.109375 46.390625 
Q 20.953125 51.265625 25.265625 53.625 
Q 29.59375 56 35.59375 56 
Q 45.5625 56 51.78125 48.09375 
Q 58.015625 40.1875 58.015625 27.296875 
Q 58.015625 14.40625 51.78125 6.484375 
Q 45.5625 -1.421875 35.59375 -1.421875 
Q 29.59375 -1.421875 25.265625 0.953125 
Q 20.953125 3.328125 18.109375 8.203125 
z
M 48.6875 27.296875 
Q 48.6875 37.203125 44.609375 42.84375 
Q 40.53125 48.484375 33.40625 48.484375 
Q 26.265625 48.484375 22.1875 42.84375 
Q 18.109375 37.203125 18.109375 27.296875 
Q 18.109375 17.390625 22.1875 11.75 
Q 26.265625 6.109375 33.40625 6.109375 
Q 40.53125 6.109375 44.609375 11.75 
Q 48.6875 17.390625 48.6875 27.296875 
z
" id="DejaVuSans-112"/>
      <path d="M 52 44.1875 
Q 55.375 50.25 60.0625 53.125 
Q 64.75 56 71.09375 56 
Q 79.640625 56 84.28125 50.015625 
Q 88.921875 44.046875 88.921875 33.015625 
L 88.921875 0 
L 79.890625 0 
L 79.890625 32.71875 
Q 79.890625 40.578125 77.09375 44.375 
Q 74.3125 48.1875 68.609375 48.1875 
Q 61.625 48.1875 57.5625 43.546875 
Q 53.515625 38.921875 53.515625 30.90625 
L 53.515625 0 
L 44.484375 0 
L 44.484375 32.71875 
Q 44.484375 40.625 41.703125 44.40625 
Q 38.921875 48.1875 33.109375 48.1875 
Q 26.21875 48.1875 22.15625 43.53125 
Q 18.109375 38.875 18.109375 30.90625 
L 18.109375 0 
L 9.078125 0 
L 9.078125 54.6875 
L 18.109375 54.6875 
L 18.109375 46.1875 
Q 21.1875 51.21875 25.484375 53.609375 
Q 29.78125 56 35.6875 56 
Q 41.65625 56 45.828125 52.96875 
Q 50 49.953125 52 44.1875 
z
" id="DejaVuSans-109"/>
     </defs>
     <g transform="translate(42.60125 246.2125)rotate(-90)scale(0.12 -0.12)">
      <use xlink:href="#DejaVuSans-80"/>
      <use x="60.255859" xlink:href="#DejaVuSans-111"/>
      <use x="121.4375" xlink:href="#DejaVuSans-108"/>
      <use x="149.220703" xlink:href="#DejaVuSans-121"/>
      <use x="208.400391" xlink:href="#DejaVuSans-115"/>
      <use x="260.5" xlink:href="#DejaVuSans-116"/>
      <use x="299.708984" xlink:href="#DejaVuSans-121"/>
      <use x="358.888672" xlink:href="#DejaVuSans-114"/>
      <use x="399.970703" xlink:href="#DejaVuSans-101"/>
      <use x="461.494141" xlink:href="#DejaVuSans-110"/>
      <use x="524.873047" xlink:href="#DejaVuSans-101"/>
      <use x="586.396484" xlink:href="#DejaVuSans-32"/>
      <use x="618.183594" xlink:href="#DejaVuSans-112"/>
      <use x="681.660156" xlink:href="#DejaVuSans-101"/>
      <use x="743.183594" xlink:href="#DejaVuSans-114"/>
      <use x="784.296875" xlink:href="#DejaVuSans-32"/>
      <use x="816.083984" xlink:href="#DejaVuSans-109"/>
      <use x="913.496094" xlink:href="#DejaVuSans-101"/>
      <use x="975.019531" xlink:href="#DejaVuSans-116"/>
      <use x="1014.228516" xlink:href="#DejaVuSans-101"/>
      <use x="1075.751953" xlink:href="#DejaVuSans-114"/>
     </g>
    </g>
   </g>
   <g id="line2d_10">
    <path clip-path="url(#pc4b310cac5)" d="M 102.436364 244.147995 
L 244.472727 244.147995 
L 244.472727 200.929366 
L 102.436364 200.929366 
L 102.436364 244.147995 
" style="fill:none;stroke:#000000;stroke-linecap:square;"/>
   </g>
   <g id="line2d_11">
    <path clip-path="url(#pc4b310cac5)" d="M 173.454545 244.147995 
L 173.454545 256.633376 
" style="fill:none;stroke:#000000;stroke-linecap:square;"/>
   </g>
   <g id="line2d_12">
    <path clip-path="url(#pc4b310cac5)" d="M 173.454545 200.929366 
L 173.454545 155.789909 
" style="fill:none;stroke:#000000;stroke-linecap:square;"/>
   </g>
   <g id="line2d_13">
    <path clip-path="url(#pc4b310cac5)" d="M 137.945455 256.633376 
L 208.963636 256.633376 
" style="fill:none;stroke:#000000;stroke-linecap:square;"/>
   </g>
   <g id="line2d_14">
    <path clip-path="url(#pc4b310cac5)" d="M 137.945455 155.789909 
L 208.963636 155.789909 
" style="fill:none;stroke:#000000;stroke-linecap:square;"/>
   </g>
   <g id="line2d_15">
    <path clip-path="url(#pc4b310cac5)" d="M 102.436364 218.216818 
L 244.472727 218.216818 
" style="fill:none;stroke:#ff7f0e;stroke-linecap:square;"/>
   </g>
   <g id="patch_3">
    <path d="M 72 272 
L 72 86.4 
" style="fill:none;stroke:#000000;stroke-linecap:square;stroke-linejoin:miter;stroke-width:0.8;"/>
   </g>
   <g id="patch_4">
    <path d="M 274.909091 272 
L 274.909091 86.4 
" style="fill:none;stroke:#000000;stroke-linecap:square;stroke-linejoin:miter;stroke-width:0.8;"/>
   </g>
   <g id="patch_5">
    <path d="M 72 272 
L 274.909091 272 
" style="fill:none;stroke:#000000;stroke-linecap:square;stroke-linejoin:miter;stroke-width:0.8;"/>
   </g>
   <g id="patch_6">
    <path d="M 72 86.4 
L 274.909091 86.4 
" style="fill:none;stroke:#000000;stroke-linecap:square;stroke-linejoin:miter;stroke-width:0.8;"/>
   </g>
   <g id="text_11">
    <!-- Dec, Jan, Feb: -->
    <defs>
     <path d="M 19.671875 64.796875 
L 19.671875 8.109375 
L 31.59375 8.109375 
Q 46.6875 8.109375 53.6875 14.9375 
Q 60.6875 21.78125 60.6875 36.53125 
Q 60.6875 51.171875 53.6875 57.984375 
Q 46.6875 64.796875 31.59375 64.796875 
z
M 9.8125 72.90625 
L 30.078125 72.90625 
Q 51.265625 72.90625 61.171875 64.09375 
Q 71.09375 55.28125 71.09375 36.53125 
Q 71.09375 17.671875 61.125 8.828125 
Q 51.171875 0 30.078125 0 
L 9.8125 0 
z
" id="DejaVuSans-68"/>
     <path d="M 48.78125 52.59375 
L 48.78125 44.1875 
Q 44.96875 46.296875 41.140625 47.34375 
Q 37.3125 48.390625 33.40625 48.390625 
Q 24.65625 48.390625 19.8125 42.84375 
Q 14.984375 37.3125 14.984375 27.296875 
Q 14.984375 17.28125 19.8125 11.734375 
Q 24.65625 6.203125 33.40625 6.203125 
Q 37.3125 6.203125 41.140625 7.25 
Q 44.96875 8.296875 48.78125 10.40625 
L 48.78125 2.09375 
Q 45.015625 0.34375 40.984375 -0.53125 
Q 36.96875 -1.421875 32.421875 -1.421875 
Q 20.0625 -1.421875 12.78125 6.34375 
Q 5.515625 14.109375 5.515625 27.296875 
Q 5.515625 40.671875 12.859375 48.328125 
Q 20.21875 56 33.015625 56 
Q 37.15625 56 41.109375 55.140625 
Q 45.0625 54.296875 48.78125 52.59375 
z
" id="DejaVuSans-99"/>
     <path d="M 11.71875 12.40625 
L 22.015625 12.40625 
L 22.015625 4 
L 14.015625 -11.625 
L 7.71875 -11.625 
L 11.71875 4 
z
" id="DejaVuSans-44"/>
     <path d="M 9.8125 72.90625 
L 19.671875 72.90625 
L 19.671875 5.078125 
Q 19.671875 -8.109375 14.671875 -14.0625 
Q 9.671875 -20.015625 -1.421875 -20.015625 
L -5.171875 -20.015625 
L -5.171875 -11.71875 
L -2.09375 -11.71875 
Q 4.4375 -11.71875 7.125 -8.046875 
Q 9.8125 -4.390625 9.8125 5.078125 
z
" id="DejaVuSans-74"/>
     <path d="M 34.28125 27.484375 
Q 23.390625 27.484375 19.1875 25 
Q 14.984375 22.515625 14.984375 16.5 
Q 14.984375 11.71875 18.140625 8.90625 
Q 21.296875 6.109375 26.703125 6.109375 
Q 34.1875 6.109375 38.703125 11.40625 
Q 43.21875 16.703125 43.21875 25.484375 
L 43.21875 27.484375 
z
M 52.203125 31.203125 
L 52.203125 0 
L 43.21875 0 
L 43.21875 8.296875 
Q 40.140625 3.328125 35.546875 0.953125 
Q 30.953125 -1.421875 24.3125 -1.421875 
Q 15.921875 -1.421875 10.953125 3.296875 
Q 6 8.015625 6 15.921875 
Q 6 25.140625 12.171875 29.828125 
Q 18.359375 34.515625 30.609375 34.515625 
L 43.21875 34.515625 
L 43.21875 35.40625 
Q 43.21875 41.609375 39.140625 45 
Q 35.0625 48.390625 27.6875 48.390625 
Q 23 48.390625 18.546875 47.265625 
Q 14.109375 46.140625 10.015625 43.890625 
L 10.015625 52.203125 
Q 14.9375 54.109375 19.578125 55.046875 
Q 24.21875 56 28.609375 56 
Q 40.484375 56 46.34375 49.84375 
Q 52.203125 43.703125 52.203125 31.203125 
z
" id="DejaVuSans-97"/>
     <path d="M 9.8125 72.90625 
L 51.703125 72.90625 
L 51.703125 64.59375 
L 19.671875 64.59375 
L 19.671875 43.109375 
L 48.578125 43.109375 
L 48.578125 34.8125 
L 19.671875 34.8125 
L 19.671875 0 
L 9.8125 0 
z
" id="DejaVuSans-70"/>
     <path d="M 48.6875 27.296875 
Q 48.6875 37.203125 44.609375 42.84375 
Q 40.53125 48.484375 33.40625 48.484375 
Q 26.265625 48.484375 22.1875 42.84375 
Q 18.109375 37.203125 18.109375 27.296875 
Q 18.109375 17.390625 22.1875 11.75 
Q 26.265625 6.109375 33.40625 6.109375 
Q 40.53125 6.109375 44.609375 11.75 
Q 48.6875 17.390625 48.6875 27.296875 
z
M 18.109375 46.390625 
Q 20.953125 51.265625 25.265625 53.625 
Q 29.59375 56 35.59375 56 
Q 45.5625 56 51.78125 48.09375 
Q 58.015625 40.1875 58.015625 27.296875 
Q 58.015625 14.40625 51.78125 6.484375 
Q 45.5625 -1.421875 35.59375 -1.421875 
Q 29.59375 -1.421875 25.265625 0.953125 
Q 20.953125 3.328125 18.109375 8.203125 
L 18.109375 0 
L 9.078125 0 
L 9.078125 75.984375 
L 18.109375 75.984375 
z
" id="DejaVuSans-98"/>
     <path d="M 11.71875 12.40625 
L 22.015625 12.40625 
L 22.015625 0 
L 11.71875 0 
z
M 11.71875 51.703125 
L 22.015625 51.703125 
L 22.015625 39.3125 
L 11.71875 39.3125 
z
" id="DejaVuSans-58"/>
    </defs>
    <g transform="translate(72 80.4)scale(0.14 -0.14)">
     <use xlink:href="#DejaVuSans-68"/>
     <use x="77.001953" xlink:href="#DejaVuSans-101"/>
     <use x="138.525391" xlink:href="#DejaVuSans-99"/>
     <use x="193.505859" xlink:href="#DejaVuSans-44"/>
     <use x="225.292969" xlink:href="#DejaVuSans-32"/>
     <use x="257.080078" xlink:href="#DejaVuSans-74"/>
     <use x="286.572266" xlink:href="#DejaVuSans-97"/>
     <use x="347.851562" xlink:href="#DejaVuSans-110"/>
     <use x="411.230469" xlink:href="#DejaVuSans-44"/>
     <use x="443.017578" xlink:href="#DejaVuSans-32"/>
     <use x="474.804688" xlink:href="#DejaVuSans-70"/>
     <use x="532.246094" xlink:href="#DejaVuSans-101"/>
     <use x="593.769531" xlink:href="#DejaVuSans-98"/>
     <use x="657.246094" xlink:href="#DejaVuSans-58"/>
    </g>
   </g>
  </g>
  <g id="axes_2">
   <g id="patch_7">
    <path d="M 315.490909 272 
L 518.4 272 
L 518.4 86.4 
L 315.490909 86.4 
z
" style="fill:#ffffff;"/>
   </g>
   <g id="PathCollection_2">
    <defs>
     <path d="M 0 5 
C 1.326016 5 2.597899 4.473168 3.535534 3.535534 
C 4.473168 2.597899 5 1.326016 5 0 
C 5 -1.326016 4.473168 -2.597899 3.535534 -3.535534 
C 2.597899 -4.473168 1.326016 -5 0 -5 
C -1.326016 -5 -2.597899 -4.473168 -3.535534 -3.535534 
C -4.473168 -2.597899 -5 -1.326016 -5 0 
C -5 1.326016 -4.473168 2.597899 -3.535534 3.535534 
C -2.597899 4.473168 -1.326016 5 0 5 
z
" id="m3256592a42" style="stroke:#ffffff;stroke-opacity:0.7;"/>
    </defs>
    <g clip-path="url(#p744adaa76e)">
     <use style="fill:#00ff00;fill-opacity:0.7;stroke:#ffffff;stroke-opacity:0.7;" x="366.338889" xlink:href="#m3256592a42" y="268.625455"/>
     <use style="fill:#00ff00;fill-opacity:0.7;stroke:#ffffff;stroke-opacity:0.7;" x="358.238615" xlink:href="#m3256592a42" y="268.361818"/>
     <use style="fill:#00ff00;fill-opacity:0.7;stroke:#ffffff;stroke-opacity:0.7;" x="438.807754" xlink:href="#m3256592a42" y="268.361818"/>
     <use style="fill:#00ff00;fill-opacity:0.7;stroke:#ffffff;stroke-opacity:0.7;" x="432.444718" xlink:href="#m3256592a42" y="267.834545"/>
     <use style="fill:#00ff00;fill-opacity:0.7;stroke:#ffffff;stroke-opacity:0.7;" x="386.29408" xlink:href="#m3256592a42" y="267.36"/>
     <use style="fill:#00ff00;fill-opacity:0.7;stroke:#ffffff;stroke-opacity:0.7;" x="358.197172" xlink:href="#m3256592a42" y="267.096364"/>
     <use style="fill:#00ff00;fill-opacity:0.7;stroke:#ffffff;stroke-opacity:0.7;" x="376.928245" xlink:href="#m3256592a42" y="265.883636"/>
     <use style="fill:#00ff00;fill-opacity:0.7;stroke:#ffffff;stroke-opacity:0.7;" x="451.325954" xlink:href="#m3256592a42" y="265.883636"/>
     <use style="fill:#00ff00;fill-opacity:0.7;stroke:#ffffff;stroke-opacity:0.7;" x="401.940722" xlink:href="#m3256592a42" y="265.830909"/>
     <use style="fill:#00ff00;fill-opacity:0.7;stroke:#ffffff;stroke-opacity:0.7;" x="398.481951" xlink:href="#m3256592a42" y="264.407273"/>
     <use style="fill:#00ff00;fill-opacity:0.7;stroke:#ffffff;stroke-opacity:0.7;" x="448.524465" xlink:href="#m3256592a42" y="264.196364"/>
     <use style="fill:#00ff00;fill-opacity:0.7;stroke:#ffffff;stroke-opacity:0.7;" x="456.540507" xlink:href="#m3256592a42" y="261.929091"/>
     <use style="fill:#00ff00;fill-opacity:0.7;stroke:#ffffff;stroke-opacity:0.7;" x="460.706431" xlink:href="#m3256592a42" y="260.189091"/>
     <use style="fill:#00ff00;fill-opacity:0.7;stroke:#ffffff;stroke-opacity:0.7;" x="440.180476" xlink:href="#m3256592a42" y="260.136364"/>
     <use style="fill:#00ff00;fill-opacity:0.7;stroke:#ffffff;stroke-opacity:0.7;" x="347.799874" xlink:href="#m3256592a42" y="259.398182"/>
     <use style="fill:#00ff00;fill-opacity:0.7;stroke:#ffffff;stroke-opacity:0.7;" x="389.189326" xlink:href="#m3256592a42" y="258.976364"/>
     <use style="fill:#00ff00;fill-opacity:0.7;stroke:#ffffff;stroke-opacity:0.7;" x="384.20705" xlink:href="#m3256592a42" y="258.818182"/>
     <use style="fill:#00ff00;fill-opacity:0.7;stroke:#ffffff;stroke-opacity:0.7;" x="473.547122" xlink:href="#m3256592a42" y="258.08"/>
     <use style="fill:#00ff00;fill-opacity:0.7;stroke:#ffffff;stroke-opacity:0.7;" x="467.107425" xlink:href="#m3256592a42" y="258.08"/>
     <use style="fill:#00ff00;fill-opacity:0.7;stroke:#ffffff;stroke-opacity:0.7;" x="471.053439" xlink:href="#m3256592a42" y="258.08"/>
     <use style="fill:#00ff00;fill-opacity:0.7;stroke:#ffffff;stroke-opacity:0.7;" x="471.489575" xlink:href="#m3256592a42" y="257.552727"/>
     <use style="fill:#00ff00;fill-opacity:0.7;stroke:#ffffff;stroke-opacity:0.7;" x="413.894216" xlink:href="#m3256592a42" y="256.181818"/>
     <use style="fill:#00ff00;fill-opacity:0.7;stroke:#ffffff;stroke-opacity:0.7;" x="368.199605" xlink:href="#m3256592a42" y="254.547273"/>
     <use style="fill:#00ff00;fill-opacity:0.7;stroke:#ffffff;stroke-opacity:0.7;" x="360.858019" xlink:href="#m3256592a42" y="253.703636"/>
     <use style="fill:#00ff00;fill-opacity:0.7;stroke:#ffffff;stroke-opacity:0.7;" x="358.389449" xlink:href="#m3256592a42" y="253.703636"/>
     <use style="fill:#00ff00;fill-opacity:0.7;stroke:#ffffff;stroke-opacity:0.7;" x="476.309201" xlink:href="#m3256592a42" y="252.227273"/>
     <use style="fill:#00ff00;fill-opacity:0.7;stroke:#ffffff;stroke-opacity:0.7;" x="365.488968" xlink:href="#m3256592a42" y="252.016364"/>
     <use style="fill:#00ff00;fill-opacity:0.7;stroke:#ffffff;stroke-opacity:0.7;" x="478.166051" xlink:href="#m3256592a42" y="250.54"/>
     <use style="fill:#00ff00;fill-opacity:0.7;stroke:#ffffff;stroke-opacity:0.7;" x="420.618196" xlink:href="#m3256592a42" y="250.54"/>
     <use style="fill:#00ff00;fill-opacity:0.7;stroke:#ffffff;stroke-opacity:0.7;" x="442.076914" xlink:href="#m3256592a42" y="249.696364"/>
     <use style="fill:#00ff00;fill-opacity:0.7;stroke:#ffffff;stroke-opacity:0.7;" x="411.683966" xlink:href="#m3256592a42" y="249.590909"/>
     <use style="fill:#00ff00;fill-opacity:0.7;stroke:#ffffff;stroke-opacity:0.7;" x="460.716096" xlink:href="#m3256592a42" y="249.169091"/>
     <use style="fill:#00ff00;fill-opacity:0.7;stroke:#ffffff;stroke-opacity:0.7;" x="374.243737" xlink:href="#m3256592a42" y="243"/>
     <use style="fill:#00ff00;fill-opacity:0.7;stroke:#ffffff;stroke-opacity:0.7;" x="418.380601" xlink:href="#m3256592a42" y="241.470909"/>
     <use style="fill:#00ff00;fill-opacity:0.7;stroke:#ffffff;stroke-opacity:0.7;" x="386.69767" xlink:href="#m3256592a42" y="239.572727"/>
     <use style="fill:#00ff00;fill-opacity:0.7;stroke:#ffffff;stroke-opacity:0.7;" x="356.086088" xlink:href="#m3256592a42" y="228.341818"/>
     <use style="fill:#00ff00;fill-opacity:0.7;stroke:#ffffff;stroke-opacity:0.7;" x="353.116469" xlink:href="#m3256592a42" y="227.181818"/>
     <use style="fill:#00ff00;fill-opacity:0.7;stroke:#ffffff;stroke-opacity:0.7;" x="384.355291" xlink:href="#m3256592a42" y="227.181818"/>
     <use style="fill:#00ff00;fill-opacity:0.7;stroke:#ffffff;stroke-opacity:0.7;" x="482.07316" xlink:href="#m3256592a42" y="209.096364"/>
     <use style="fill:#00ff00;fill-opacity:0.7;stroke:#ffffff;stroke-opacity:0.7;" x="440.022468" xlink:href="#m3256592a42" y="204.930909"/>
     <use style="fill:#00ff00;fill-opacity:0.7;stroke:#ffffff;stroke-opacity:0.7;" x="477.151062" xlink:href="#m3256592a42" y="201.556364"/>
     <use style="fill:#00ff00;fill-opacity:0.7;stroke:#ffffff;stroke-opacity:0.7;" x="423.582835" xlink:href="#m3256592a42" y="157.687273"/>
     <use style="fill:#00ff00;fill-opacity:0.7;stroke:#ffffff;stroke-opacity:0.7;" x="389.898204" xlink:href="#m3256592a42" y="153.996364"/>
     <use style="fill:#00ff00;fill-opacity:0.7;stroke:#ffffff;stroke-opacity:0.7;" x="482.19079" xlink:href="#m3256592a42" y="152.783636"/>
     <use style="fill:#00ff00;fill-opacity:0.7;stroke:#ffffff;stroke-opacity:0.7;" x="457.309193" xlink:href="#m3256592a42" y="91.672727"/>
     <use style="fill:#00ff00;fill-opacity:0.7;stroke:#ffffff;stroke-opacity:0.7;" x="398.996034" xlink:href="#m3256592a42" y="46.063636"/>
    </g>
   </g>
   <g id="matplotlib.axis_3">
    <g id="xtick_2">
     <g id="line2d_16">
      <g>
       <use style="stroke:#000000;stroke-width:0.8;" x="416.945455" xlink:href="#mb17232fe54" y="272"/>
      </g>
     </g>
     <g id="text_12">
      <!-- spring -->
      <defs>
       <path d="M 45.40625 27.984375 
Q 45.40625 37.75 41.375 43.109375 
Q 37.359375 48.484375 30.078125 48.484375 
Q 22.859375 48.484375 18.828125 43.109375 
Q 14.796875 37.75 14.796875 27.984375 
Q 14.796875 18.265625 18.828125 12.890625 
Q 22.859375 7.515625 30.078125 7.515625 
Q 37.359375 7.515625 41.375 12.890625 
Q 45.40625 18.265625 45.40625 27.984375 
z
M 54.390625 6.78125 
Q 54.390625 -7.171875 48.1875 -13.984375 
Q 42 -20.796875 29.203125 -20.796875 
Q 24.46875 -20.796875 20.265625 -20.09375 
Q 16.0625 -19.390625 12.109375 -17.921875 
L 12.109375 -9.1875 
Q 16.0625 -11.328125 19.921875 -12.34375 
Q 23.78125 -13.375 27.78125 -13.375 
Q 36.625 -13.375 41.015625 -8.765625 
Q 45.40625 -4.15625 45.40625 5.171875 
L 45.40625 9.625 
Q 42.625 4.78125 38.28125 2.390625 
Q 33.9375 0 27.875 0 
Q 17.828125 0 11.671875 7.65625 
Q 5.515625 15.328125 5.515625 27.984375 
Q 5.515625 40.671875 11.671875 48.328125 
Q 17.828125 56 27.875 56 
Q 33.9375 56 38.28125 53.609375 
Q 42.625 51.21875 45.40625 46.390625 
L 45.40625 54.6875 
L 54.390625 54.6875 
z
" id="DejaVuSans-103"/>
      </defs>
      <g transform="translate(395.152486 289.637812)scale(0.14 -0.14)">
       <use xlink:href="#DejaVuSans-115"/>
       <use x="52.099609" xlink:href="#DejaVuSans-112"/>
       <use x="115.576172" xlink:href="#DejaVuSans-114"/>
       <use x="156.689453" xlink:href="#DejaVuSans-105"/>
       <use x="184.472656" xlink:href="#DejaVuSans-110"/>
       <use x="247.851562" xlink:href="#DejaVuSans-103"/>
      </g>
     </g>
    </g>
   </g>
   <g id="matplotlib.axis_4">
    <g id="ytick_9">
     <g id="line2d_17">
      <g>
       <use style="stroke:#000000;stroke-width:0.8;" x="315.490909" xlink:href="#mb29e32f7cb" y="269.363636"/>
      </g>
     </g>
     <g id="text_13">
      <!-- 0.0 -->
      <g transform="translate(292.587784 273.162855)scale(0.1 -0.1)">
       <use xlink:href="#DejaVuSans-48"/>
       <use x="63.623047" xlink:href="#DejaVuSans-46"/>
       <use x="95.410156" xlink:href="#DejaVuSans-48"/>
      </g>
     </g>
    </g>
    <g id="ytick_10">
     <g id="line2d_18">
      <g>
       <use style="stroke:#000000;stroke-width:0.8;" x="315.490909" xlink:href="#mb29e32f7cb" y="243"/>
      </g>
     </g>
     <g id="text_14">
      <!-- 0.5 -->
      <g transform="translate(292.587784 246.799219)scale(0.1 -0.1)">
       <use xlink:href="#DejaVuSans-48"/>
       <use x="63.623047" xlink:href="#DejaVuSans-46"/>
       <use x="95.410156" xlink:href="#DejaVuSans-53"/>
      </g>
     </g>
    </g>
    <g id="ytick_11">
     <g id="line2d_19">
      <g>
       <use style="stroke:#000000;stroke-width:0.8;" x="315.490909" xlink:href="#mb29e32f7cb" y="216.636364"/>
      </g>
     </g>
     <g id="text_15">
      <!-- 1.0 -->
      <g transform="translate(292.587784 220.435582)scale(0.1 -0.1)">
       <use xlink:href="#DejaVuSans-49"/>
       <use x="63.623047" xlink:href="#DejaVuSans-46"/>
       <use x="95.410156" xlink:href="#DejaVuSans-48"/>
      </g>
     </g>
    </g>
    <g id="ytick_12">
     <g id="line2d_20">
      <g>
       <use style="stroke:#000000;stroke-width:0.8;" x="315.490909" xlink:href="#mb29e32f7cb" y="190.272727"/>
      </g>
     </g>
     <g id="text_16">
      <!-- 1.5 -->
      <g transform="translate(292.587784 194.071946)scale(0.1 -0.1)">
       <use xlink:href="#DejaVuSans-49"/>
       <use x="63.623047" xlink:href="#DejaVuSans-46"/>
       <use x="95.410156" xlink:href="#DejaVuSans-53"/>
      </g>
     </g>
    </g>
    <g id="ytick_13">
     <g id="line2d_21">
      <g>
       <use style="stroke:#000000;stroke-width:0.8;" x="315.490909" xlink:href="#mb29e32f7cb" y="163.909091"/>
      </g>
     </g>
     <g id="text_17">
      <!-- 2.0 -->
      <g transform="translate(292.587784 167.70831)scale(0.1 -0.1)">
       <use xlink:href="#DejaVuSans-50"/>
       <use x="63.623047" xlink:href="#DejaVuSans-46"/>
       <use x="95.410156" xlink:href="#DejaVuSans-48"/>
      </g>
     </g>
    </g>
    <g id="ytick_14">
     <g id="line2d_22">
      <g>
       <use style="stroke:#000000;stroke-width:0.8;" x="315.490909" xlink:href="#mb29e32f7cb" y="137.545455"/>
      </g>
     </g>
     <g id="text_18">
      <!-- 2.5 -->
      <g transform="translate(292.587784 141.344673)scale(0.1 -0.1)">
       <use xlink:href="#DejaVuSans-50"/>
       <use x="63.623047" xlink:href="#DejaVuSans-46"/>
       <use x="95.410156" xlink:href="#DejaVuSans-53"/>
      </g>
     </g>
    </g>
    <g id="ytick_15">
     <g id="line2d_23">
      <g>
       <use style="stroke:#000000;stroke-width:0.8;" x="315.490909" xlink:href="#mb29e32f7cb" y="111.181818"/>
      </g>
     </g>
     <g id="text_19">
      <!-- 3.0 -->
      <g transform="translate(292.587784 114.981037)scale(0.1 -0.1)">
       <use xlink:href="#DejaVuSans-51"/>
       <use x="63.623047" xlink:href="#DejaVuSans-46"/>
       <use x="95.410156" xlink:href="#DejaVuSans-48"/>
      </g>
     </g>
    </g>
   </g>
   <g id="line2d_24">
    <path clip-path="url(#p744adaa76e)" d="M 345.927273 261.494091 
L 487.963636 261.494091 
L 487.963636 240.047273 
L 345.927273 240.047273 
L 345.927273 261.494091 
" style="fill:none;stroke:#000000;stroke-linecap:square;"/>
   </g>
   <g id="line2d_25">
    <path clip-path="url(#p744adaa76e)" d="M 416.945455 261.494091 
L 416.945455 268.625455 
" style="fill:none;stroke:#000000;stroke-linecap:square;"/>
   </g>
   <g id="line2d_26">
    <path clip-path="url(#p744adaa76e)" d="M 416.945455 240.047273 
L 416.945455 209.096364 
" style="fill:none;stroke:#000000;stroke-linecap:square;"/>
   </g>
   <g id="line2d_27">
    <path clip-path="url(#p744adaa76e)" d="M 381.436364 268.625455 
L 452.454545 268.625455 
" style="fill:none;stroke:#000000;stroke-linecap:square;"/>
   </g>
   <g id="line2d_28">
    <path clip-path="url(#p744adaa76e)" d="M 381.436364 209.096364 
L 452.454545 209.096364 
" style="fill:none;stroke:#000000;stroke-linecap:square;"/>
   </g>
   <g id="line2d_29">
    <path clip-path="url(#p744adaa76e)" d="M 345.927273 254.125455 
L 487.963636 254.125455 
" style="fill:none;stroke:#ff7f0e;stroke-linecap:square;"/>
   </g>
   <g id="patch_8">
    <path d="M 315.490909 272 
L 315.490909 86.4 
" style="fill:none;stroke:#000000;stroke-linecap:square;stroke-linejoin:miter;stroke-width:0.8;"/>
   </g>
   <g id="patch_9">
    <path d="M 518.4 272 
L 518.4 86.4 
" style="fill:none;stroke:#000000;stroke-linecap:square;stroke-linejoin:miter;stroke-width:0.8;"/>
   </g>
   <g id="patch_10">
    <path d="M 315.490909 272 
L 518.4 272 
" style="fill:none;stroke:#000000;stroke-linecap:square;stroke-linejoin:miter;stroke-width:0.8;"/>
   </g>
   <g id="patch_11">
    <path d="M 315.490909 86.4 
L 518.4 86.4 
" style="fill:none;stroke:#000000;stroke-linecap:square;stroke-linejoin:miter;stroke-width:0.8;"/>
   </g>
   <g id="text_20">
    <!-- Mar, Apr, May: -->
    <defs>
     <path d="M 9.8125 72.90625 
L 24.515625 72.90625 
L 43.109375 23.296875 
L 61.8125 72.90625 
L 76.515625 72.90625 
L 76.515625 0 
L 66.890625 0 
L 66.890625 64.015625 
L 48.09375 14.015625 
L 38.1875 14.015625 
L 19.390625 64.015625 
L 19.390625 0 
L 9.8125 0 
z
" id="DejaVuSans-77"/>
     <path d="M 34.1875 63.1875 
L 20.796875 26.90625 
L 47.609375 26.90625 
z
M 28.609375 72.90625 
L 39.796875 72.90625 
L 67.578125 0 
L 57.328125 0 
L 50.6875 18.703125 
L 17.828125 18.703125 
L 11.1875 0 
L 0.78125 0 
z
" id="DejaVuSans-65"/>
    </defs>
    <g transform="translate(315.490909 80.4)scale(0.14 -0.14)">
     <use xlink:href="#DejaVuSans-77"/>
     <use x="86.279297" xlink:href="#DejaVuSans-97"/>
     <use x="147.558594" xlink:href="#DejaVuSans-114"/>
     <use x="188.671875" xlink:href="#DejaVuSans-44"/>
     <use x="220.458984" xlink:href="#DejaVuSans-32"/>
     <use x="252.246094" xlink:href="#DejaVuSans-65"/>
     <use x="320.654297" xlink:href="#DejaVuSans-112"/>
     <use x="384.130859" xlink:href="#DejaVuSans-114"/>
     <use x="425.244141" xlink:href="#DejaVuSans-44"/>
     <use x="457.03125" xlink:href="#DejaVuSans-32"/>
     <use x="488.818359" xlink:href="#DejaVuSans-77"/>
     <use x="575.097656" xlink:href="#DejaVuSans-97"/>
     <use x="636.376953" xlink:href="#DejaVuSans-121"/>
     <use x="695.447266" xlink:href="#DejaVuSans-58"/>
    </g>
   </g>
  </g>
  <g id="axes_3">
   <g id="patch_12">
    <path d="M 72 504 
L 274.909091 504 
L 274.909091 318.4 
L 72 318.4 
z
" style="fill:#ffffff;"/>
   </g>
   <g id="PathCollection_3">
    <defs>
     <path d="M 0 5 
C 1.326016 5 2.597899 4.473168 3.535534 3.535534 
C 4.473168 2.597899 5 1.326016 5 0 
C 5 -1.326016 4.473168 -2.597899 3.535534 -3.535534 
C 2.597899 -4.473168 1.326016 -5 0 -5 
C -1.326016 -5 -2.597899 -4.473168 -3.535534 -3.535534 
C -4.473168 -2.597899 -5 -1.326016 -5 0 
C -5 1.326016 -4.473168 2.597899 -3.535534 3.535534 
C -2.597899 4.473168 -1.326016 5 0 5 
z
" id="m8a1c630829" style="stroke:#ffffff;stroke-opacity:0.7;"/>
    </defs>
    <g clip-path="url(#pb1340e149e)">
     <use style="fill:#8b4513;fill-opacity:0.7;stroke:#ffffff;stroke-opacity:0.7;" x="142.236287" xlink:href="#m8a1c630829" y="497.413938"/>
     <use style="fill:#8b4513;fill-opacity:0.7;stroke:#ffffff;stroke-opacity:0.7;" x="194.715467" xlink:href="#m8a1c630829" y="493.52578"/>
     <use style="fill:#8b4513;fill-opacity:0.7;stroke:#ffffff;stroke-opacity:0.7;" x="224.668213" xlink:href="#m8a1c630829" y="492.573578"/>
     <use style="fill:#8b4513;fill-opacity:0.7;stroke:#ffffff;stroke-opacity:0.7;" x="190.184418" xlink:href="#m8a1c630829" y="492.256178"/>
     <use style="fill:#8b4513;fill-opacity:0.7;stroke:#ffffff;stroke-opacity:0.7;" x="147.065594" xlink:href="#m8a1c630829" y="488.685421"/>
     <use style="fill:#8b4513;fill-opacity:0.7;stroke:#ffffff;stroke-opacity:0.7;" x="225.87946" xlink:href="#m8a1c630829" y="487.019068"/>
     <use style="fill:#8b4513;fill-opacity:0.7;stroke:#ffffff;stroke-opacity:0.7;" x="197.974918" xlink:href="#m8a1c630829" y="480.512356"/>
     <use style="fill:#8b4513;fill-opacity:0.7;stroke:#ffffff;stroke-opacity:0.7;" x="201.695203" xlink:href="#m8a1c630829" y="476.624198"/>
     <use style="fill:#8b4513;fill-opacity:0.7;stroke:#ffffff;stroke-opacity:0.7;" x="172.640812" xlink:href="#m8a1c630829" y="464.801026"/>
     <use style="fill:#8b4513;fill-opacity:0.7;stroke:#ffffff;stroke-opacity:0.7;" x="120.673568" xlink:href="#m8a1c630829" y="464.324925"/>
     <use style="fill:#8b4513;fill-opacity:0.7;stroke:#ffffff;stroke-opacity:0.7;" x="153.634116" xlink:href="#m8a1c630829" y="444.249337"/>
     <use style="fill:#8b4513;fill-opacity:0.7;stroke:#ffffff;stroke-opacity:0.7;" x="114.274808" xlink:href="#m8a1c630829" y="430.601112"/>
     <use style="fill:#8b4513;fill-opacity:0.7;stroke:#ffffff;stroke-opacity:0.7;" x="228.502267" xlink:href="#m8a1c630829" y="424.2531"/>
     <use style="fill:#8b4513;fill-opacity:0.7;stroke:#ffffff;stroke-opacity:0.7;" x="243.653796" xlink:href="#m8a1c630829" y="386.641129"/>
     <use style="fill:#8b4513;fill-opacity:0.7;stroke:#ffffff;stroke-opacity:0.7;" x="115.002848" xlink:href="#m8a1c630829" y="369.660197"/>
     <use style="fill:#8b4513;fill-opacity:0.7;stroke:#ffffff;stroke-opacity:0.7;" x="239.251356" xlink:href="#m8a1c630829" y="367.755793"/>
     <use style="fill:#8b4513;fill-opacity:0.7;stroke:#ffffff;stroke-opacity:0.7;" x="148.456361" xlink:href="#m8a1c630829" y="326.335015"/>
     <use style="fill:#8b4513;fill-opacity:0.7;stroke:#ffffff;stroke-opacity:0.7;" x="168.598024" xlink:href="#m8a1c630829" y="320.542454"/>
    </g>
   </g>
   <g id="matplotlib.axis_5">
    <g id="xtick_3">
     <g id="line2d_30">
      <g>
       <use style="stroke:#000000;stroke-width:0.8;" x="173.454545" xlink:href="#mb17232fe54" y="504"/>
      </g>
     </g>
     <g id="text_21">
      <!-- summer -->
      <defs>
       <path d="M 8.5 21.578125 
L 8.5 54.6875 
L 17.484375 54.6875 
L 17.484375 21.921875 
Q 17.484375 14.15625 20.5 10.265625 
Q 23.53125 6.390625 29.59375 6.390625 
Q 36.859375 6.390625 41.078125 11.03125 
Q 45.3125 15.671875 45.3125 23.6875 
L 45.3125 54.6875 
L 54.296875 54.6875 
L 54.296875 0 
L 45.3125 0 
L 45.3125 8.40625 
Q 42.046875 3.421875 37.71875 1 
Q 33.40625 -1.421875 27.6875 -1.421875 
Q 18.265625 -1.421875 13.375 4.4375 
Q 8.5 10.296875 8.5 21.578125 
z
M 31.109375 56 
z
" id="DejaVuSans-117"/>
      </defs>
      <g transform="translate(144.550014 521.637812)scale(0.14 -0.14)">
       <use xlink:href="#DejaVuSans-115"/>
       <use x="52.099609" xlink:href="#DejaVuSans-117"/>
       <use x="115.478516" xlink:href="#DejaVuSans-109"/>
       <use x="212.890625" xlink:href="#DejaVuSans-109"/>
       <use x="310.302734" xlink:href="#DejaVuSans-101"/>
       <use x="371.826172" xlink:href="#DejaVuSans-114"/>
      </g>
     </g>
    </g>
   </g>
   <g id="matplotlib.axis_6">
    <g id="ytick_16">
     <g id="line2d_31">
      <g>
       <use style="stroke:#000000;stroke-width:0.8;" x="72" xlink:href="#mb29e32f7cb" y="500.032493"/>
      </g>
     </g>
     <g id="text_22">
      <!-- 0.0 -->
      <g transform="translate(49.096875 503.831711)scale(0.1 -0.1)">
       <use xlink:href="#DejaVuSans-48"/>
       <use x="63.623047" xlink:href="#DejaVuSans-46"/>
       <use x="95.410156" xlink:href="#DejaVuSans-48"/>
      </g>
     </g>
    </g>
    <g id="ytick_17">
     <g id="line2d_32">
      <g>
       <use style="stroke:#000000;stroke-width:0.8;" x="72" xlink:href="#mb29e32f7cb" y="460.357418"/>
      </g>
     </g>
     <g id="text_23">
      <!-- 0.5 -->
      <g transform="translate(49.096875 464.156636)scale(0.1 -0.1)">
       <use xlink:href="#DejaVuSans-48"/>
       <use x="63.623047" xlink:href="#DejaVuSans-46"/>
       <use x="95.410156" xlink:href="#DejaVuSans-53"/>
      </g>
     </g>
    </g>
    <g id="ytick_18">
     <g id="line2d_33">
      <g>
       <use style="stroke:#000000;stroke-width:0.8;" x="72" xlink:href="#mb29e32f7cb" y="420.682343"/>
      </g>
     </g>
     <g id="text_24">
      <!-- 1.0 -->
      <g transform="translate(49.096875 424.481562)scale(0.1 -0.1)">
       <use xlink:href="#DejaVuSans-49"/>
       <use x="63.623047" xlink:href="#DejaVuSans-46"/>
       <use x="95.410156" xlink:href="#DejaVuSans-48"/>
      </g>
     </g>
    </g>
    <g id="ytick_19">
     <g id="line2d_34">
      <g>
       <use style="stroke:#000000;stroke-width:0.8;" x="72" xlink:href="#mb29e32f7cb" y="381.007268"/>
      </g>
     </g>
     <g id="text_25">
      <!-- 1.5 -->
      <g transform="translate(49.096875 384.806487)scale(0.1 -0.1)">
       <use xlink:href="#DejaVuSans-49"/>
       <use x="63.623047" xlink:href="#DejaVuSans-46"/>
       <use x="95.410156" xlink:href="#DejaVuSans-53"/>
      </g>
     </g>
    </g>
    <g id="ytick_20">
     <g id="line2d_35">
      <g>
       <use style="stroke:#000000;stroke-width:0.8;" x="72" xlink:href="#mb29e32f7cb" y="341.332193"/>
      </g>
     </g>
     <g id="text_26">
      <!-- 2.0 -->
      <g transform="translate(49.096875 345.131412)scale(0.1 -0.1)">
       <use xlink:href="#DejaVuSans-50"/>
       <use x="63.623047" xlink:href="#DejaVuSans-46"/>
       <use x="95.410156" xlink:href="#DejaVuSans-48"/>
      </g>
     </g>
    </g>
    <g id="text_27">
     <!-- Polystyrene per meter -->
     <g transform="translate(42.60125 478.2125)rotate(-90)scale(0.12 -0.12)">
      <use xlink:href="#DejaVuSans-80"/>
      <use x="60.255859" xlink:href="#DejaVuSans-111"/>
      <use x="121.4375" xlink:href="#DejaVuSans-108"/>
      <use x="149.220703" xlink:href="#DejaVuSans-121"/>
      <use x="208.400391" xlink:href="#DejaVuSans-115"/>
      <use x="260.5" xlink:href="#DejaVuSans-116"/>
      <use x="299.708984" xlink:href="#DejaVuSans-121"/>
      <use x="358.888672" xlink:href="#DejaVuSans-114"/>
      <use x="399.970703" xlink:href="#DejaVuSans-101"/>
      <use x="461.494141" xlink:href="#DejaVuSans-110"/>
      <use x="524.873047" xlink:href="#DejaVuSans-101"/>
      <use x="586.396484" xlink:href="#DejaVuSans-32"/>
      <use x="618.183594" xlink:href="#DejaVuSans-112"/>
      <use x="681.660156" xlink:href="#DejaVuSans-101"/>
      <use x="743.183594" xlink:href="#DejaVuSans-114"/>
      <use x="784.296875" xlink:href="#DejaVuSans-32"/>
      <use x="816.083984" xlink:href="#DejaVuSans-109"/>
      <use x="913.496094" xlink:href="#DejaVuSans-101"/>
      <use x="975.019531" xlink:href="#DejaVuSans-116"/>
      <use x="1014.228516" xlink:href="#DejaVuSans-101"/>
      <use x="1075.751953" xlink:href="#DejaVuSans-114"/>
     </g>
    </g>
   </g>
   <g id="line2d_36">
    <path clip-path="url(#pb1340e149e)" d="M 102.436364 488.268833 
L 244.472727 488.268833 
L 244.472727 396.044121 
L 102.436364 396.044121 
L 102.436364 488.268833 
" style="fill:none;stroke:#000000;stroke-linecap:square;"/>
   </g>
   <g id="line2d_37">
    <path clip-path="url(#pb1340e149e)" d="M 173.454545 488.268833 
L 173.454545 497.413938 
" style="fill:none;stroke:#000000;stroke-linecap:square;"/>
   </g>
   <g id="line2d_38">
    <path clip-path="url(#pb1340e149e)" d="M 173.454545 396.044121 
L 173.454545 320.542454 
" style="fill:none;stroke:#000000;stroke-linecap:square;"/>
   </g>
   <g id="line2d_39">
    <path clip-path="url(#pb1340e149e)" d="M 137.945455 497.413938 
L 208.963636 497.413938 
" style="fill:none;stroke:#000000;stroke-linecap:square;"/>
   </g>
   <g id="line2d_40">
    <path clip-path="url(#pb1340e149e)" d="M 137.945455 320.542454 
L 208.963636 320.542454 
" style="fill:none;stroke:#000000;stroke-linecap:square;"/>
   </g>
   <g id="line2d_41">
    <path clip-path="url(#pb1340e149e)" d="M 102.436364 464.562976 
L 244.472727 464.562976 
" style="fill:none;stroke:#ff7f0e;stroke-linecap:square;"/>
   </g>
   <g id="patch_13">
    <path d="M 72 504 
L 72 318.4 
" style="fill:none;stroke:#000000;stroke-linecap:square;stroke-linejoin:miter;stroke-width:0.8;"/>
   </g>
   <g id="patch_14">
    <path d="M 274.909091 504 
L 274.909091 318.4 
" style="fill:none;stroke:#000000;stroke-linecap:square;stroke-linejoin:miter;stroke-width:0.8;"/>
   </g>
   <g id="patch_15">
    <path d="M 72 504 
L 274.909091 504 
" style="fill:none;stroke:#000000;stroke-linecap:square;stroke-linejoin:miter;stroke-width:0.8;"/>
   </g>
   <g id="patch_16">
    <path d="M 72 318.4 
L 274.909091 318.4 
" style="fill:none;stroke:#000000;stroke-linecap:square;stroke-linejoin:miter;stroke-width:0.8;"/>
   </g>
   <g id="text_28">
    <!-- Jun, Jul, Aug: -->
    <g transform="translate(72 312.4)scale(0.14 -0.14)">
     <use xlink:href="#DejaVuSans-74"/>
     <use x="29.492188" xlink:href="#DejaVuSans-117"/>
     <use x="92.871094" xlink:href="#DejaVuSans-110"/>
     <use x="156.25" xlink:href="#DejaVuSans-44"/>
     <use x="188.037109" xlink:href="#DejaVuSans-32"/>
     <use x="219.824219" xlink:href="#DejaVuSans-74"/>
     <use x="249.316406" xlink:href="#DejaVuSans-117"/>
     <use x="312.695312" xlink:href="#DejaVuSans-108"/>
     <use x="340.478516" xlink:href="#DejaVuSans-44"/>
     <use x="372.265625" xlink:href="#DejaVuSans-32"/>
     <use x="404.052734" xlink:href="#DejaVuSans-65"/>
     <use x="472.460938" xlink:href="#DejaVuSans-117"/>
     <use x="535.839844" xlink:href="#DejaVuSans-103"/>
     <use x="599.316406" xlink:href="#DejaVuSans-58"/>
    </g>
   </g>
  </g>
  <g id="axes_4">
   <g id="patch_17">
    <path d="M 315.490909 504 
L 518.4 504 
L 518.4 318.4 
L 315.490909 318.4 
z
" style="fill:#ffffff;"/>
   </g>
   <g id="PathCollection_4">
    <defs>
     <path d="M 0 5 
C 1.326016 5 2.597899 4.473168 3.535534 3.535534 
C 4.473168 2.597899 5 1.326016 5 0 
C 5 -1.326016 4.473168 -2.597899 3.535534 -3.535534 
C 2.597899 -4.473168 1.326016 -5 0 -5 
C -1.326016 -5 -2.597899 -4.473168 -3.535534 -3.535534 
C -4.473168 -2.597899 -5 -1.326016 -5 0 
C -5 1.326016 -4.473168 2.597899 -3.535534 3.535534 
C -2.597899 4.473168 -1.326016 5 0 5 
z
" id="m2d1b127367" style="stroke:#ffffff;stroke-opacity:0.7;"/>
    </defs>
    <g clip-path="url(#p3fb6915d5a)">
     <use style="fill:#b8860b;fill-opacity:0.7;stroke:#ffffff;stroke-opacity:0.7;" x="373.614225" xlink:href="#m2d1b127367" y="495.887981"/>
     <use style="fill:#b8860b;fill-opacity:0.7;stroke:#ffffff;stroke-opacity:0.7;" x="430.350779" xlink:href="#m2d1b127367" y="494.160421"/>
     <use style="fill:#b8860b;fill-opacity:0.7;stroke:#ffffff;stroke-opacity:0.7;" x="412.458828" xlink:href="#m2d1b127367" y="494.160421"/>
     <use style="fill:#b8860b;fill-opacity:0.7;stroke:#ffffff;stroke-opacity:0.7;" x="419.77172" xlink:href="#m2d1b127367" y="494.010198"/>
     <use style="fill:#b8860b;fill-opacity:0.7;stroke:#ffffff;stroke-opacity:0.7;" x="388.372338" xlink:href="#m2d1b127367" y="489.127964"/>
     <use style="fill:#b8860b;fill-opacity:0.7;stroke:#ffffff;stroke-opacity:0.7;" x="368.235093" xlink:href="#m2d1b127367" y="487.475516"/>
     <use style="fill:#b8860b;fill-opacity:0.7;stroke:#ffffff;stroke-opacity:0.7;" x="405.870467" xlink:href="#m2d1b127367" y="487.475516"/>
     <use style="fill:#b8860b;fill-opacity:0.7;stroke:#ffffff;stroke-opacity:0.7;" x="476.727701" xlink:href="#m2d1b127367" y="484.170619"/>
     <use style="fill:#b8860b;fill-opacity:0.7;stroke:#ffffff;stroke-opacity:0.7;" x="380.6385" xlink:href="#m2d1b127367" y="481.466613"/>
     <use style="fill:#b8860b;fill-opacity:0.7;stroke:#ffffff;stroke-opacity:0.7;" x="360.37164" xlink:href="#m2d1b127367" y="469.824363"/>
     <use style="fill:#b8860b;fill-opacity:0.7;stroke:#ffffff;stroke-opacity:0.7;" x="426.88309" xlink:href="#m2d1b127367" y="465.167463"/>
     <use style="fill:#b8860b;fill-opacity:0.7;stroke:#ffffff;stroke-opacity:0.7;" x="373.898458" xlink:href="#m2d1b127367" y="458.482558"/>
     <use style="fill:#b8860b;fill-opacity:0.7;stroke:#ffffff;stroke-opacity:0.7;" x="357.378258" xlink:href="#m2d1b127367" y="457.506111"/>
     <use style="fill:#b8860b;fill-opacity:0.7;stroke:#ffffff;stroke-opacity:0.7;" x="471.663006" xlink:href="#m2d1b127367" y="451.422096"/>
     <use style="fill:#b8860b;fill-opacity:0.7;stroke:#ffffff;stroke-opacity:0.7;" x="410.930421" xlink:href="#m2d1b127367" y="439.329178"/>
     <use style="fill:#b8860b;fill-opacity:0.7;stroke:#ffffff;stroke-opacity:0.7;" x="481.98786" xlink:href="#m2d1b127367" y="325.911129"/>
     <use style="fill:#b8860b;fill-opacity:0.7;stroke:#ffffff;stroke-opacity:0.7;" x="438.526613" xlink:href="#m2d1b127367" y="308.259976"/>
    </g>
   </g>
   <g id="PathCollection_5">
    <defs>
     <path d="M 0 5.59017 
C 1.48253 5.59017 2.90454 5.001154 3.952847 3.952847 
C 5.001154 2.90454 5.59017 1.48253 5.59017 0 
C 5.59017 -1.48253 5.001154 -2.90454 3.952847 -3.952847 
C 2.90454 -5.001154 1.48253 -5.59017 0 -5.59017 
C -1.48253 -5.59017 -2.90454 -5.001154 -3.952847 -3.952847 
C -5.001154 -2.90454 -5.59017 -1.48253 -5.59017 0 
C -5.59017 1.48253 -5.001154 2.90454 -3.952847 3.952847 
C -2.90454 5.001154 -1.48253 5.59017 0 5.59017 
z
" id="m06091ec2d0" style="stroke:#ff0000;"/>
    </defs>
    <g clip-path="url(#p3fb6915d5a)">
     <use style="fill:#ff0000;stroke:#ff0000;" x="449.947609" xlink:href="#m06091ec2d0" y="325.009794"/>
    </g>
   </g>
   <g id="matplotlib.axis_7">
    <g id="xtick_4">
     <g id="line2d_42">
      <g>
       <use style="stroke:#000000;stroke-width:0.8;" x="416.945455" xlink:href="#mb17232fe54" y="504"/>
      </g>
     </g>
     <g id="text_29">
      <!-- fall -->
      <defs>
       <path d="M 37.109375 75.984375 
L 37.109375 68.5 
L 28.515625 68.5 
Q 23.6875 68.5 21.796875 66.546875 
Q 19.921875 64.59375 19.921875 59.515625 
L 19.921875 54.6875 
L 34.71875 54.6875 
L 34.71875 47.703125 
L 19.921875 47.703125 
L 19.921875 0 
L 10.890625 0 
L 10.890625 47.703125 
L 2.296875 47.703125 
L 2.296875 54.6875 
L 10.890625 54.6875 
L 10.890625 58.5 
Q 10.890625 67.625 15.140625 71.796875 
Q 19.390625 75.984375 28.609375 75.984375 
z
" id="DejaVuSans-102"/>
      </defs>
      <g transform="translate(406.302173 521.637812)scale(0.14 -0.14)">
       <use xlink:href="#DejaVuSans-102"/>
       <use x="35.205078" xlink:href="#DejaVuSans-97"/>
       <use x="96.484375" xlink:href="#DejaVuSans-108"/>
       <use x="124.267578" xlink:href="#DejaVuSans-108"/>
      </g>
     </g>
    </g>
   </g>
   <g id="matplotlib.axis_8">
    <g id="ytick_21">
     <g id="line2d_43">
      <g>
       <use style="stroke:#000000;stroke-width:0.8;" x="315.490909" xlink:href="#mb29e32f7cb" y="500.244435"/>
      </g>
     </g>
     <g id="text_30">
      <!-- 0.0 -->
      <g transform="translate(292.587784 504.043654)scale(0.1 -0.1)">
       <use xlink:href="#DejaVuSans-48"/>
       <use x="63.623047" xlink:href="#DejaVuSans-46"/>
       <use x="95.410156" xlink:href="#DejaVuSans-48"/>
      </g>
     </g>
    </g>
    <g id="ytick_22">
     <g id="line2d_44">
      <g>
       <use style="stroke:#000000;stroke-width:0.8;" x="315.490909" xlink:href="#mb29e32f7cb" y="462.68879"/>
      </g>
     </g>
     <g id="text_31">
      <!-- 0.5 -->
      <g transform="translate(292.587784 466.488009)scale(0.1 -0.1)">
       <use xlink:href="#DejaVuSans-48"/>
       <use x="63.623047" xlink:href="#DejaVuSans-46"/>
       <use x="95.410156" xlink:href="#DejaVuSans-53"/>
      </g>
     </g>
    </g>
    <g id="ytick_23">
     <g id="line2d_45">
      <g>
       <use style="stroke:#000000;stroke-width:0.8;" x="315.490909" xlink:href="#mb29e32f7cb" y="425.133144"/>
      </g>
     </g>
     <g id="text_32">
      <!-- 1.0 -->
      <g transform="translate(292.587784 428.932363)scale(0.1 -0.1)">
       <use xlink:href="#DejaVuSans-49"/>
       <use x="63.623047" xlink:href="#DejaVuSans-46"/>
       <use x="95.410156" xlink:href="#DejaVuSans-48"/>
      </g>
     </g>
    </g>
    <g id="ytick_24">
     <g id="line2d_46">
      <g>
       <use style="stroke:#000000;stroke-width:0.8;" x="315.490909" xlink:href="#mb29e32f7cb" y="387.577499"/>
      </g>
     </g>
     <g id="text_33">
      <!-- 1.5 -->
      <g transform="translate(292.587784 391.376718)scale(0.1 -0.1)">
       <use xlink:href="#DejaVuSans-49"/>
       <use x="63.623047" xlink:href="#DejaVuSans-46"/>
       <use x="95.410156" xlink:href="#DejaVuSans-53"/>
      </g>
     </g>
    </g>
    <g id="ytick_25">
     <g id="line2d_47">
      <g>
       <use style="stroke:#000000;stroke-width:0.8;" x="315.490909" xlink:href="#mb29e32f7cb" y="350.021854"/>
      </g>
     </g>
     <g id="text_34">
      <!-- 2.0 -->
      <g transform="translate(292.587784 353.821072)scale(0.1 -0.1)">
       <use xlink:href="#DejaVuSans-50"/>
       <use x="63.623047" xlink:href="#DejaVuSans-46"/>
       <use x="95.410156" xlink:href="#DejaVuSans-48"/>
      </g>
     </g>
    </g>
   </g>
   <g id="line2d_48">
    <path clip-path="url(#p3fb6915d5a)" d="M 345.927273 489.127964 
L 487.963636 489.127964 
L 487.963636 457.506111 
L 345.927273 457.506111 
L 345.927273 489.127964 
" style="fill:none;stroke:#000000;stroke-linecap:square;"/>
   </g>
   <g id="line2d_49">
    <path clip-path="url(#p3fb6915d5a)" d="M 416.945455 489.127964 
L 416.945455 495.887981 
" style="fill:none;stroke:#000000;stroke-linecap:square;"/>
   </g>
   <g id="line2d_50">
    <path clip-path="url(#p3fb6915d5a)" d="M 416.945455 457.506111 
L 416.945455 439.329178 
" style="fill:none;stroke:#000000;stroke-linecap:square;"/>
   </g>
   <g id="line2d_51">
    <path clip-path="url(#p3fb6915d5a)" d="M 381.436364 495.887981 
L 452.454545 495.887981 
" style="fill:none;stroke:#000000;stroke-linecap:square;"/>
   </g>
   <g id="line2d_52">
    <path clip-path="url(#p3fb6915d5a)" d="M 381.436364 439.329178 
L 452.454545 439.329178 
" style="fill:none;stroke:#000000;stroke-linecap:square;"/>
   </g>
   <g id="line2d_53">
    <path clip-path="url(#p3fb6915d5a)" d="M 345.927273 481.466613 
L 487.963636 481.466613 
" style="fill:none;stroke:#ff7f0e;stroke-linecap:square;"/>
   </g>
   <g id="patch_18">
    <path d="M 315.490909 504 
L 315.490909 318.4 
" style="fill:none;stroke:#000000;stroke-linecap:square;stroke-linejoin:miter;stroke-width:0.8;"/>
   </g>
   <g id="patch_19">
    <path d="M 518.4 504 
L 518.4 318.4 
" style="fill:none;stroke:#000000;stroke-linecap:square;stroke-linejoin:miter;stroke-width:0.8;"/>
   </g>
   <g id="patch_20">
    <path d="M 315.490909 504 
L 518.4 504 
" style="fill:none;stroke:#000000;stroke-linecap:square;stroke-linejoin:miter;stroke-width:0.8;"/>
   </g>
   <g id="patch_21">
    <path d="M 315.490909 318.4 
L 518.4 318.4 
" style="fill:none;stroke:#000000;stroke-linecap:square;stroke-linejoin:miter;stroke-width:0.8;"/>
   </g>
   <g id="text_35">
    <!-- Sep, Oct, Nov: -->
    <defs>
     <path d="M 53.515625 70.515625 
L 53.515625 60.890625 
Q 47.90625 63.578125 42.921875 64.890625 
Q 37.9375 66.21875 33.296875 66.21875 
Q 25.25 66.21875 20.875 63.09375 
Q 16.5 59.96875 16.5 54.203125 
Q 16.5 49.359375 19.40625 46.890625 
Q 22.3125 44.4375 30.421875 42.921875 
L 36.375 41.703125 
Q 47.40625 39.59375 52.65625 34.296875 
Q 57.90625 29 57.90625 20.125 
Q 57.90625 9.515625 50.796875 4.046875 
Q 43.703125 -1.421875 29.984375 -1.421875 
Q 24.8125 -1.421875 18.96875 -0.25 
Q 13.140625 0.921875 6.890625 3.21875 
L 6.890625 13.375 
Q 12.890625 10.015625 18.65625 8.296875 
Q 24.421875 6.59375 29.984375 6.59375 
Q 38.421875 6.59375 43.015625 9.90625 
Q 47.609375 13.234375 47.609375 19.390625 
Q 47.609375 24.75 44.3125 27.78125 
Q 41.015625 30.8125 33.5 32.328125 
L 27.484375 33.5 
Q 16.453125 35.6875 11.515625 40.375 
Q 6.59375 45.0625 6.59375 53.421875 
Q 6.59375 63.09375 13.40625 68.65625 
Q 20.21875 74.21875 32.171875 74.21875 
Q 37.3125 74.21875 42.625 73.28125 
Q 47.953125 72.359375 53.515625 70.515625 
z
" id="DejaVuSans-83"/>
     <path d="M 39.40625 66.21875 
Q 28.65625 66.21875 22.328125 58.203125 
Q 16.015625 50.203125 16.015625 36.375 
Q 16.015625 22.609375 22.328125 14.59375 
Q 28.65625 6.59375 39.40625 6.59375 
Q 50.140625 6.59375 56.421875 14.59375 
Q 62.703125 22.609375 62.703125 36.375 
Q 62.703125 50.203125 56.421875 58.203125 
Q 50.140625 66.21875 39.40625 66.21875 
z
M 39.40625 74.21875 
Q 54.734375 74.21875 63.90625 63.9375 
Q 73.09375 53.65625 73.09375 36.375 
Q 73.09375 19.140625 63.90625 8.859375 
Q 54.734375 -1.421875 39.40625 -1.421875 
Q 24.03125 -1.421875 14.8125 8.828125 
Q 5.609375 19.09375 5.609375 36.375 
Q 5.609375 53.65625 14.8125 63.9375 
Q 24.03125 74.21875 39.40625 74.21875 
z
" id="DejaVuSans-79"/>
     <path d="M 9.8125 72.90625 
L 23.09375 72.90625 
L 55.421875 11.921875 
L 55.421875 72.90625 
L 64.984375 72.90625 
L 64.984375 0 
L 51.703125 0 
L 19.390625 60.984375 
L 19.390625 0 
L 9.8125 0 
z
" id="DejaVuSans-78"/>
     <path d="M 2.984375 54.6875 
L 12.5 54.6875 
L 29.59375 8.796875 
L 46.6875 54.6875 
L 56.203125 54.6875 
L 35.6875 0 
L 23.484375 0 
z
" id="DejaVuSans-118"/>
    </defs>
    <g transform="translate(315.490909 312.4)scale(0.14 -0.14)">
     <use xlink:href="#DejaVuSans-83"/>
     <use x="63.476562" xlink:href="#DejaVuSans-101"/>
     <use x="125" xlink:href="#DejaVuSans-112"/>
     <use x="188.476562" xlink:href="#DejaVuSans-44"/>
     <use x="220.263672" xlink:href="#DejaVuSans-32"/>
     <use x="252.050781" xlink:href="#DejaVuSans-79"/>
     <use x="330.761719" xlink:href="#DejaVuSans-99"/>
     <use x="385.742188" xlink:href="#DejaVuSans-116"/>
     <use x="424.951172" xlink:href="#DejaVuSans-44"/>
     <use x="456.738281" xlink:href="#DejaVuSans-32"/>
     <use x="488.525391" xlink:href="#DejaVuSans-78"/>
     <use x="563.330078" xlink:href="#DejaVuSans-111"/>
     <use x="624.511719" xlink:href="#DejaVuSans-118"/>
     <use x="683.613281" xlink:href="#DejaVuSans-58"/>
    </g>
   </g>
   <g id="legend_1">
    <g id="patch_22">
     <path d="M 322.490909 355.75625 
L 428.812784 355.75625 
Q 430.812784 355.75625 430.812784 353.75625 
L 430.812784 325.4 
Q 430.812784 323.4 428.812784 323.4 
L 322.490909 323.4 
Q 320.490909 323.4 320.490909 325.4 
L 320.490909 353.75625 
Q 320.490909 355.75625 322.490909 355.75625 
z
" style="fill:#ffffff;opacity:0.8;stroke:#cccccc;stroke-linejoin:miter;"/>
    </g>
    <g id="PathCollection_6">
     <g>
      <use style="fill:#b8860b;fill-opacity:0.7;stroke:#ffffff;stroke-opacity:0.7;" x="334.490909" xlink:href="#m2d1b127367" y="332.373437"/>
     </g>
    </g>
    <g id="text_36">
     <!-- Polystyrene -->
     <g transform="translate(352.490909 334.998437)scale(0.1 -0.1)">
      <use xlink:href="#DejaVuSans-80"/>
      <use x="60.255859" xlink:href="#DejaVuSans-111"/>
      <use x="121.4375" xlink:href="#DejaVuSans-108"/>
      <use x="149.220703" xlink:href="#DejaVuSans-121"/>
      <use x="208.400391" xlink:href="#DejaVuSans-115"/>
      <use x="260.5" xlink:href="#DejaVuSans-116"/>
      <use x="299.708984" xlink:href="#DejaVuSans-121"/>
      <use x="358.888672" xlink:href="#DejaVuSans-114"/>
      <use x="399.970703" xlink:href="#DejaVuSans-101"/>
      <use x="461.494141" xlink:href="#DejaVuSans-110"/>
      <use x="524.873047" xlink:href="#DejaVuSans-101"/>
     </g>
    </g>
    <g id="PathCollection_7">
     <g>
      <use style="fill:#ff0000;stroke:#ff0000;" x="334.490909" xlink:href="#m06091ec2d0" y="347.051562"/>
     </g>
    </g>
    <g id="text_37">
     <!-- Day of interest -->
     <g transform="translate(352.490909 349.676562)scale(0.1 -0.1)">
      <use xlink:href="#DejaVuSans-68"/>
      <use x="77.001953" xlink:href="#DejaVuSans-97"/>
      <use x="138.28125" xlink:href="#DejaVuSans-121"/>
      <use x="197.460938" xlink:href="#DejaVuSans-32"/>
      <use x="229.248047" xlink:href="#DejaVuSans-111"/>
      <use x="290.429688" xlink:href="#DejaVuSans-102"/>
      <use x="325.634766" xlink:href="#DejaVuSans-32"/>
      <use x="357.421875" xlink:href="#DejaVuSans-105"/>
      <use x="385.205078" xlink:href="#DejaVuSans-110"/>
      <use x="448.583984" xlink:href="#DejaVuSans-116"/>
      <use x="487.792969" xlink:href="#DejaVuSans-101"/>
      <use x="549.316406" xlink:href="#DejaVuSans-114"/>
      <use x="590.398438" xlink:href="#DejaVuSans-101"/>
      <use x="651.921875" xlink:href="#DejaVuSans-115"/>
      <use x="704.021484" xlink:href="#DejaVuSans-116"/>
     </g>
    </g>
   </g>
  </g>
  <g id="text_38">
   <!-- Polystyrene, all locations 2015-2018 Lake Geneva -->
   <defs>
    <path d="M 4.890625 31.390625 
L 31.203125 31.390625 
L 31.203125 23.390625 
L 4.890625 23.390625 
z
" id="DejaVuSans-45"/>
    <path d="M 31.78125 34.625 
Q 24.75 34.625 20.71875 30.859375 
Q 16.703125 27.09375 16.703125 20.515625 
Q 16.703125 13.921875 20.71875 10.15625 
Q 24.75 6.390625 31.78125 6.390625 
Q 38.8125 6.390625 42.859375 10.171875 
Q 46.921875 13.96875 46.921875 20.515625 
Q 46.921875 27.09375 42.890625 30.859375 
Q 38.875 34.625 31.78125 34.625 
z
M 21.921875 38.8125 
Q 15.578125 40.375 12.03125 44.71875 
Q 8.5 49.078125 8.5 55.328125 
Q 8.5 64.0625 14.71875 69.140625 
Q 20.953125 74.21875 31.78125 74.21875 
Q 42.671875 74.21875 48.875 69.140625 
Q 55.078125 64.0625 55.078125 55.328125 
Q 55.078125 49.078125 51.53125 44.71875 
Q 48 40.375 41.703125 38.8125 
Q 48.828125 37.15625 52.796875 32.3125 
Q 56.78125 27.484375 56.78125 20.515625 
Q 56.78125 9.90625 50.3125 4.234375 
Q 43.84375 -1.421875 31.78125 -1.421875 
Q 19.734375 -1.421875 13.25 4.234375 
Q 6.78125 9.90625 6.78125 20.515625 
Q 6.78125 27.484375 10.78125 32.3125 
Q 14.796875 37.15625 21.921875 38.8125 
z
M 18.3125 54.390625 
Q 18.3125 48.734375 21.84375 45.5625 
Q 25.390625 42.390625 31.78125 42.390625 
Q 38.140625 42.390625 41.71875 45.5625 
Q 45.3125 48.734375 45.3125 54.390625 
Q 45.3125 60.0625 41.71875 63.234375 
Q 38.140625 66.40625 31.78125 66.40625 
Q 25.390625 66.40625 21.84375 63.234375 
Q 18.3125 60.0625 18.3125 54.390625 
z
" id="DejaVuSans-56"/>
    <path d="M 9.8125 72.90625 
L 19.671875 72.90625 
L 19.671875 8.296875 
L 55.171875 8.296875 
L 55.171875 0 
L 9.8125 0 
z
" id="DejaVuSans-76"/>
    <path d="M 9.078125 75.984375 
L 18.109375 75.984375 
L 18.109375 31.109375 
L 44.921875 54.6875 
L 56.390625 54.6875 
L 27.390625 29.109375 
L 57.625 0 
L 45.90625 0 
L 18.109375 26.703125 
L 18.109375 0 
L 9.078125 0 
z
" id="DejaVuSans-107"/>
    <path d="M 59.515625 10.40625 
L 59.515625 29.984375 
L 43.40625 29.984375 
L 43.40625 38.09375 
L 69.28125 38.09375 
L 69.28125 6.78125 
Q 63.578125 2.734375 56.6875 0.65625 
Q 49.8125 -1.421875 42 -1.421875 
Q 24.90625 -1.421875 15.25 8.5625 
Q 5.609375 18.5625 5.609375 36.375 
Q 5.609375 54.25 15.25 64.234375 
Q 24.90625 74.21875 42 74.21875 
Q 49.125 74.21875 55.546875 72.453125 
Q 61.96875 70.703125 67.390625 67.28125 
L 67.390625 56.78125 
Q 61.921875 61.421875 55.765625 63.765625 
Q 49.609375 66.109375 42.828125 66.109375 
Q 29.4375 66.109375 22.71875 58.640625 
Q 16.015625 51.171875 16.015625 36.375 
Q 16.015625 21.625 22.71875 14.15625 
Q 29.4375 6.6875 42.828125 6.6875 
Q 48.046875 6.6875 52.140625 7.59375 
Q 56.25 8.5 59.515625 10.40625 
z
" id="DejaVuSans-71"/>
   </defs>
   <g transform="translate(112.392969 22.157812)scale(0.14 -0.14)">
    <use xlink:href="#DejaVuSans-80"/>
    <use x="60.255859" xlink:href="#DejaVuSans-111"/>
    <use x="121.4375" xlink:href="#DejaVuSans-108"/>
    <use x="149.220703" xlink:href="#DejaVuSans-121"/>
    <use x="208.400391" xlink:href="#DejaVuSans-115"/>
    <use x="260.5" xlink:href="#DejaVuSans-116"/>
    <use x="299.708984" xlink:href="#DejaVuSans-121"/>
    <use x="358.888672" xlink:href="#DejaVuSans-114"/>
    <use x="399.970703" xlink:href="#DejaVuSans-101"/>
    <use x="461.494141" xlink:href="#DejaVuSans-110"/>
    <use x="524.873047" xlink:href="#DejaVuSans-101"/>
    <use x="586.396484" xlink:href="#DejaVuSans-44"/>
    <use x="618.183594" xlink:href="#DejaVuSans-32"/>
    <use x="649.970703" xlink:href="#DejaVuSans-97"/>
    <use x="711.25" xlink:href="#DejaVuSans-108"/>
    <use x="739.033203" xlink:href="#DejaVuSans-108"/>
    <use x="766.816406" xlink:href="#DejaVuSans-32"/>
    <use x="798.603516" xlink:href="#DejaVuSans-108"/>
    <use x="826.386719" xlink:href="#DejaVuSans-111"/>
    <use x="887.568359" xlink:href="#DejaVuSans-99"/>
    <use x="942.548828" xlink:href="#DejaVuSans-97"/>
    <use x="1003.828125" xlink:href="#DejaVuSans-116"/>
    <use x="1043.037109" xlink:href="#DejaVuSans-105"/>
    <use x="1070.820312" xlink:href="#DejaVuSans-111"/>
    <use x="1132.001953" xlink:href="#DejaVuSans-110"/>
    <use x="1195.380859" xlink:href="#DejaVuSans-115"/>
    <use x="1247.480469" xlink:href="#DejaVuSans-32"/>
    <use x="1279.267578" xlink:href="#DejaVuSans-50"/>
    <use x="1342.890625" xlink:href="#DejaVuSans-48"/>
    <use x="1406.513672" xlink:href="#DejaVuSans-49"/>
    <use x="1470.136719" xlink:href="#DejaVuSans-53"/>
    <use x="1533.759766" xlink:href="#DejaVuSans-45"/>
    <use x="1569.84375" xlink:href="#DejaVuSans-50"/>
    <use x="1633.466797" xlink:href="#DejaVuSans-48"/>
    <use x="1697.089844" xlink:href="#DejaVuSans-49"/>
    <use x="1760.712891" xlink:href="#DejaVuSans-56"/>
    <use x="1824.335938" xlink:href="#DejaVuSans-32"/>
    <use x="1856.123047" xlink:href="#DejaVuSans-76"/>
    <use x="1911.835938" xlink:href="#DejaVuSans-97"/>
    <use x="1973.115234" xlink:href="#DejaVuSans-107"/>
    <use x="2030.978516" xlink:href="#DejaVuSans-101"/>
    <use x="2092.501953" xlink:href="#DejaVuSans-32"/>
    <use x="2124.289062" xlink:href="#DejaVuSans-71"/>
    <use x="2201.779297" xlink:href="#DejaVuSans-101"/>
    <use x="2263.302734" xlink:href="#DejaVuSans-110"/>
    <use x="2326.681641" xlink:href="#DejaVuSans-101"/>
    <use x="2388.205078" xlink:href="#DejaVuSans-118"/>
    <use x="2447.384766" xlink:href="#DejaVuSans-97"/>
   </g>
   <!-- Grouped by seasons of the year, n=110 -->
   <defs>
    <path d="M 45.40625 46.390625 
L 45.40625 75.984375 
L 54.390625 75.984375 
L 54.390625 0 
L 45.40625 0 
L 45.40625 8.203125 
Q 42.578125 3.328125 38.25 0.953125 
Q 33.9375 -1.421875 27.875 -1.421875 
Q 17.96875 -1.421875 11.734375 6.484375 
Q 5.515625 14.40625 5.515625 27.296875 
Q 5.515625 40.1875 11.734375 48.09375 
Q 17.96875 56 27.875 56 
Q 33.9375 56 38.25 53.625 
Q 42.578125 51.265625 45.40625 46.390625 
z
M 14.796875 27.296875 
Q 14.796875 17.390625 18.875 11.75 
Q 22.953125 6.109375 30.078125 6.109375 
Q 37.203125 6.109375 41.296875 11.75 
Q 45.40625 17.390625 45.40625 27.296875 
Q 45.40625 37.203125 41.296875 42.84375 
Q 37.203125 48.484375 30.078125 48.484375 
Q 22.953125 48.484375 18.875 42.84375 
Q 14.796875 37.203125 14.796875 27.296875 
z
" id="DejaVuSans-100"/>
    <path d="M 54.890625 33.015625 
L 54.890625 0 
L 45.90625 0 
L 45.90625 32.71875 
Q 45.90625 40.484375 42.875 44.328125 
Q 39.84375 48.1875 33.796875 48.1875 
Q 26.515625 48.1875 22.3125 43.546875 
Q 18.109375 38.921875 18.109375 30.90625 
L 18.109375 0 
L 9.078125 0 
L 9.078125 75.984375 
L 18.109375 75.984375 
L 18.109375 46.1875 
Q 21.34375 51.125 25.703125 53.5625 
Q 30.078125 56 35.796875 56 
Q 45.21875 56 50.046875 50.171875 
Q 54.890625 44.34375 54.890625 33.015625 
z
" id="DejaVuSans-104"/>
    <path d="M 10.59375 45.40625 
L 73.1875 45.40625 
L 73.1875 37.203125 
L 10.59375 37.203125 
z
M 10.59375 25.484375 
L 73.1875 25.484375 
L 73.1875 17.1875 
L 10.59375 17.1875 
z
" id="DejaVuSans-61"/>
   </defs>
   <g transform="translate(147.854531 41.026094)scale(0.14 -0.14)">
    <use xlink:href="#DejaVuSans-71"/>
    <use x="77.490234" xlink:href="#DejaVuSans-114"/>
    <use x="118.572266" xlink:href="#DejaVuSans-111"/>
    <use x="179.753906" xlink:href="#DejaVuSans-117"/>
    <use x="243.132812" xlink:href="#DejaVuSans-112"/>
    <use x="306.609375" xlink:href="#DejaVuSans-101"/>
    <use x="368.132812" xlink:href="#DejaVuSans-100"/>
    <use x="431.609375" xlink:href="#DejaVuSans-32"/>
    <use x="463.396484" xlink:href="#DejaVuSans-98"/>
    <use x="526.873047" xlink:href="#DejaVuSans-121"/>
    <use x="586.052734" xlink:href="#DejaVuSans-32"/>
    <use x="617.839844" xlink:href="#DejaVuSans-115"/>
    <use x="669.939453" xlink:href="#DejaVuSans-101"/>
    <use x="731.462891" xlink:href="#DejaVuSans-97"/>
    <use x="792.742188" xlink:href="#DejaVuSans-115"/>
    <use x="844.841797" xlink:href="#DejaVuSans-111"/>
    <use x="906.023438" xlink:href="#DejaVuSans-110"/>
    <use x="969.402344" xlink:href="#DejaVuSans-115"/>
    <use x="1021.501953" xlink:href="#DejaVuSans-32"/>
    <use x="1053.289062" xlink:href="#DejaVuSans-111"/>
    <use x="1114.470703" xlink:href="#DejaVuSans-102"/>
    <use x="1149.675781" xlink:href="#DejaVuSans-32"/>
    <use x="1181.462891" xlink:href="#DejaVuSans-116"/>
    <use x="1220.671875" xlink:href="#DejaVuSans-104"/>
    <use x="1284.050781" xlink:href="#DejaVuSans-101"/>
    <use x="1345.574219" xlink:href="#DejaVuSans-32"/>
    <use x="1377.361328" xlink:href="#DejaVuSans-121"/>
    <use x="1436.541016" xlink:href="#DejaVuSans-101"/>
    <use x="1498.064453" xlink:href="#DejaVuSans-97"/>
    <use x="1559.34375" xlink:href="#DejaVuSans-114"/>
    <use x="1600.457031" xlink:href="#DejaVuSans-44"/>
    <use x="1632.244141" xlink:href="#DejaVuSans-32"/>
    <use x="1664.03125" xlink:href="#DejaVuSans-110"/>
    <use x="1727.410156" xlink:href="#DejaVuSans-61"/>
    <use x="1811.199219" xlink:href="#DejaVuSans-49"/>
    <use x="1874.822266" xlink:href="#DejaVuSans-49"/>
    <use x="1938.445312" xlink:href="#DejaVuSans-48"/>
   </g>
   <!--  -->
   <g transform="translate(288 59.894375)scale(0.14 -0.14)"/>
  </g>
 </g>
 <defs>
  <clipPath id="pc4b310cac5">
   <rect height="185.6" width="202.909091" x="72" y="86.4"/>
  </clipPath>
  <clipPath id="p744adaa76e">
   <rect height="185.6" width="202.909091" x="315.490909" y="86.4"/>
  </clipPath>
  <clipPath id="pb1340e149e">
   <rect height="185.6" width="202.909091" x="72" y="318.4"/>
  </clipPath>
  <clipPath id="p3fb6915d5a">
   <rect height="185.6" width="202.909091" x="315.490909" y="318.4"/>
  </clipPath>
 </defs>
</svg>
