<?xml version="1.0" encoding="utf-8" standalone="no"?>
<!DOCTYPE svg PUBLIC "-//W3C//DTD SVG 1.1//EN"
  "http://www.w3.org/Graphics/SVG/1.1/DTD/svg11.dtd">
<!-- Created with matplotlib (https://matplotlib.org/) -->
<svg height="576pt" version="1.1" viewBox="0 0 576 576" width="576pt" xmlns="http://www.w3.org/2000/svg" xmlns:xlink="http://www.w3.org/1999/xlink">
 <defs>
  <style type="text/css">
*{stroke-linecap:butt;stroke-linejoin:round;}
  </style>
 </defs>
 <g id="figure_1">
  <g id="patch_1">
   <path d="M 0 576 
L 576 576 
L 576 0 
L 0 0 
z
" style="fill:#ffffff;"/>
  </g>
  <g id="axes_1">
   <g id="patch_2">
    <path d="M 72 272 
L 274.909091 272 
L 274.909091 86.4 
L 72 86.4 
z
" style="fill:#ffffff;"/>
   </g>
   <g id="PathCollection_1">
    <defs>
     <path d="M 0 5 
C 1.326016 5 2.597899 4.473168 3.535534 3.535534 
C 4.473168 2.597899 5 1.326016 5 0 
C 5 -1.326016 4.473168 -2.597899 3.535534 -3.535534 
C 2.597899 -4.473168 1.326016 -5 0 -5 
C -1.326016 -5 -2.597899 -4.473168 -3.535534 -3.535534 
C -4.473168 -2.597899 -5 -1.326016 -5 0 
C -5 1.326016 -4.473168 2.597899 -3.535534 3.535534 
C -2.597899 4.473168 -1.326016 5 0 5 
z
" id="m1627d7906f" style="stroke:#ffffff;stroke-opacity:0.7;"/>
    </defs>
    <g clip-path="url(#p369428117e)">
     <use style="fill:#00ffff;fill-opacity:0.7;stroke:#ffffff;stroke-opacity:0.7;" x="220.243635" xlink:href="#m1627d7906f" y="271.118993"/>
     <use style="fill:#00ffff;fill-opacity:0.7;stroke:#ffffff;stroke-opacity:0.7;" x="157.510525" xlink:href="#m1627d7906f" y="270.15198"/>
     <use style="fill:#00ffff;fill-opacity:0.7;stroke:#ffffff;stroke-opacity:0.7;" x="212.897324" xlink:href="#m1627d7906f" y="269.623974"/>
     <use style="fill:#00ffff;fill-opacity:0.7;stroke:#ffffff;stroke-opacity:0.7;" x="103.046867" xlink:href="#m1627d7906f" y="266.90467"/>
     <use style="fill:#00ffff;fill-opacity:0.7;stroke:#ffffff;stroke-opacity:0.7;" x="133.726741" xlink:href="#m1627d7906f" y="266.65712"/>
     <use style="fill:#00ffff;fill-opacity:0.7;stroke:#ffffff;stroke-opacity:0.7;" x="155.440988" xlink:href="#m1627d7906f" y="264.661019"/>
     <use style="fill:#00ffff;fill-opacity:0.7;stroke:#ffffff;stroke-opacity:0.7;" x="217.978635" xlink:href="#m1627d7906f" y="264.520417"/>
     <use style="fill:#00ffff;fill-opacity:0.7;stroke:#ffffff;stroke-opacity:0.7;" x="103.375717" xlink:href="#m1627d7906f" y="262.803277"/>
     <use style="fill:#00ffff;fill-opacity:0.7;stroke:#ffffff;stroke-opacity:0.7;" x="120.759084" xlink:href="#m1627d7906f" y="260.350219"/>
     <use style="fill:#00ffff;fill-opacity:0.7;stroke:#ffffff;stroke-opacity:0.7;" x="110.739012" xlink:href="#m1627d7906f" y="258.02131"/>
     <use style="fill:#00ffff;fill-opacity:0.7;stroke:#ffffff;stroke-opacity:0.7;" x="213.848996" xlink:href="#m1627d7906f" y="257.582302"/>
     <use style="fill:#00ffff;fill-opacity:0.7;stroke:#ffffff;stroke-opacity:0.7;" x="156.935922" xlink:href="#m1627d7906f" y="256.172542"/>
     <use style="fill:#00ffff;fill-opacity:0.7;stroke:#ffffff;stroke-opacity:0.7;" x="195.36476" xlink:href="#m1627d7906f" y="254.343219"/>
     <use style="fill:#00ffff;fill-opacity:0.7;stroke:#ffffff;stroke-opacity:0.7;" x="161.505385" xlink:href="#m1627d7906f" y="254.219818"/>
     <use style="fill:#00ffff;fill-opacity:0.7;stroke:#ffffff;stroke-opacity:0.7;" x="163.316579" xlink:href="#m1627d7906f" y="253.794272"/>
     <use style="fill:#00ffff;fill-opacity:0.7;stroke:#ffffff;stroke-opacity:0.7;" x="168.401851" xlink:href="#m1627d7906f" y="252.994037"/>
     <use style="fill:#00ffff;fill-opacity:0.7;stroke:#ffffff;stroke-opacity:0.7;" x="143.429677" xlink:href="#m1627d7906f" y="252.658237"/>
     <use style="fill:#00ffff;fill-opacity:0.7;stroke:#ffffff;stroke-opacity:0.7;" x="160.665883" xlink:href="#m1627d7906f" y="251.988882"/>
     <use style="fill:#00ffff;fill-opacity:0.7;stroke:#ffffff;stroke-opacity:0.7;" x="239.046306" xlink:href="#m1627d7906f" y="251.697955"/>
     <use style="fill:#00ffff;fill-opacity:0.7;stroke:#ffffff;stroke-opacity:0.7;" x="138.530985" xlink:href="#m1627d7906f" y="251.679258"/>
     <use style="fill:#00ffff;fill-opacity:0.7;stroke:#ffffff;stroke-opacity:0.7;" x="116.462829" xlink:href="#m1627d7906f" y="251.537908"/>
     <use style="fill:#00ffff;fill-opacity:0.7;stroke:#ffffff;stroke-opacity:0.7;" x="123.584203" xlink:href="#m1627d7906f" y="251.255956"/>
     <use style="fill:#00ffff;fill-opacity:0.7;stroke:#ffffff;stroke-opacity:0.7;" x="123.682746" xlink:href="#m1627d7906f" y="251.186403"/>
     <use style="fill:#00ffff;fill-opacity:0.7;stroke:#ffffff;stroke-opacity:0.7;" x="130.225079" xlink:href="#m1627d7906f" y="247.073044"/>
     <use style="fill:#00ffff;fill-opacity:0.7;stroke:#ffffff;stroke-opacity:0.7;" x="216.449101" xlink:href="#m1627d7906f" y="246.637027"/>
     <use style="fill:#00ffff;fill-opacity:0.7;stroke:#ffffff;stroke-opacity:0.7;" x="130.811567" xlink:href="#m1627d7906f" y="246.355823"/>
     <use style="fill:#00ffff;fill-opacity:0.7;stroke:#ffffff;stroke-opacity:0.7;" x="108.348171" xlink:href="#m1627d7906f" y="244.765823"/>
     <use style="fill:#00ffff;fill-opacity:0.7;stroke:#ffffff;stroke-opacity:0.7;" x="149.702302" xlink:href="#m1627d7906f" y="243.332878"/>
     <use style="fill:#00ffff;fill-opacity:0.7;stroke:#ffffff;stroke-opacity:0.7;" x="213.696636" xlink:href="#m1627d7906f" y="240.490173"/>
     <use style="fill:#00ffff;fill-opacity:0.7;stroke:#ffffff;stroke-opacity:0.7;" x="121.378124" xlink:href="#m1627d7906f" y="234.234876"/>
     <use style="fill:#00ffff;fill-opacity:0.7;stroke:#ffffff;stroke-opacity:0.7;" x="102.668353" xlink:href="#m1627d7906f" y="228.105223"/>
     <use style="fill:#00ffff;fill-opacity:0.7;stroke:#ffffff;stroke-opacity:0.7;" x="182.900602" xlink:href="#m1627d7906f" y="226.647598"/>
     <use style="fill:#00ffff;fill-opacity:0.7;stroke:#ffffff;stroke-opacity:0.7;" x="140.199368" xlink:href="#m1627d7906f" y="224.428627"/>
     <use style="fill:#00ffff;fill-opacity:0.7;stroke:#ffffff;stroke-opacity:0.7;" x="119.705997" xlink:href="#m1627d7906f" y="223.529672"/>
     <use style="fill:#00ffff;fill-opacity:0.7;stroke:#ffffff;stroke-opacity:0.7;" x="105.182424" xlink:href="#m1627d7906f" y="221.211981"/>
     <use style="fill:#00ffff;fill-opacity:0.7;stroke:#ffffff;stroke-opacity:0.7;" x="242.46319" xlink:href="#m1627d7906f" y="220.258429"/>
     <use style="fill:#00ffff;fill-opacity:0.7;stroke:#ffffff;stroke-opacity:0.7;" x="131.445952" xlink:href="#m1627d7906f" y="214.663513"/>
     <use style="fill:#00ffff;fill-opacity:0.7;stroke:#ffffff;stroke-opacity:0.7;" x="106.916405" xlink:href="#m1627d7906f" y="209.347557"/>
     <use style="fill:#00ffff;fill-opacity:0.7;stroke:#ffffff;stroke-opacity:0.7;" x="242.227541" xlink:href="#m1627d7906f" y="209.132167"/>
     <use style="fill:#00ffff;fill-opacity:0.7;stroke:#ffffff;stroke-opacity:0.7;" x="178.911937" xlink:href="#m1627d7906f" y="206.308159"/>
     <use style="fill:#00ffff;fill-opacity:0.7;stroke:#ffffff;stroke-opacity:0.7;" x="238.769107" xlink:href="#m1627d7906f" y="203.19472"/>
     <use style="fill:#00ffff;fill-opacity:0.7;stroke:#ffffff;stroke-opacity:0.7;" x="144.745601" xlink:href="#m1627d7906f" y="199.784371"/>
     <use style="fill:#00ffff;fill-opacity:0.7;stroke:#ffffff;stroke-opacity:0.7;" x="222.919713" xlink:href="#m1627d7906f" y="187.38895"/>
     <use style="fill:#00ffff;fill-opacity:0.7;stroke:#ffffff;stroke-opacity:0.7;" x="193.468322" xlink:href="#m1627d7906f" y="179.355186"/>
     <use style="fill:#00ffff;fill-opacity:0.7;stroke:#ffffff;stroke-opacity:0.7;" x="172.686548" xlink:href="#m1627d7906f" y="87.521825"/>
     <use style="fill:#00ffff;fill-opacity:0.7;stroke:#ffffff;stroke-opacity:0.7;" x="179.713233" xlink:href="#m1627d7906f" y="-1"/>
    </g>
   </g>
   <g id="matplotlib.axis_1">
    <g id="xtick_1">
     <g id="line2d_1">
      <defs>
       <path d="M 0 0 
L 0 3.5 
" id="mc532703957" style="stroke:#000000;stroke-width:0.8;"/>
      </defs>
      <g>
       <use style="stroke:#000000;stroke-width:0.8;" x="173.454545" xlink:href="#mc532703957" y="272"/>
      </g>
     </g>
     <g id="text_1">
      <!-- winter -->
      <defs>
       <path d="M 4.203125 54.6875 
L 13.1875 54.6875 
L 24.421875 12.015625 
L 35.59375 54.6875 
L 46.1875 54.6875 
L 57.421875 12.015625 
L 68.609375 54.6875 
L 77.59375 54.6875 
L 63.28125 0 
L 52.6875 0 
L 40.921875 44.828125 
L 29.109375 0 
L 18.5 0 
z
" id="DejaVuSans-119"/>
       <path d="M 9.421875 54.6875 
L 18.40625 54.6875 
L 18.40625 0 
L 9.421875 0 
z
M 9.421875 75.984375 
L 18.40625 75.984375 
L 18.40625 64.59375 
L 9.421875 64.59375 
z
" id="DejaVuSans-105"/>
       <path d="M 54.890625 33.015625 
L 54.890625 0 
L 45.90625 0 
L 45.90625 32.71875 
Q 45.90625 40.484375 42.875 44.328125 
Q 39.84375 48.1875 33.796875 48.1875 
Q 26.515625 48.1875 22.3125 43.546875 
Q 18.109375 38.921875 18.109375 30.90625 
L 18.109375 0 
L 9.078125 0 
L 9.078125 54.6875 
L 18.109375 54.6875 
L 18.109375 46.1875 
Q 21.34375 51.125 25.703125 53.5625 
Q 30.078125 56 35.796875 56 
Q 45.21875 56 50.046875 50.171875 
Q 54.890625 44.34375 54.890625 33.015625 
z
" id="DejaVuSans-110"/>
       <path d="M 18.3125 70.21875 
L 18.3125 54.6875 
L 36.8125 54.6875 
L 36.8125 47.703125 
L 18.3125 47.703125 
L 18.3125 18.015625 
Q 18.3125 11.328125 20.140625 9.421875 
Q 21.96875 7.515625 27.59375 7.515625 
L 36.8125 7.515625 
L 36.8125 0 
L 27.59375 0 
Q 17.1875 0 13.234375 3.875 
Q 9.28125 7.765625 9.28125 18.015625 
L 9.28125 47.703125 
L 2.6875 47.703125 
L 2.6875 54.6875 
L 9.28125 54.6875 
L 9.28125 70.21875 
z
" id="DejaVuSans-116"/>
       <path d="M 56.203125 29.59375 
L 56.203125 25.203125 
L 14.890625 25.203125 
Q 15.484375 15.921875 20.484375 11.0625 
Q 25.484375 6.203125 34.421875 6.203125 
Q 39.59375 6.203125 44.453125 7.46875 
Q 49.3125 8.734375 54.109375 11.28125 
L 54.109375 2.78125 
Q 49.265625 0.734375 44.1875 -0.34375 
Q 39.109375 -1.421875 33.890625 -1.421875 
Q 20.796875 -1.421875 13.15625 6.1875 
Q 5.515625 13.8125 5.515625 26.8125 
Q 5.515625 40.234375 12.765625 48.109375 
Q 20.015625 56 32.328125 56 
Q 43.359375 56 49.78125 48.890625 
Q 56.203125 41.796875 56.203125 29.59375 
z
M 47.21875 32.234375 
Q 47.125 39.59375 43.09375 43.984375 
Q 39.0625 48.390625 32.421875 48.390625 
Q 24.90625 48.390625 20.390625 44.140625 
Q 15.875 39.890625 15.1875 32.171875 
z
" id="DejaVuSans-101"/>
       <path d="M 41.109375 46.296875 
Q 39.59375 47.171875 37.8125 47.578125 
Q 36.03125 48 33.890625 48 
Q 26.265625 48 22.1875 43.046875 
Q 18.109375 38.09375 18.109375 28.8125 
L 18.109375 0 
L 9.078125 0 
L 9.078125 54.6875 
L 18.109375 54.6875 
L 18.109375 46.1875 
Q 20.953125 51.171875 25.484375 53.578125 
Q 30.03125 56 36.53125 56 
Q 37.453125 56 38.578125 55.875 
Q 39.703125 55.765625 41.0625 55.515625 
z
" id="DejaVuSans-114"/>
      </defs>
      <g transform="translate(151.419858 289.637812)scale(0.14 -0.14)">
       <use xlink:href="#DejaVuSans-119"/>
       <use x="81.787109" xlink:href="#DejaVuSans-105"/>
       <use x="109.570312" xlink:href="#DejaVuSans-110"/>
       <use x="172.949219" xlink:href="#DejaVuSans-116"/>
       <use x="212.158203" xlink:href="#DejaVuSans-101"/>
       <use x="273.681641" xlink:href="#DejaVuSans-114"/>
      </g>
     </g>
    </g>
   </g>
   <g id="matplotlib.axis_2">
    <g id="ytick_1">
     <g id="line2d_2">
      <defs>
       <path d="M 0 0 
L -3.5 0 
" id="m7924f71e85" style="stroke:#000000;stroke-width:0.8;"/>
      </defs>
      <g>
       <use style="stroke:#000000;stroke-width:0.8;" x="72" xlink:href="#m7924f71e85" y="272"/>
      </g>
     </g>
     <g id="text_2">
      <!-- 0 -->
      <defs>
       <path d="M 31.78125 66.40625 
Q 24.171875 66.40625 20.328125 58.90625 
Q 16.5 51.421875 16.5 36.375 
Q 16.5 21.390625 20.328125 13.890625 
Q 24.171875 6.390625 31.78125 6.390625 
Q 39.453125 6.390625 43.28125 13.890625 
Q 47.125 21.390625 47.125 36.375 
Q 47.125 51.421875 43.28125 58.90625 
Q 39.453125 66.40625 31.78125 66.40625 
z
M 31.78125 74.21875 
Q 44.046875 74.21875 50.515625 64.515625 
Q 56.984375 54.828125 56.984375 36.375 
Q 56.984375 17.96875 50.515625 8.265625 
Q 44.046875 -1.421875 31.78125 -1.421875 
Q 19.53125 -1.421875 13.0625 8.265625 
Q 6.59375 17.96875 6.59375 36.375 
Q 6.59375 54.828125 13.0625 64.515625 
Q 19.53125 74.21875 31.78125 74.21875 
z
" id="DejaVuSans-48"/>
      </defs>
      <g transform="translate(58.6375 275.799219)scale(0.1 -0.1)">
       <use xlink:href="#DejaVuSans-48"/>
      </g>
     </g>
    </g>
    <g id="ytick_2">
     <g id="line2d_3">
      <g>
       <use style="stroke:#000000;stroke-width:0.8;" x="72" xlink:href="#m7924f71e85" y="234.605826"/>
      </g>
     </g>
     <g id="text_3">
      <!-- 5 -->
      <defs>
       <path d="M 10.796875 72.90625 
L 49.515625 72.90625 
L 49.515625 64.59375 
L 19.828125 64.59375 
L 19.828125 46.734375 
Q 21.96875 47.46875 24.109375 47.828125 
Q 26.265625 48.1875 28.421875 48.1875 
Q 40.625 48.1875 47.75 41.5 
Q 54.890625 34.8125 54.890625 23.390625 
Q 54.890625 11.625 47.5625 5.09375 
Q 40.234375 -1.421875 26.90625 -1.421875 
Q 22.3125 -1.421875 17.546875 -0.640625 
Q 12.796875 0.140625 7.71875 1.703125 
L 7.71875 11.625 
Q 12.109375 9.234375 16.796875 8.0625 
Q 21.484375 6.890625 26.703125 6.890625 
Q 35.15625 6.890625 40.078125 11.328125 
Q 45.015625 15.765625 45.015625 23.390625 
Q 45.015625 31 40.078125 35.4375 
Q 35.15625 39.890625 26.703125 39.890625 
Q 22.75 39.890625 18.8125 39.015625 
Q 14.890625 38.140625 10.796875 36.28125 
z
" id="DejaVuSans-53"/>
      </defs>
      <g transform="translate(58.6375 238.405045)scale(0.1 -0.1)">
       <use xlink:href="#DejaVuSans-53"/>
      </g>
     </g>
    </g>
    <g id="ytick_3">
     <g id="line2d_4">
      <g>
       <use style="stroke:#000000;stroke-width:0.8;" x="72" xlink:href="#m7924f71e85" y="197.211652"/>
      </g>
     </g>
     <g id="text_4">
      <!-- 10 -->
      <defs>
       <path d="M 12.40625 8.296875 
L 28.515625 8.296875 
L 28.515625 63.921875 
L 10.984375 60.40625 
L 10.984375 69.390625 
L 28.421875 72.90625 
L 38.28125 72.90625 
L 38.28125 8.296875 
L 54.390625 8.296875 
L 54.390625 0 
L 12.40625 0 
z
" id="DejaVuSans-49"/>
      </defs>
      <g transform="translate(52.275 201.010871)scale(0.1 -0.1)">
       <use xlink:href="#DejaVuSans-49"/>
       <use x="63.623047" xlink:href="#DejaVuSans-48"/>
      </g>
     </g>
    </g>
    <g id="ytick_4">
     <g id="line2d_5">
      <g>
       <use style="stroke:#000000;stroke-width:0.8;" x="72" xlink:href="#m7924f71e85" y="159.817478"/>
      </g>
     </g>
     <g id="text_5">
      <!-- 15 -->
      <g transform="translate(52.275 163.616696)scale(0.1 -0.1)">
       <use xlink:href="#DejaVuSans-49"/>
       <use x="63.623047" xlink:href="#DejaVuSans-53"/>
      </g>
     </g>
    </g>
    <g id="ytick_5">
     <g id="line2d_6">
      <g>
       <use style="stroke:#000000;stroke-width:0.8;" x="72" xlink:href="#m7924f71e85" y="122.423304"/>
      </g>
     </g>
     <g id="text_6">
      <!-- 20 -->
      <defs>
       <path d="M 19.1875 8.296875 
L 53.609375 8.296875 
L 53.609375 0 
L 7.328125 0 
L 7.328125 8.296875 
Q 12.9375 14.109375 22.625 23.890625 
Q 32.328125 33.6875 34.8125 36.53125 
Q 39.546875 41.84375 41.421875 45.53125 
Q 43.3125 49.21875 43.3125 52.78125 
Q 43.3125 58.59375 39.234375 62.25 
Q 35.15625 65.921875 28.609375 65.921875 
Q 23.96875 65.921875 18.8125 64.3125 
Q 13.671875 62.703125 7.8125 59.421875 
L 7.8125 69.390625 
Q 13.765625 71.78125 18.9375 73 
Q 24.125 74.21875 28.421875 74.21875 
Q 39.75 74.21875 46.484375 68.546875 
Q 53.21875 62.890625 53.21875 53.421875 
Q 53.21875 48.921875 51.53125 44.890625 
Q 49.859375 40.875 45.40625 35.40625 
Q 44.1875 33.984375 37.640625 27.21875 
Q 31.109375 20.453125 19.1875 8.296875 
z
" id="DejaVuSans-50"/>
      </defs>
      <g transform="translate(52.275 126.222522)scale(0.1 -0.1)">
       <use xlink:href="#DejaVuSans-50"/>
       <use x="63.623047" xlink:href="#DejaVuSans-48"/>
      </g>
     </g>
    </g>
    <g id="text_7">
     <!-- Daily total, pieces per meter -->
     <defs>
      <path d="M 19.671875 64.796875 
L 19.671875 8.109375 
L 31.59375 8.109375 
Q 46.6875 8.109375 53.6875 14.9375 
Q 60.6875 21.78125 60.6875 36.53125 
Q 60.6875 51.171875 53.6875 57.984375 
Q 46.6875 64.796875 31.59375 64.796875 
z
M 9.8125 72.90625 
L 30.078125 72.90625 
Q 51.265625 72.90625 61.171875 64.09375 
Q 71.09375 55.28125 71.09375 36.53125 
Q 71.09375 17.671875 61.125 8.828125 
Q 51.171875 0 30.078125 0 
L 9.8125 0 
z
" id="DejaVuSans-68"/>
      <path d="M 34.28125 27.484375 
Q 23.390625 27.484375 19.1875 25 
Q 14.984375 22.515625 14.984375 16.5 
Q 14.984375 11.71875 18.140625 8.90625 
Q 21.296875 6.109375 26.703125 6.109375 
Q 34.1875 6.109375 38.703125 11.40625 
Q 43.21875 16.703125 43.21875 25.484375 
L 43.21875 27.484375 
z
M 52.203125 31.203125 
L 52.203125 0 
L 43.21875 0 
L 43.21875 8.296875 
Q 40.140625 3.328125 35.546875 0.953125 
Q 30.953125 -1.421875 24.3125 -1.421875 
Q 15.921875 -1.421875 10.953125 3.296875 
Q 6 8.015625 6 15.921875 
Q 6 25.140625 12.171875 29.828125 
Q 18.359375 34.515625 30.609375 34.515625 
L 43.21875 34.515625 
L 43.21875 35.40625 
Q 43.21875 41.609375 39.140625 45 
Q 35.0625 48.390625 27.6875 48.390625 
Q 23 48.390625 18.546875 47.265625 
Q 14.109375 46.140625 10.015625 43.890625 
L 10.015625 52.203125 
Q 14.9375 54.109375 19.578125 55.046875 
Q 24.21875 56 28.609375 56 
Q 40.484375 56 46.34375 49.84375 
Q 52.203125 43.703125 52.203125 31.203125 
z
" id="DejaVuSans-97"/>
      <path d="M 9.421875 75.984375 
L 18.40625 75.984375 
L 18.40625 0 
L 9.421875 0 
z
" id="DejaVuSans-108"/>
      <path d="M 32.171875 -5.078125 
Q 28.375 -14.84375 24.75 -17.8125 
Q 21.140625 -20.796875 15.09375 -20.796875 
L 7.90625 -20.796875 
L 7.90625 -13.28125 
L 13.1875 -13.28125 
Q 16.890625 -13.28125 18.9375 -11.515625 
Q 21 -9.765625 23.484375 -3.21875 
L 25.09375 0.875 
L 2.984375 54.6875 
L 12.5 54.6875 
L 29.59375 11.921875 
L 46.6875 54.6875 
L 56.203125 54.6875 
z
" id="DejaVuSans-121"/>
      <path id="DejaVuSans-32"/>
      <path d="M 30.609375 48.390625 
Q 23.390625 48.390625 19.1875 42.75 
Q 14.984375 37.109375 14.984375 27.296875 
Q 14.984375 17.484375 19.15625 11.84375 
Q 23.34375 6.203125 30.609375 6.203125 
Q 37.796875 6.203125 41.984375 11.859375 
Q 46.1875 17.53125 46.1875 27.296875 
Q 46.1875 37.015625 41.984375 42.703125 
Q 37.796875 48.390625 30.609375 48.390625 
z
M 30.609375 56 
Q 42.328125 56 49.015625 48.375 
Q 55.71875 40.765625 55.71875 27.296875 
Q 55.71875 13.875 49.015625 6.21875 
Q 42.328125 -1.421875 30.609375 -1.421875 
Q 18.84375 -1.421875 12.171875 6.21875 
Q 5.515625 13.875 5.515625 27.296875 
Q 5.515625 40.765625 12.171875 48.375 
Q 18.84375 56 30.609375 56 
z
" id="DejaVuSans-111"/>
      <path d="M 11.71875 12.40625 
L 22.015625 12.40625 
L 22.015625 4 
L 14.015625 -11.625 
L 7.71875 -11.625 
L 11.71875 4 
z
" id="DejaVuSans-44"/>
      <path d="M 18.109375 8.203125 
L 18.109375 -20.796875 
L 9.078125 -20.796875 
L 9.078125 54.6875 
L 18.109375 54.6875 
L 18.109375 46.390625 
Q 20.953125 51.265625 25.265625 53.625 
Q 29.59375 56 35.59375 56 
Q 45.5625 56 51.78125 48.09375 
Q 58.015625 40.1875 58.015625 27.296875 
Q 58.015625 14.40625 51.78125 6.484375 
Q 45.5625 -1.421875 35.59375 -1.421875 
Q 29.59375 -1.421875 25.265625 0.953125 
Q 20.953125 3.328125 18.109375 8.203125 
z
M 48.6875 27.296875 
Q 48.6875 37.203125 44.609375 42.84375 
Q 40.53125 48.484375 33.40625 48.484375 
Q 26.265625 48.484375 22.1875 42.84375 
Q 18.109375 37.203125 18.109375 27.296875 
Q 18.109375 17.390625 22.1875 11.75 
Q 26.265625 6.109375 33.40625 6.109375 
Q 40.53125 6.109375 44.609375 11.75 
Q 48.6875 17.390625 48.6875 27.296875 
z
" id="DejaVuSans-112"/>
      <path d="M 48.78125 52.59375 
L 48.78125 44.1875 
Q 44.96875 46.296875 41.140625 47.34375 
Q 37.3125 48.390625 33.40625 48.390625 
Q 24.65625 48.390625 19.8125 42.84375 
Q 14.984375 37.3125 14.984375 27.296875 
Q 14.984375 17.28125 19.8125 11.734375 
Q 24.65625 6.203125 33.40625 6.203125 
Q 37.3125 6.203125 41.140625 7.25 
Q 44.96875 8.296875 48.78125 10.40625 
L 48.78125 2.09375 
Q 45.015625 0.34375 40.984375 -0.53125 
Q 36.96875 -1.421875 32.421875 -1.421875 
Q 20.0625 -1.421875 12.78125 6.34375 
Q 5.515625 14.109375 5.515625 27.296875 
Q 5.515625 40.671875 12.859375 48.328125 
Q 20.21875 56 33.015625 56 
Q 37.15625 56 41.109375 55.140625 
Q 45.0625 54.296875 48.78125 52.59375 
z
" id="DejaVuSans-99"/>
      <path d="M 44.28125 53.078125 
L 44.28125 44.578125 
Q 40.484375 46.53125 36.375 47.5 
Q 32.28125 48.484375 27.875 48.484375 
Q 21.1875 48.484375 17.84375 46.4375 
Q 14.5 44.390625 14.5 40.28125 
Q 14.5 37.15625 16.890625 35.375 
Q 19.28125 33.59375 26.515625 31.984375 
L 29.59375 31.296875 
Q 39.15625 29.25 43.1875 25.515625 
Q 47.21875 21.78125 47.21875 15.09375 
Q 47.21875 7.46875 41.1875 3.015625 
Q 35.15625 -1.421875 24.609375 -1.421875 
Q 20.21875 -1.421875 15.453125 -0.5625 
Q 10.6875 0.296875 5.421875 2 
L 5.421875 11.28125 
Q 10.40625 8.6875 15.234375 7.390625 
Q 20.0625 6.109375 24.8125 6.109375 
Q 31.15625 6.109375 34.5625 8.28125 
Q 37.984375 10.453125 37.984375 14.40625 
Q 37.984375 18.0625 35.515625 20.015625 
Q 33.0625 21.96875 24.703125 23.78125 
L 21.578125 24.515625 
Q 13.234375 26.265625 9.515625 29.90625 
Q 5.8125 33.546875 5.8125 39.890625 
Q 5.8125 47.609375 11.28125 51.796875 
Q 16.75 56 26.8125 56 
Q 31.78125 56 36.171875 55.265625 
Q 40.578125 54.546875 44.28125 53.078125 
z
" id="DejaVuSans-115"/>
      <path d="M 52 44.1875 
Q 55.375 50.25 60.0625 53.125 
Q 64.75 56 71.09375 56 
Q 79.640625 56 84.28125 50.015625 
Q 88.921875 44.046875 88.921875 33.015625 
L 88.921875 0 
L 79.890625 0 
L 79.890625 32.71875 
Q 79.890625 40.578125 77.09375 44.375 
Q 74.3125 48.1875 68.609375 48.1875 
Q 61.625 48.1875 57.5625 43.546875 
Q 53.515625 38.921875 53.515625 30.90625 
L 53.515625 0 
L 44.484375 0 
L 44.484375 32.71875 
Q 44.484375 40.625 41.703125 44.40625 
Q 38.921875 48.1875 33.109375 48.1875 
Q 26.21875 48.1875 22.15625 43.53125 
Q 18.109375 38.875 18.109375 30.90625 
L 18.109375 0 
L 9.078125 0 
L 9.078125 54.6875 
L 18.109375 54.6875 
L 18.109375 46.1875 
Q 21.1875 51.21875 25.484375 53.609375 
Q 29.78125 56 35.6875 56 
Q 41.65625 56 45.828125 52.96875 
Q 50 49.953125 52 44.1875 
z
" id="DejaVuSans-109"/>
     </defs>
     <g transform="translate(45.779375 264.934375)rotate(-90)scale(0.12 -0.12)">
      <use xlink:href="#DejaVuSans-68"/>
      <use x="77.001953" xlink:href="#DejaVuSans-97"/>
      <use x="138.28125" xlink:href="#DejaVuSans-105"/>
      <use x="166.064453" xlink:href="#DejaVuSans-108"/>
      <use x="193.847656" xlink:href="#DejaVuSans-121"/>
      <use x="253.027344" xlink:href="#DejaVuSans-32"/>
      <use x="284.814453" xlink:href="#DejaVuSans-116"/>
      <use x="324.023438" xlink:href="#DejaVuSans-111"/>
      <use x="385.205078" xlink:href="#DejaVuSans-116"/>
      <use x="424.414062" xlink:href="#DejaVuSans-97"/>
      <use x="485.693359" xlink:href="#DejaVuSans-108"/>
      <use x="513.476562" xlink:href="#DejaVuSans-44"/>
      <use x="545.263672" xlink:href="#DejaVuSans-32"/>
      <use x="577.050781" xlink:href="#DejaVuSans-112"/>
      <use x="640.527344" xlink:href="#DejaVuSans-105"/>
      <use x="668.310547" xlink:href="#DejaVuSans-101"/>
      <use x="729.833984" xlink:href="#DejaVuSans-99"/>
      <use x="784.814453" xlink:href="#DejaVuSans-101"/>
      <use x="846.337891" xlink:href="#DejaVuSans-115"/>
      <use x="898.4375" xlink:href="#DejaVuSans-32"/>
      <use x="930.224609" xlink:href="#DejaVuSans-112"/>
      <use x="993.701172" xlink:href="#DejaVuSans-101"/>
      <use x="1055.224609" xlink:href="#DejaVuSans-114"/>
      <use x="1096.337891" xlink:href="#DejaVuSans-32"/>
      <use x="1128.125" xlink:href="#DejaVuSans-109"/>
      <use x="1225.537109" xlink:href="#DejaVuSans-101"/>
      <use x="1287.060547" xlink:href="#DejaVuSans-116"/>
      <use x="1326.269531" xlink:href="#DejaVuSans-101"/>
      <use x="1387.792969" xlink:href="#DejaVuSans-114"/>
     </g>
    </g>
   </g>
   <g id="line2d_7">
    <path clip-path="url(#p369428117e)" d="M 102.436364 255.715211 
L 244.472727 255.715211 
L 244.472727 221.791403 
L 102.436364 221.791403 
L 102.436364 255.715211 
" style="fill:none;stroke:#000000;stroke-linecap:square;"/>
   </g>
   <g id="line2d_8">
    <path clip-path="url(#p369428117e)" d="M 173.454545 255.715211 
L 173.454545 271.118993 
" style="fill:none;stroke:#000000;stroke-linecap:square;"/>
   </g>
   <g id="line2d_9">
    <path clip-path="url(#p369428117e)" d="M 173.454545 221.791403 
L 173.454545 179.355186 
" style="fill:none;stroke:#000000;stroke-linecap:square;"/>
   </g>
   <g id="line2d_10">
    <path clip-path="url(#p369428117e)" d="M 137.945455 271.118993 
L 208.963636 271.118993 
" style="fill:none;stroke:#000000;stroke-linecap:square;"/>
   </g>
   <g id="line2d_11">
    <path clip-path="url(#p369428117e)" d="M 137.945455 179.355186 
L 208.963636 179.355186 
" style="fill:none;stroke:#000000;stroke-linecap:square;"/>
   </g>
   <g id="line2d_12">
    <path clip-path="url(#p369428117e)" d="M 102.436364 249.129723 
L 244.472727 249.129723 
" style="fill:none;stroke:#ff7f0e;stroke-linecap:square;"/>
   </g>
   <g id="patch_3">
    <path d="M 72 272 
L 72 86.4 
" style="fill:none;stroke:#000000;stroke-linecap:square;stroke-linejoin:miter;stroke-width:0.8;"/>
   </g>
   <g id="patch_4">
    <path d="M 274.909091 272 
L 274.909091 86.4 
" style="fill:none;stroke:#000000;stroke-linecap:square;stroke-linejoin:miter;stroke-width:0.8;"/>
   </g>
   <g id="patch_5">
    <path d="M 72 272 
L 274.909091 272 
" style="fill:none;stroke:#000000;stroke-linecap:square;stroke-linejoin:miter;stroke-width:0.8;"/>
   </g>
   <g id="patch_6">
    <path d="M 72 86.4 
L 274.909091 86.4 
" style="fill:none;stroke:#000000;stroke-linecap:square;stroke-linejoin:miter;stroke-width:0.8;"/>
   </g>
   <g id="text_8">
    <!-- Dec, Jan, Feb: -->
    <defs>
     <path d="M 9.8125 72.90625 
L 19.671875 72.90625 
L 19.671875 5.078125 
Q 19.671875 -8.109375 14.671875 -14.0625 
Q 9.671875 -20.015625 -1.421875 -20.015625 
L -5.171875 -20.015625 
L -5.171875 -11.71875 
L -2.09375 -11.71875 
Q 4.4375 -11.71875 7.125 -8.046875 
Q 9.8125 -4.390625 9.8125 5.078125 
z
" id="DejaVuSans-74"/>
     <path d="M 9.8125 72.90625 
L 51.703125 72.90625 
L 51.703125 64.59375 
L 19.671875 64.59375 
L 19.671875 43.109375 
L 48.578125 43.109375 
L 48.578125 34.8125 
L 19.671875 34.8125 
L 19.671875 0 
L 9.8125 0 
z
" id="DejaVuSans-70"/>
     <path d="M 48.6875 27.296875 
Q 48.6875 37.203125 44.609375 42.84375 
Q 40.53125 48.484375 33.40625 48.484375 
Q 26.265625 48.484375 22.1875 42.84375 
Q 18.109375 37.203125 18.109375 27.296875 
Q 18.109375 17.390625 22.1875 11.75 
Q 26.265625 6.109375 33.40625 6.109375 
Q 40.53125 6.109375 44.609375 11.75 
Q 48.6875 17.390625 48.6875 27.296875 
z
M 18.109375 46.390625 
Q 20.953125 51.265625 25.265625 53.625 
Q 29.59375 56 35.59375 56 
Q 45.5625 56 51.78125 48.09375 
Q 58.015625 40.1875 58.015625 27.296875 
Q 58.015625 14.40625 51.78125 6.484375 
Q 45.5625 -1.421875 35.59375 -1.421875 
Q 29.59375 -1.421875 25.265625 0.953125 
Q 20.953125 3.328125 18.109375 8.203125 
L 18.109375 0 
L 9.078125 0 
L 9.078125 75.984375 
L 18.109375 75.984375 
z
" id="DejaVuSans-98"/>
     <path d="M 11.71875 12.40625 
L 22.015625 12.40625 
L 22.015625 0 
L 11.71875 0 
z
M 11.71875 51.703125 
L 22.015625 51.703125 
L 22.015625 39.3125 
L 11.71875 39.3125 
z
" id="DejaVuSans-58"/>
    </defs>
    <g transform="translate(72 80.4)scale(0.14 -0.14)">
     <use xlink:href="#DejaVuSans-68"/>
     <use x="77.001953" xlink:href="#DejaVuSans-101"/>
     <use x="138.525391" xlink:href="#DejaVuSans-99"/>
     <use x="193.505859" xlink:href="#DejaVuSans-44"/>
     <use x="225.292969" xlink:href="#DejaVuSans-32"/>
     <use x="257.080078" xlink:href="#DejaVuSans-74"/>
     <use x="286.572266" xlink:href="#DejaVuSans-97"/>
     <use x="347.851562" xlink:href="#DejaVuSans-110"/>
     <use x="411.230469" xlink:href="#DejaVuSans-44"/>
     <use x="443.017578" xlink:href="#DejaVuSans-32"/>
     <use x="474.804688" xlink:href="#DejaVuSans-70"/>
     <use x="532.246094" xlink:href="#DejaVuSans-101"/>
     <use x="593.769531" xlink:href="#DejaVuSans-98"/>
     <use x="657.246094" xlink:href="#DejaVuSans-58"/>
    </g>
   </g>
  </g>
  <g id="axes_2">
   <g id="patch_7">
    <path d="M 315.490909 272 
L 518.4 272 
L 518.4 86.4 
L 315.490909 86.4 
z
" style="fill:#ffffff;"/>
   </g>
   <g id="PathCollection_2">
    <defs>
     <path d="M 0 5 
C 1.326016 5 2.597899 4.473168 3.535534 3.535534 
C 4.473168 2.597899 5 1.326016 5 0 
C 5 -1.326016 4.473168 -2.597899 3.535534 -3.535534 
C 2.597899 -4.473168 1.326016 -5 0 -5 
C -1.326016 -5 -2.597899 -4.473168 -3.535534 -3.535534 
C -4.473168 -2.597899 -5 -1.326016 -5 0 
C -5 1.326016 -4.473168 2.597899 -3.535534 3.535534 
C -2.597899 4.473168 -1.326016 5 0 5 
z
" id="m7d6a667808" style="stroke:#ffffff;stroke-opacity:0.7;"/>
    </defs>
    <g clip-path="url(#pf031365b9d)">
     <use style="fill:#00ff00;fill-opacity:0.7;stroke:#ffffff;stroke-opacity:0.7;" x="391.861642" xlink:href="#m7d6a667808" y="267.400555"/>
     <use style="fill:#00ff00;fill-opacity:0.7;stroke:#ffffff;stroke-opacity:0.7;" x="411.533205" xlink:href="#m7d6a667808" y="264.383623"/>
     <use style="fill:#00ff00;fill-opacity:0.7;stroke:#ffffff;stroke-opacity:0.7;" x="448.026433" xlink:href="#m7d6a667808" y="263.260207"/>
     <use style="fill:#00ff00;fill-opacity:0.7;stroke:#ffffff;stroke-opacity:0.7;" x="403.90967" xlink:href="#m7d6a667808" y="260.987459"/>
     <use style="fill:#00ff00;fill-opacity:0.7;stroke:#ffffff;stroke-opacity:0.7;" x="392.869692" xlink:href="#m7d6a667808" y="256.825427"/>
     <use style="fill:#00ff00;fill-opacity:0.7;stroke:#ffffff;stroke-opacity:0.7;" x="480.477991" xlink:href="#m7d6a667808" y="255.696722"/>
     <use style="fill:#00ff00;fill-opacity:0.7;stroke:#ffffff;stroke-opacity:0.7;" x="374.707172" xlink:href="#m7d6a667808" y="254.982158"/>
     <use style="fill:#00ff00;fill-opacity:0.7;stroke:#ffffff;stroke-opacity:0.7;" x="392.104883" xlink:href="#m7d6a667808" y="254.834061"/>
     <use style="fill:#00ff00;fill-opacity:0.7;stroke:#ffffff;stroke-opacity:0.7;" x="366.25874" xlink:href="#m7d6a667808" y="254.713469"/>
     <use style="fill:#00ff00;fill-opacity:0.7;stroke:#ffffff;stroke-opacity:0.7;" x="434.690714" xlink:href="#m7d6a667808" y="252.490439"/>
     <use style="fill:#00ff00;fill-opacity:0.7;stroke:#ffffff;stroke-opacity:0.7;" x="485.590463" xlink:href="#m7d6a667808" y="252.353979"/>
     <use style="fill:#00ff00;fill-opacity:0.7;stroke:#ffffff;stroke-opacity:0.7;" x="447.054778" xlink:href="#m7d6a667808" y="250.967692"/>
     <use style="fill:#00ff00;fill-opacity:0.7;stroke:#ffffff;stroke-opacity:0.7;" x="425.34987" xlink:href="#m7d6a667808" y="250.843926"/>
     <use style="fill:#00ff00;fill-opacity:0.7;stroke:#ffffff;stroke-opacity:0.7;" x="453.33736" xlink:href="#m7d6a667808" y="250.624426"/>
     <use style="fill:#00ff00;fill-opacity:0.7;stroke:#ffffff;stroke-opacity:0.7;" x="383.323008" xlink:href="#m7d6a667808" y="249.692478"/>
     <use style="fill:#00ff00;fill-opacity:0.7;stroke:#ffffff;stroke-opacity:0.7;" x="429.004155" xlink:href="#m7d6a667808" y="248.127418"/>
     <use style="fill:#00ff00;fill-opacity:0.7;stroke:#ffffff;stroke-opacity:0.7;" x="471.851912" xlink:href="#m7d6a667808" y="247.748715"/>
     <use style="fill:#00ff00;fill-opacity:0.7;stroke:#ffffff;stroke-opacity:0.7;" x="440.351133" xlink:href="#m7d6a667808" y="247.549314"/>
     <use style="fill:#00ff00;fill-opacity:0.7;stroke:#ffffff;stroke-opacity:0.7;" x="481.3658" xlink:href="#m7d6a667808" y="247.251535"/>
     <use style="fill:#00ff00;fill-opacity:0.7;stroke:#ffffff;stroke-opacity:0.7;" x="392.12866" xlink:href="#m7d6a667808" y="247.065886"/>
     <use style="fill:#00ff00;fill-opacity:0.7;stroke:#ffffff;stroke-opacity:0.7;" x="463.233882" xlink:href="#m7d6a667808" y="246.779743"/>
     <use style="fill:#00ff00;fill-opacity:0.7;stroke:#ffffff;stroke-opacity:0.7;" x="469.532779" xlink:href="#m7d6a667808" y="246.631647"/>
     <use style="fill:#00ff00;fill-opacity:0.7;stroke:#ffffff;stroke-opacity:0.7;" x="456.009859" xlink:href="#m7d6a667808" y="246.247125"/>
     <use style="fill:#00ff00;fill-opacity:0.7;stroke:#ffffff;stroke-opacity:0.7;" x="466.556477" xlink:href="#m7d6a667808" y="246.159325"/>
     <use style="fill:#00ff00;fill-opacity:0.7;stroke:#ffffff;stroke-opacity:0.7;" x="356.544551" xlink:href="#m7d6a667808" y="245.906504"/>
     <use style="fill:#00ff00;fill-opacity:0.7;stroke:#ffffff;stroke-opacity:0.7;" x="383.581913" xlink:href="#m7d6a667808" y="242.154909"/>
     <use style="fill:#00ff00;fill-opacity:0.7;stroke:#ffffff;stroke-opacity:0.7;" x="456.204193" xlink:href="#m7d6a667808" y="242.030085"/>
     <use style="fill:#00ff00;fill-opacity:0.7;stroke:#ffffff;stroke-opacity:0.7;" x="425.379155" xlink:href="#m7d6a667808" y="241.67201"/>
     <use style="fill:#00ff00;fill-opacity:0.7;stroke:#ffffff;stroke-opacity:0.7;" x="434.812705" xlink:href="#m7d6a667808" y="235.832788"/>
     <use style="fill:#00ff00;fill-opacity:0.7;stroke:#ffffff;stroke-opacity:0.7;" x="371.090889" xlink:href="#m7d6a667808" y="233.442091"/>
     <use style="fill:#00ff00;fill-opacity:0.7;stroke:#ffffff;stroke-opacity:0.7;" x="364.393519" xlink:href="#m7d6a667808" y="231.198434"/>
     <use style="fill:#00ff00;fill-opacity:0.7;stroke:#ffffff;stroke-opacity:0.7;" x="372.747345" xlink:href="#m7d6a667808" y="223.223981"/>
     <use style="fill:#00ff00;fill-opacity:0.7;stroke:#ffffff;stroke-opacity:0.7;" x="419.027057" xlink:href="#m7d6a667808" y="221.091925"/>
     <use style="fill:#00ff00;fill-opacity:0.7;stroke:#ffffff;stroke-opacity:0.7;" x="442.443289" xlink:href="#m7d6a667808" y="209.941337"/>
     <use style="fill:#00ff00;fill-opacity:0.7;stroke:#ffffff;stroke-opacity:0.7;" x="442.470518" xlink:href="#m7d6a667808" y="209.902197"/>
     <use style="fill:#00ff00;fill-opacity:0.7;stroke:#ffffff;stroke-opacity:0.7;" x="476.700091" xlink:href="#m7d6a667808" y="207.382446"/>
     <use style="fill:#00ff00;fill-opacity:0.7;stroke:#ffffff;stroke-opacity:0.7;" x="426.137362" xlink:href="#m7d6a667808" y="198.705065"/>
     <use style="fill:#00ff00;fill-opacity:0.7;stroke:#ffffff;stroke-opacity:0.7;" x="423.796624" xlink:href="#m7d6a667808" y="195.458056"/>
     <use style="fill:#00ff00;fill-opacity:0.7;stroke:#ffffff;stroke-opacity:0.7;" x="447.291193" xlink:href="#m7d6a667808" y="193.805725"/>
     <use style="fill:#00ff00;fill-opacity:0.7;stroke:#ffffff;stroke-opacity:0.7;" x="348.731682" xlink:href="#m7d6a667808" y="190.598384"/>
     <use style="fill:#00ff00;fill-opacity:0.7;stroke:#ffffff;stroke-opacity:0.7;" x="435.577511" xlink:href="#m7d6a667808" y="188.695877"/>
     <use style="fill:#00ff00;fill-opacity:0.7;stroke:#ffffff;stroke-opacity:0.7;" x="431.020906" xlink:href="#m7d6a667808" y="181.327561"/>
     <use style="fill:#00ff00;fill-opacity:0.7;stroke:#ffffff;stroke-opacity:0.7;" x="478.669395" xlink:href="#m7d6a667808" y="179.263205"/>
     <use style="fill:#00ff00;fill-opacity:0.7;stroke:#ffffff;stroke-opacity:0.7;" x="415.401479" xlink:href="#m7d6a667808" y="175.125503"/>
     <use style="fill:#00ff00;fill-opacity:0.7;stroke:#ffffff;stroke-opacity:0.7;" x="485.153539" xlink:href="#m7d6a667808" y="173.662524"/>
     <use style="fill:#00ff00;fill-opacity:0.7;stroke:#ffffff;stroke-opacity:0.7;" x="376.409667" xlink:href="#m7d6a667808" y="153.492876"/>
     <use style="fill:#00ff00;fill-opacity:0.7;stroke:#ffffff;stroke-opacity:0.7;" x="423.661264" xlink:href="#m7d6a667808" y="130.335917"/>
     <use style="fill:#00ff00;fill-opacity:0.7;stroke:#ffffff;stroke-opacity:0.7;" x="397.175606" xlink:href="#m7d6a667808" y="121.611463"/>
     <use style="fill:#00ff00;fill-opacity:0.7;stroke:#ffffff;stroke-opacity:0.7;" x="409.738589" xlink:href="#m7d6a667808" y="102.744533"/>
     <use style="fill:#00ff00;fill-opacity:0.7;stroke:#ffffff;stroke-opacity:0.7;" x="455.132345" xlink:href="#m7d6a667808" y="94.659009"/>
     <use style="fill:#00ff00;fill-opacity:0.7;stroke:#ffffff;stroke-opacity:0.7;" x="388.297148" xlink:href="#m7d6a667808" y="87.193373"/>
     <use style="fill:#00ff00;fill-opacity:0.7;stroke:#ffffff;stroke-opacity:0.7;" x="401.179934" xlink:href="#m7d6a667808" y="62.747976"/>
    </g>
   </g>
   <g id="matplotlib.axis_3">
    <g id="xtick_2">
     <g id="line2d_13">
      <g>
       <use style="stroke:#000000;stroke-width:0.8;" x="416.945455" xlink:href="#mc532703957" y="272"/>
      </g>
     </g>
     <g id="text_9">
      <!-- spring -->
      <defs>
       <path d="M 45.40625 27.984375 
Q 45.40625 37.75 41.375 43.109375 
Q 37.359375 48.484375 30.078125 48.484375 
Q 22.859375 48.484375 18.828125 43.109375 
Q 14.796875 37.75 14.796875 27.984375 
Q 14.796875 18.265625 18.828125 12.890625 
Q 22.859375 7.515625 30.078125 7.515625 
Q 37.359375 7.515625 41.375 12.890625 
Q 45.40625 18.265625 45.40625 27.984375 
z
M 54.390625 6.78125 
Q 54.390625 -7.171875 48.1875 -13.984375 
Q 42 -20.796875 29.203125 -20.796875 
Q 24.46875 -20.796875 20.265625 -20.09375 
Q 16.0625 -19.390625 12.109375 -17.921875 
L 12.109375 -9.1875 
Q 16.0625 -11.328125 19.921875 -12.34375 
Q 23.78125 -13.375 27.78125 -13.375 
Q 36.625 -13.375 41.015625 -8.765625 
Q 45.40625 -4.15625 45.40625 5.171875 
L 45.40625 9.625 
Q 42.625 4.78125 38.28125 2.390625 
Q 33.9375 0 27.875 0 
Q 17.828125 0 11.671875 7.65625 
Q 5.515625 15.328125 5.515625 27.984375 
Q 5.515625 40.671875 11.671875 48.328125 
Q 17.828125 56 27.875 56 
Q 33.9375 56 38.28125 53.609375 
Q 42.625 51.21875 45.40625 46.390625 
L 45.40625 54.6875 
L 54.390625 54.6875 
z
" id="DejaVuSans-103"/>
      </defs>
      <g transform="translate(395.152486 289.637812)scale(0.14 -0.14)">
       <use xlink:href="#DejaVuSans-115"/>
       <use x="52.099609" xlink:href="#DejaVuSans-112"/>
       <use x="115.576172" xlink:href="#DejaVuSans-114"/>
       <use x="156.689453" xlink:href="#DejaVuSans-105"/>
       <use x="184.472656" xlink:href="#DejaVuSans-110"/>
       <use x="247.851562" xlink:href="#DejaVuSans-103"/>
      </g>
     </g>
    </g>
   </g>
   <g id="matplotlib.axis_4">
    <g id="ytick_6">
     <g id="line2d_14">
      <g>
       <use style="stroke:#000000;stroke-width:0.8;" x="315.490909" xlink:href="#m7924f71e85" y="272"/>
      </g>
     </g>
     <g id="text_10">
      <!-- 0 -->
      <g transform="translate(302.128409 275.799219)scale(0.1 -0.1)">
       <use xlink:href="#DejaVuSans-48"/>
      </g>
     </g>
    </g>
    <g id="ytick_7">
     <g id="line2d_15">
      <g>
       <use style="stroke:#000000;stroke-width:0.8;" x="315.490909" xlink:href="#m7924f71e85" y="245.554247"/>
      </g>
     </g>
     <g id="text_11">
      <!-- 5 -->
      <g transform="translate(302.128409 249.353465)scale(0.1 -0.1)">
       <use xlink:href="#DejaVuSans-53"/>
      </g>
     </g>
    </g>
    <g id="ytick_8">
     <g id="line2d_16">
      <g>
       <use style="stroke:#000000;stroke-width:0.8;" x="315.490909" xlink:href="#m7924f71e85" y="219.108493"/>
      </g>
     </g>
     <g id="text_12">
      <!-- 10 -->
      <g transform="translate(295.765909 222.907712)scale(0.1 -0.1)">
       <use xlink:href="#DejaVuSans-49"/>
       <use x="63.623047" xlink:href="#DejaVuSans-48"/>
      </g>
     </g>
    </g>
    <g id="ytick_9">
     <g id="line2d_17">
      <g>
       <use style="stroke:#000000;stroke-width:0.8;" x="315.490909" xlink:href="#m7924f71e85" y="192.66274"/>
      </g>
     </g>
     <g id="text_13">
      <!-- 15 -->
      <g transform="translate(295.765909 196.461958)scale(0.1 -0.1)">
       <use xlink:href="#DejaVuSans-49"/>
       <use x="63.623047" xlink:href="#DejaVuSans-53"/>
      </g>
     </g>
    </g>
    <g id="ytick_10">
     <g id="line2d_18">
      <g>
       <use style="stroke:#000000;stroke-width:0.8;" x="315.490909" xlink:href="#m7924f71e85" y="166.216986"/>
      </g>
     </g>
     <g id="text_14">
      <!-- 20 -->
      <g transform="translate(295.765909 170.016205)scale(0.1 -0.1)">
       <use xlink:href="#DejaVuSans-50"/>
       <use x="63.623047" xlink:href="#DejaVuSans-48"/>
      </g>
     </g>
    </g>
    <g id="ytick_11">
     <g id="line2d_19">
      <g>
       <use style="stroke:#000000;stroke-width:0.8;" x="315.490909" xlink:href="#m7924f71e85" y="139.771233"/>
      </g>
     </g>
     <g id="text_15">
      <!-- 25 -->
      <g transform="translate(295.765909 143.570452)scale(0.1 -0.1)">
       <use xlink:href="#DejaVuSans-50"/>
       <use x="63.623047" xlink:href="#DejaVuSans-53"/>
      </g>
     </g>
    </g>
    <g id="ytick_12">
     <g id="line2d_20">
      <g>
       <use style="stroke:#000000;stroke-width:0.8;" x="315.490909" xlink:href="#m7924f71e85" y="113.325479"/>
      </g>
     </g>
     <g id="text_16">
      <!-- 30 -->
      <defs>
       <path d="M 40.578125 39.3125 
Q 47.65625 37.796875 51.625 33 
Q 55.609375 28.21875 55.609375 21.1875 
Q 55.609375 10.40625 48.1875 4.484375 
Q 40.765625 -1.421875 27.09375 -1.421875 
Q 22.515625 -1.421875 17.65625 -0.515625 
Q 12.796875 0.390625 7.625 2.203125 
L 7.625 11.71875 
Q 11.71875 9.328125 16.59375 8.109375 
Q 21.484375 6.890625 26.8125 6.890625 
Q 36.078125 6.890625 40.9375 10.546875 
Q 45.796875 14.203125 45.796875 21.1875 
Q 45.796875 27.640625 41.28125 31.265625 
Q 36.765625 34.90625 28.71875 34.90625 
L 20.21875 34.90625 
L 20.21875 43.015625 
L 29.109375 43.015625 
Q 36.375 43.015625 40.234375 45.921875 
Q 44.09375 48.828125 44.09375 54.296875 
Q 44.09375 59.90625 40.109375 62.90625 
Q 36.140625 65.921875 28.71875 65.921875 
Q 24.65625 65.921875 20.015625 65.03125 
Q 15.375 64.15625 9.8125 62.3125 
L 9.8125 71.09375 
Q 15.4375 72.65625 20.34375 73.4375 
Q 25.25 74.21875 29.59375 74.21875 
Q 40.828125 74.21875 47.359375 69.109375 
Q 53.90625 64.015625 53.90625 55.328125 
Q 53.90625 49.265625 50.4375 45.09375 
Q 46.96875 40.921875 40.578125 39.3125 
z
" id="DejaVuSans-51"/>
      </defs>
      <g transform="translate(295.765909 117.124698)scale(0.1 -0.1)">
       <use xlink:href="#DejaVuSans-51"/>
       <use x="63.623047" xlink:href="#DejaVuSans-48"/>
      </g>
     </g>
    </g>
    <g id="ytick_13">
     <g id="line2d_21">
      <g>
       <use style="stroke:#000000;stroke-width:0.8;" x="315.490909" xlink:href="#m7924f71e85" y="86.879726"/>
      </g>
     </g>
     <g id="text_17">
      <!-- 35 -->
      <g transform="translate(295.765909 90.678945)scale(0.1 -0.1)">
       <use xlink:href="#DejaVuSans-51"/>
       <use x="63.623047" xlink:href="#DejaVuSans-53"/>
      </g>
     </g>
    </g>
   </g>
   <g id="line2d_22">
    <path clip-path="url(#pf031365b9d)" d="M 345.927273 250.679301 
L 487.963636 250.679301 
L 487.963636 193.00389 
L 345.927273 193.00389 
L 345.927273 250.679301 
" style="fill:none;stroke:#000000;stroke-linecap:square;"/>
   </g>
   <g id="line2d_23">
    <path clip-path="url(#pf031365b9d)" d="M 416.945455 250.679301 
L 416.945455 267.400555 
" style="fill:none;stroke:#000000;stroke-linecap:square;"/>
   </g>
   <g id="line2d_24">
    <path clip-path="url(#pf031365b9d)" d="M 416.945455 193.00389 
L 416.945455 121.611463 
" style="fill:none;stroke:#000000;stroke-linecap:square;"/>
   </g>
   <g id="line2d_25">
    <path clip-path="url(#pf031365b9d)" d="M 381.436364 267.400555 
L 452.454545 267.400555 
" style="fill:none;stroke:#000000;stroke-linecap:square;"/>
   </g>
   <g id="line2d_26">
    <path clip-path="url(#pf031365b9d)" d="M 381.436364 121.611463 
L 452.454545 121.611463 
" style="fill:none;stroke:#000000;stroke-linecap:square;"/>
   </g>
   <g id="line2d_27">
    <path clip-path="url(#pf031365b9d)" d="M 345.927273 242.092497 
L 487.963636 242.092497 
" style="fill:none;stroke:#ff7f0e;stroke-linecap:square;"/>
   </g>
   <g id="patch_8">
    <path d="M 315.490909 272 
L 315.490909 86.4 
" style="fill:none;stroke:#000000;stroke-linecap:square;stroke-linejoin:miter;stroke-width:0.8;"/>
   </g>
   <g id="patch_9">
    <path d="M 518.4 272 
L 518.4 86.4 
" style="fill:none;stroke:#000000;stroke-linecap:square;stroke-linejoin:miter;stroke-width:0.8;"/>
   </g>
   <g id="patch_10">
    <path d="M 315.490909 272 
L 518.4 272 
" style="fill:none;stroke:#000000;stroke-linecap:square;stroke-linejoin:miter;stroke-width:0.8;"/>
   </g>
   <g id="patch_11">
    <path d="M 315.490909 86.4 
L 518.4 86.4 
" style="fill:none;stroke:#000000;stroke-linecap:square;stroke-linejoin:miter;stroke-width:0.8;"/>
   </g>
   <g id="text_18">
    <!-- Mar, Apr, May: -->
    <defs>
     <path d="M 9.8125 72.90625 
L 24.515625 72.90625 
L 43.109375 23.296875 
L 61.8125 72.90625 
L 76.515625 72.90625 
L 76.515625 0 
L 66.890625 0 
L 66.890625 64.015625 
L 48.09375 14.015625 
L 38.1875 14.015625 
L 19.390625 64.015625 
L 19.390625 0 
L 9.8125 0 
z
" id="DejaVuSans-77"/>
     <path d="M 34.1875 63.1875 
L 20.796875 26.90625 
L 47.609375 26.90625 
z
M 28.609375 72.90625 
L 39.796875 72.90625 
L 67.578125 0 
L 57.328125 0 
L 50.6875 18.703125 
L 17.828125 18.703125 
L 11.1875 0 
L 0.78125 0 
z
" id="DejaVuSans-65"/>
    </defs>
    <g transform="translate(315.490909 80.4)scale(0.14 -0.14)">
     <use xlink:href="#DejaVuSans-77"/>
     <use x="86.279297" xlink:href="#DejaVuSans-97"/>
     <use x="147.558594" xlink:href="#DejaVuSans-114"/>
     <use x="188.671875" xlink:href="#DejaVuSans-44"/>
     <use x="220.458984" xlink:href="#DejaVuSans-32"/>
     <use x="252.246094" xlink:href="#DejaVuSans-65"/>
     <use x="320.654297" xlink:href="#DejaVuSans-112"/>
     <use x="384.130859" xlink:href="#DejaVuSans-114"/>
     <use x="425.244141" xlink:href="#DejaVuSans-44"/>
     <use x="457.03125" xlink:href="#DejaVuSans-32"/>
     <use x="488.818359" xlink:href="#DejaVuSans-77"/>
     <use x="575.097656" xlink:href="#DejaVuSans-97"/>
     <use x="636.376953" xlink:href="#DejaVuSans-121"/>
     <use x="695.447266" xlink:href="#DejaVuSans-58"/>
    </g>
   </g>
  </g>
  <g id="axes_3">
   <g id="patch_12">
    <path d="M 72 504 
L 274.909091 504 
L 274.909091 318.4 
L 72 318.4 
z
" style="fill:#ffffff;"/>
   </g>
   <g id="PathCollection_3">
    <defs>
     <path d="M 0 5 
C 1.326016 5 2.597899 4.473168 3.535534 3.535534 
C 4.473168 2.597899 5 1.326016 5 0 
C 5 -1.326016 4.473168 -2.597899 3.535534 -3.535534 
C 2.597899 -4.473168 1.326016 -5 0 -5 
C -1.326016 -5 -2.597899 -4.473168 -3.535534 -3.535534 
C -4.473168 -2.597899 -5 -1.326016 -5 0 
C -5 1.326016 -4.473168 2.597899 -3.535534 3.535534 
C -2.597899 4.473168 -1.326016 5 0 5 
z
" id="mbd4a59a6d2" style="stroke:#ffffff;stroke-opacity:0.7;"/>
    </defs>
    <g clip-path="url(#p8791387903)">
     <use style="fill:#8b4513;fill-opacity:0.7;stroke:#ffffff;stroke-opacity:0.7;" x="159.869828" xlink:href="#mbd4a59a6d2" y="500.100298"/>
     <use style="fill:#8b4513;fill-opacity:0.7;stroke:#ffffff;stroke-opacity:0.7;" x="232.527094" xlink:href="#mbd4a59a6d2" y="495.328285"/>
     <use style="fill:#8b4513;fill-opacity:0.7;stroke:#ffffff;stroke-opacity:0.7;" x="117.293668" xlink:href="#mbd4a59a6d2" y="479.609786"/>
     <use style="fill:#8b4513;fill-opacity:0.7;stroke:#ffffff;stroke-opacity:0.7;" x="242.86959" xlink:href="#mbd4a59a6d2" y="476.949576"/>
     <use style="fill:#8b4513;fill-opacity:0.7;stroke:#ffffff;stroke-opacity:0.7;" x="229.518605" xlink:href="#mbd4a59a6d2" y="474.73296"/>
     <use style="fill:#8b4513;fill-opacity:0.7;stroke:#ffffff;stroke-opacity:0.7;" x="164.885689" xlink:href="#mbd4a59a6d2" y="471.320129"/>
     <use style="fill:#8b4513;fill-opacity:0.7;stroke:#ffffff;stroke-opacity:0.7;" x="170.933046" xlink:href="#mbd4a59a6d2" y="467.859287"/>
     <use style="fill:#8b4513;fill-opacity:0.7;stroke:#ffffff;stroke-opacity:0.7;" x="162.579698" xlink:href="#mbd4a59a6d2" y="467.638167"/>
     <use style="fill:#8b4513;fill-opacity:0.7;stroke:#ffffff;stroke-opacity:0.7;" x="110.70284" xlink:href="#mbd4a59a6d2" y="467.415017"/>
     <use style="fill:#8b4513;fill-opacity:0.7;stroke:#ffffff;stroke-opacity:0.7;" x="234.565938" xlink:href="#mbd4a59a6d2" y="461.494124"/>
     <use style="fill:#8b4513;fill-opacity:0.7;stroke:#ffffff;stroke-opacity:0.7;" x="166.94068" xlink:href="#mbd4a59a6d2" y="457.629584"/>
     <use style="fill:#8b4513;fill-opacity:0.7;stroke:#ffffff;stroke-opacity:0.7;" x="178.28864" xlink:href="#mbd4a59a6d2" y="457.510571"/>
     <use style="fill:#8b4513;fill-opacity:0.7;stroke:#ffffff;stroke-opacity:0.7;" x="165.179639" xlink:href="#mbd4a59a6d2" y="456.775531"/>
     <use style="fill:#8b4513;fill-opacity:0.7;stroke:#ffffff;stroke-opacity:0.7;" x="144.445857" xlink:href="#mbd4a59a6d2" y="446.146864"/>
     <use style="fill:#8b4513;fill-opacity:0.7;stroke:#ffffff;stroke-opacity:0.7;" x="131.504927" xlink:href="#mbd4a59a6d2" y="441.211208"/>
     <use style="fill:#8b4513;fill-opacity:0.7;stroke:#ffffff;stroke-opacity:0.7;" x="216.392019" xlink:href="#mbd4a59a6d2" y="435.877941"/>
     <use style="fill:#8b4513;fill-opacity:0.7;stroke:#ffffff;stroke-opacity:0.7;" x="229.034268" xlink:href="#mbd4a59a6d2" y="431.941047"/>
     <use style="fill:#8b4513;fill-opacity:0.7;stroke:#ffffff;stroke-opacity:0.7;" x="225.826801" xlink:href="#mbd4a59a6d2" y="418.993657"/>
     <use style="fill:#8b4513;fill-opacity:0.7;stroke:#ffffff;stroke-opacity:0.7;" x="228.122429" xlink:href="#mbd4a59a6d2" y="415.923664"/>
     <use style="fill:#8b4513;fill-opacity:0.7;stroke:#ffffff;stroke-opacity:0.7;" x="243.727348" xlink:href="#mbd4a59a6d2" y="411.337609"/>
     <use style="fill:#8b4513;fill-opacity:0.7;stroke:#ffffff;stroke-opacity:0.7;" x="130.504579" xlink:href="#mbd4a59a6d2" y="406.003665"/>
     <use style="fill:#8b4513;fill-opacity:0.7;stroke:#ffffff;stroke-opacity:0.7;" x="144.05986" xlink:href="#mbd4a59a6d2" y="375.826447"/>
     <use style="fill:#8b4513;fill-opacity:0.7;stroke:#ffffff;stroke-opacity:0.7;" x="157.71736" xlink:href="#mbd4a59a6d2" y="347.505425"/>
     <use style="fill:#8b4513;fill-opacity:0.7;stroke:#ffffff;stroke-opacity:0.7;" x="149.988226" xlink:href="#mbd4a59a6d2" y="319.414315"/>
     <use style="fill:#8b4513;fill-opacity:0.7;stroke:#ffffff;stroke-opacity:0.7;" x="237.297379" xlink:href="#mbd4a59a6d2" y="236.622559"/>
    </g>
   </g>
   <g id="matplotlib.axis_5">
    <g id="xtick_3">
     <g id="line2d_28">
      <g>
       <use style="stroke:#000000;stroke-width:0.8;" x="173.454545" xlink:href="#mc532703957" y="504"/>
      </g>
     </g>
     <g id="text_19">
      <!-- summer -->
      <defs>
       <path d="M 8.5 21.578125 
L 8.5 54.6875 
L 17.484375 54.6875 
L 17.484375 21.921875 
Q 17.484375 14.15625 20.5 10.265625 
Q 23.53125 6.390625 29.59375 6.390625 
Q 36.859375 6.390625 41.078125 11.03125 
Q 45.3125 15.671875 45.3125 23.6875 
L 45.3125 54.6875 
L 54.296875 54.6875 
L 54.296875 0 
L 45.3125 0 
L 45.3125 8.40625 
Q 42.046875 3.421875 37.71875 1 
Q 33.40625 -1.421875 27.6875 -1.421875 
Q 18.265625 -1.421875 13.375 4.4375 
Q 8.5 10.296875 8.5 21.578125 
z
M 31.109375 56 
z
" id="DejaVuSans-117"/>
      </defs>
      <g transform="translate(144.550014 521.637812)scale(0.14 -0.14)">
       <use xlink:href="#DejaVuSans-115"/>
       <use x="52.099609" xlink:href="#DejaVuSans-117"/>
       <use x="115.478516" xlink:href="#DejaVuSans-109"/>
       <use x="212.890625" xlink:href="#DejaVuSans-109"/>
       <use x="310.302734" xlink:href="#DejaVuSans-101"/>
       <use x="371.826172" xlink:href="#DejaVuSans-114"/>
      </g>
     </g>
    </g>
   </g>
   <g id="matplotlib.axis_6">
    <g id="ytick_14">
     <g id="line2d_29">
      <g>
       <use style="stroke:#000000;stroke-width:0.8;" x="72" xlink:href="#m7924f71e85" y="504"/>
      </g>
     </g>
     <g id="text_20">
      <!-- 0 -->
      <g transform="translate(58.6375 507.799219)scale(0.1 -0.1)">
       <use xlink:href="#DejaVuSans-48"/>
      </g>
     </g>
    </g>
    <g id="ytick_15">
     <g id="line2d_30">
      <g>
       <use style="stroke:#000000;stroke-width:0.8;" x="72" xlink:href="#m7924f71e85" y="470.189506"/>
      </g>
     </g>
     <g id="text_21">
      <!-- 5 -->
      <g transform="translate(58.6375 473.988725)scale(0.1 -0.1)">
       <use xlink:href="#DejaVuSans-53"/>
      </g>
     </g>
    </g>
    <g id="ytick_16">
     <g id="line2d_31">
      <g>
       <use style="stroke:#000000;stroke-width:0.8;" x="72" xlink:href="#m7924f71e85" y="436.379013"/>
      </g>
     </g>
     <g id="text_22">
      <!-- 10 -->
      <g transform="translate(52.275 440.178231)scale(0.1 -0.1)">
       <use xlink:href="#DejaVuSans-49"/>
       <use x="63.623047" xlink:href="#DejaVuSans-48"/>
      </g>
     </g>
    </g>
    <g id="ytick_17">
     <g id="line2d_32">
      <g>
       <use style="stroke:#000000;stroke-width:0.8;" x="72" xlink:href="#m7924f71e85" y="402.568519"/>
      </g>
     </g>
     <g id="text_23">
      <!-- 15 -->
      <g transform="translate(52.275 406.367738)scale(0.1 -0.1)">
       <use xlink:href="#DejaVuSans-49"/>
       <use x="63.623047" xlink:href="#DejaVuSans-53"/>
      </g>
     </g>
    </g>
    <g id="ytick_18">
     <g id="line2d_33">
      <g>
       <use style="stroke:#000000;stroke-width:0.8;" x="72" xlink:href="#m7924f71e85" y="368.758025"/>
      </g>
     </g>
     <g id="text_24">
      <!-- 20 -->
      <g transform="translate(52.275 372.557244)scale(0.1 -0.1)">
       <use xlink:href="#DejaVuSans-50"/>
       <use x="63.623047" xlink:href="#DejaVuSans-48"/>
      </g>
     </g>
    </g>
    <g id="ytick_19">
     <g id="line2d_34">
      <g>
       <use style="stroke:#000000;stroke-width:0.8;" x="72" xlink:href="#m7924f71e85" y="334.947532"/>
      </g>
     </g>
     <g id="text_25">
      <!-- 25 -->
      <g transform="translate(52.275 338.746751)scale(0.1 -0.1)">
       <use xlink:href="#DejaVuSans-50"/>
       <use x="63.623047" xlink:href="#DejaVuSans-53"/>
      </g>
     </g>
    </g>
    <g id="text_26">
     <!-- Daily total, pieces per meter -->
     <g transform="translate(45.779375 496.934375)rotate(-90)scale(0.12 -0.12)">
      <use xlink:href="#DejaVuSans-68"/>
      <use x="77.001953" xlink:href="#DejaVuSans-97"/>
      <use x="138.28125" xlink:href="#DejaVuSans-105"/>
      <use x="166.064453" xlink:href="#DejaVuSans-108"/>
      <use x="193.847656" xlink:href="#DejaVuSans-121"/>
      <use x="253.027344" xlink:href="#DejaVuSans-32"/>
      <use x="284.814453" xlink:href="#DejaVuSans-116"/>
      <use x="324.023438" xlink:href="#DejaVuSans-111"/>
      <use x="385.205078" xlink:href="#DejaVuSans-116"/>
      <use x="424.414062" xlink:href="#DejaVuSans-97"/>
      <use x="485.693359" xlink:href="#DejaVuSans-108"/>
      <use x="513.476562" xlink:href="#DejaVuSans-44"/>
      <use x="545.263672" xlink:href="#DejaVuSans-32"/>
      <use x="577.050781" xlink:href="#DejaVuSans-112"/>
      <use x="640.527344" xlink:href="#DejaVuSans-105"/>
      <use x="668.310547" xlink:href="#DejaVuSans-101"/>
      <use x="729.833984" xlink:href="#DejaVuSans-99"/>
      <use x="784.814453" xlink:href="#DejaVuSans-101"/>
      <use x="846.337891" xlink:href="#DejaVuSans-115"/>
      <use x="898.4375" xlink:href="#DejaVuSans-32"/>
      <use x="930.224609" xlink:href="#DejaVuSans-112"/>
      <use x="993.701172" xlink:href="#DejaVuSans-101"/>
      <use x="1055.224609" xlink:href="#DejaVuSans-114"/>
      <use x="1096.337891" xlink:href="#DejaVuSans-32"/>
      <use x="1128.125" xlink:href="#DejaVuSans-109"/>
      <use x="1225.537109" xlink:href="#DejaVuSans-101"/>
      <use x="1287.060547" xlink:href="#DejaVuSans-116"/>
      <use x="1326.269531" xlink:href="#DejaVuSans-101"/>
      <use x="1387.792969" xlink:href="#DejaVuSans-114"/>
     </g>
    </g>
   </g>
   <g id="line2d_35">
    <path clip-path="url(#p8791387903)" d="M 102.436364 467.859287 
L 244.472727 467.859287 
L 244.472727 415.923664 
L 102.436364 415.923664 
L 102.436364 467.859287 
" style="fill:none;stroke:#000000;stroke-linecap:square;"/>
   </g>
   <g id="line2d_36">
    <path clip-path="url(#p8791387903)" d="M 173.454545 467.859287 
L 173.454545 500.100298 
" style="fill:none;stroke:#000000;stroke-linecap:square;"/>
   </g>
   <g id="line2d_37">
    <path clip-path="url(#p8791387903)" d="M 173.454545 415.923664 
L 173.454545 347.505425 
" style="fill:none;stroke:#000000;stroke-linecap:square;"/>
   </g>
   <g id="line2d_38">
    <path clip-path="url(#p8791387903)" d="M 137.945455 500.100298 
L 208.963636 500.100298 
" style="fill:none;stroke:#000000;stroke-linecap:square;"/>
   </g>
   <g id="line2d_39">
    <path clip-path="url(#p8791387903)" d="M 137.945455 347.505425 
L 208.963636 347.505425 
" style="fill:none;stroke:#000000;stroke-linecap:square;"/>
   </g>
   <g id="line2d_40">
    <path clip-path="url(#p8791387903)" d="M 102.436364 456.775531 
L 244.472727 456.775531 
" style="fill:none;stroke:#ff7f0e;stroke-linecap:square;"/>
   </g>
   <g id="patch_13">
    <path d="M 72 504 
L 72 318.4 
" style="fill:none;stroke:#000000;stroke-linecap:square;stroke-linejoin:miter;stroke-width:0.8;"/>
   </g>
   <g id="patch_14">
    <path d="M 274.909091 504 
L 274.909091 318.4 
" style="fill:none;stroke:#000000;stroke-linecap:square;stroke-linejoin:miter;stroke-width:0.8;"/>
   </g>
   <g id="patch_15">
    <path d="M 72 504 
L 274.909091 504 
" style="fill:none;stroke:#000000;stroke-linecap:square;stroke-linejoin:miter;stroke-width:0.8;"/>
   </g>
   <g id="patch_16">
    <path d="M 72 318.4 
L 274.909091 318.4 
" style="fill:none;stroke:#000000;stroke-linecap:square;stroke-linejoin:miter;stroke-width:0.8;"/>
   </g>
   <g id="text_27">
    <!-- Jun, Jul, Aug: -->
    <g transform="translate(72 312.4)scale(0.14 -0.14)">
     <use xlink:href="#DejaVuSans-74"/>
     <use x="29.492188" xlink:href="#DejaVuSans-117"/>
     <use x="92.871094" xlink:href="#DejaVuSans-110"/>
     <use x="156.25" xlink:href="#DejaVuSans-44"/>
     <use x="188.037109" xlink:href="#DejaVuSans-32"/>
     <use x="219.824219" xlink:href="#DejaVuSans-74"/>
     <use x="249.316406" xlink:href="#DejaVuSans-117"/>
     <use x="312.695312" xlink:href="#DejaVuSans-108"/>
     <use x="340.478516" xlink:href="#DejaVuSans-44"/>
     <use x="372.265625" xlink:href="#DejaVuSans-32"/>
     <use x="404.052734" xlink:href="#DejaVuSans-65"/>
     <use x="472.460938" xlink:href="#DejaVuSans-117"/>
     <use x="535.839844" xlink:href="#DejaVuSans-103"/>
     <use x="599.316406" xlink:href="#DejaVuSans-58"/>
    </g>
   </g>
  </g>
  <g id="axes_4">
   <g id="patch_17">
    <path d="M 315.490909 504 
L 518.4 504 
L 518.4 318.4 
L 315.490909 318.4 
z
" style="fill:#ffffff;"/>
   </g>
   <g id="PathCollection_4">
    <defs>
     <path d="M 0 5 
C 1.326016 5 2.597899 4.473168 3.535534 3.535534 
C 4.473168 2.597899 5 1.326016 5 0 
C 5 -1.326016 4.473168 -2.597899 3.535534 -3.535534 
C 2.597899 -4.473168 1.326016 -5 0 -5 
C -1.326016 -5 -2.597899 -4.473168 -3.535534 -3.535534 
C -4.473168 -2.597899 -5 -1.326016 -5 0 
C -5 1.326016 -4.473168 2.597899 -3.535534 3.535534 
C -2.597899 4.473168 -1.326016 5 0 5 
z
" id="m7da326fa39" style="stroke:#ffffff;stroke-opacity:0.7;"/>
    </defs>
    <g clip-path="url(#pa3154c3748)">
     <use style="fill:#b8860b;fill-opacity:0.7;stroke:#ffffff;stroke-opacity:0.7;" x="442.820245" xlink:href="#m7da326fa39" y="500.529488"/>
     <use style="fill:#b8860b;fill-opacity:0.7;stroke:#ffffff;stroke-opacity:0.7;" x="462.195497" xlink:href="#m7da326fa39" y="500.372672"/>
     <use style="fill:#b8860b;fill-opacity:0.7;stroke:#ffffff;stroke-opacity:0.7;" x="359.662615" xlink:href="#m7da326fa39" y="499.530957"/>
     <use style="fill:#b8860b;fill-opacity:0.7;stroke:#ffffff;stroke-opacity:0.7;" x="371.819051" xlink:href="#m7da326fa39" y="499.425519"/>
     <use style="fill:#b8860b;fill-opacity:0.7;stroke:#ffffff;stroke-opacity:0.7;" x="374.480751" xlink:href="#m7da326fa39" y="496.423222"/>
     <use style="fill:#b8860b;fill-opacity:0.7;stroke:#ffffff;stroke-opacity:0.7;" x="454.591549" xlink:href="#m7da326fa39" y="491.094593"/>
     <use style="fill:#b8860b;fill-opacity:0.7;stroke:#ffffff;stroke-opacity:0.7;" x="483.251426" xlink:href="#m7da326fa39" y="488.795513"/>
     <use style="fill:#b8860b;fill-opacity:0.7;stroke:#ffffff;stroke-opacity:0.7;" x="455.846579" xlink:href="#m7da326fa39" y="486.130975"/>
     <use style="fill:#b8860b;fill-opacity:0.7;stroke:#ffffff;stroke-opacity:0.7;" x="370.470789" xlink:href="#m7da326fa39" y="485.790983"/>
     <use style="fill:#b8860b;fill-opacity:0.7;stroke:#ffffff;stroke-opacity:0.7;" x="433.434983" xlink:href="#m7da326fa39" y="480.383722"/>
     <use style="fill:#b8860b;fill-opacity:0.7;stroke:#ffffff;stroke-opacity:0.7;" x="417.703739" xlink:href="#m7da326fa39" y="478.437144"/>
     <use style="fill:#b8860b;fill-opacity:0.7;stroke:#ffffff;stroke-opacity:0.7;" x="399.985024" xlink:href="#m7da326fa39" y="477.830876"/>
     <use style="fill:#b8860b;fill-opacity:0.7;stroke:#ffffff;stroke-opacity:0.7;" x="428.342977" xlink:href="#m7da326fa39" y="476.556687"/>
     <use style="fill:#b8860b;fill-opacity:0.7;stroke:#ffffff;stroke-opacity:0.7;" x="399.207235" xlink:href="#m7da326fa39" y="476.202399"/>
     <use style="fill:#b8860b;fill-opacity:0.7;stroke:#ffffff;stroke-opacity:0.7;" x="409.906004" xlink:href="#m7da326fa39" y="475.556815"/>
     <use style="fill:#b8860b;fill-opacity:0.7;stroke:#ffffff;stroke-opacity:0.7;" x="422.418828" xlink:href="#m7da326fa39" y="475.196719"/>
     <use style="fill:#b8860b;fill-opacity:0.7;stroke:#ffffff;stroke-opacity:0.7;" x="475.992639" xlink:href="#m7da326fa39" y="474.80088"/>
     <use style="fill:#b8860b;fill-opacity:0.7;stroke:#ffffff;stroke-opacity:0.7;" x="433.95801" xlink:href="#m7da326fa39" y="467.512716"/>
     <use style="fill:#b8860b;fill-opacity:0.7;stroke:#ffffff;stroke-opacity:0.7;" x="411.833277" xlink:href="#m7da326fa39" y="464.219572"/>
     <use style="fill:#b8860b;fill-opacity:0.7;stroke:#ffffff;stroke-opacity:0.7;" x="359.437078" xlink:href="#m7da326fa39" y="463.16028"/>
     <use style="fill:#b8860b;fill-opacity:0.7;stroke:#ffffff;stroke-opacity:0.7;" x="449.7305" xlink:href="#m7da326fa39" y="453.888902"/>
     <use style="fill:#b8860b;fill-opacity:0.7;stroke:#ffffff;stroke-opacity:0.7;" x="423.82229" xlink:href="#m7da326fa39" y="449.301018"/>
     <use style="fill:#b8860b;fill-opacity:0.7;stroke:#ffffff;stroke-opacity:0.7;" x="397.124836" xlink:href="#m7da326fa39" y="439.497091"/>
     <use style="fill:#b8860b;fill-opacity:0.7;stroke:#ffffff;stroke-opacity:0.7;" x="362.757386" xlink:href="#m7da326fa39" y="404.26121"/>
     <use style="fill:#b8860b;fill-opacity:0.7;stroke:#ffffff;stroke-opacity:0.7;" x="378.561539" xlink:href="#m7da326fa39" y="378.159102"/>
     <use style="fill:#b8860b;fill-opacity:0.7;stroke:#ffffff;stroke-opacity:0.7;" x="441.101341" xlink:href="#m7da326fa39" y="319.070155"/>
     <use style="fill:#b8860b;fill-opacity:0.7;stroke:#ffffff;stroke-opacity:0.7;" x="468.19787" xlink:href="#m7da326fa39" y="159.736675"/>
    </g>
   </g>
   <g id="PathCollection_5">
    <defs>
     <path d="M 0 5.59017 
C 1.48253 5.59017 2.90454 5.001154 3.952847 3.952847 
C 5.001154 2.90454 5.59017 1.48253 5.59017 0 
C 5.59017 -1.48253 5.001154 -2.90454 3.952847 -3.952847 
C 2.90454 -5.001154 1.48253 -5.59017 0 -5.59017 
C -1.48253 -5.59017 -2.90454 -5.001154 -3.952847 -3.952847 
C -5.001154 -2.90454 -5.59017 -1.48253 -5.59017 0 
C -5.59017 1.48253 -5.001154 2.90454 -3.952847 3.952847 
C -2.90454 5.001154 -1.48253 5.59017 0 5.59017 
z
" id="mc1504c368e" style="stroke:#ff0000;"/>
    </defs>
    <g clip-path="url(#pa3154c3748)">
     <use style="fill:#ff0000;stroke:#ff0000;" x="375.527263" xlink:href="#mc1504c368e" y="475.556815"/>
    </g>
   </g>
   <g id="matplotlib.axis_7">
    <g id="xtick_4">
     <g id="line2d_41">
      <g>
       <use style="stroke:#000000;stroke-width:0.8;" x="416.945455" xlink:href="#mc532703957" y="504"/>
      </g>
     </g>
     <g id="text_28">
      <!-- fall -->
      <defs>
       <path d="M 37.109375 75.984375 
L 37.109375 68.5 
L 28.515625 68.5 
Q 23.6875 68.5 21.796875 66.546875 
Q 19.921875 64.59375 19.921875 59.515625 
L 19.921875 54.6875 
L 34.71875 54.6875 
L 34.71875 47.703125 
L 19.921875 47.703125 
L 19.921875 0 
L 10.890625 0 
L 10.890625 47.703125 
L 2.296875 47.703125 
L 2.296875 54.6875 
L 10.890625 54.6875 
L 10.890625 58.5 
Q 10.890625 67.625 15.140625 71.796875 
Q 19.390625 75.984375 28.609375 75.984375 
z
" id="DejaVuSans-102"/>
      </defs>
      <g transform="translate(406.302173 521.637812)scale(0.14 -0.14)">
       <use xlink:href="#DejaVuSans-102"/>
       <use x="35.205078" xlink:href="#DejaVuSans-97"/>
       <use x="96.484375" xlink:href="#DejaVuSans-108"/>
       <use x="124.267578" xlink:href="#DejaVuSans-108"/>
      </g>
     </g>
    </g>
   </g>
   <g id="matplotlib.axis_8">
    <g id="ytick_20">
     <g id="line2d_42">
      <g>
       <use style="stroke:#000000;stroke-width:0.8;" x="315.490909" xlink:href="#m7924f71e85" y="504"/>
      </g>
     </g>
     <g id="text_29">
      <!-- 0 -->
      <g transform="translate(302.128409 507.799219)scale(0.1 -0.1)">
       <use xlink:href="#DejaVuSans-48"/>
      </g>
     </g>
    </g>
    <g id="ytick_21">
     <g id="line2d_43">
      <g>
       <use style="stroke:#000000;stroke-width:0.8;" x="315.490909" xlink:href="#m7924f71e85" y="481.661485"/>
      </g>
     </g>
     <g id="text_30">
      <!-- 5 -->
      <g transform="translate(302.128409 485.460704)scale(0.1 -0.1)">
       <use xlink:href="#DejaVuSans-53"/>
      </g>
     </g>
    </g>
    <g id="ytick_22">
     <g id="line2d_44">
      <g>
       <use style="stroke:#000000;stroke-width:0.8;" x="315.490909" xlink:href="#m7924f71e85" y="459.32297"/>
      </g>
     </g>
     <g id="text_31">
      <!-- 10 -->
      <g transform="translate(295.765909 463.122188)scale(0.1 -0.1)">
       <use xlink:href="#DejaVuSans-49"/>
       <use x="63.623047" xlink:href="#DejaVuSans-48"/>
      </g>
     </g>
    </g>
    <g id="ytick_23">
     <g id="line2d_45">
      <g>
       <use style="stroke:#000000;stroke-width:0.8;" x="315.490909" xlink:href="#m7924f71e85" y="436.984455"/>
      </g>
     </g>
     <g id="text_32">
      <!-- 15 -->
      <g transform="translate(295.765909 440.783673)scale(0.1 -0.1)">
       <use xlink:href="#DejaVuSans-49"/>
       <use x="63.623047" xlink:href="#DejaVuSans-53"/>
      </g>
     </g>
    </g>
    <g id="ytick_24">
     <g id="line2d_46">
      <g>
       <use style="stroke:#000000;stroke-width:0.8;" x="315.490909" xlink:href="#m7924f71e85" y="414.645939"/>
      </g>
     </g>
     <g id="text_33">
      <!-- 20 -->
      <g transform="translate(295.765909 418.445158)scale(0.1 -0.1)">
       <use xlink:href="#DejaVuSans-50"/>
       <use x="63.623047" xlink:href="#DejaVuSans-48"/>
      </g>
     </g>
    </g>
    <g id="ytick_25">
     <g id="line2d_47">
      <g>
       <use style="stroke:#000000;stroke-width:0.8;" x="315.490909" xlink:href="#m7924f71e85" y="392.307424"/>
      </g>
     </g>
     <g id="text_34">
      <!-- 25 -->
      <g transform="translate(295.765909 396.106643)scale(0.1 -0.1)">
       <use xlink:href="#DejaVuSans-50"/>
       <use x="63.623047" xlink:href="#DejaVuSans-53"/>
      </g>
     </g>
    </g>
    <g id="ytick_26">
     <g id="line2d_48">
      <g>
       <use style="stroke:#000000;stroke-width:0.8;" x="315.490909" xlink:href="#m7924f71e85" y="369.968909"/>
      </g>
     </g>
     <g id="text_35">
      <!-- 30 -->
      <g transform="translate(295.765909 373.768128)scale(0.1 -0.1)">
       <use xlink:href="#DejaVuSans-51"/>
       <use x="63.623047" xlink:href="#DejaVuSans-48"/>
      </g>
     </g>
    </g>
    <g id="ytick_27">
     <g id="line2d_49">
      <g>
       <use style="stroke:#000000;stroke-width:0.8;" x="315.490909" xlink:href="#m7924f71e85" y="347.630394"/>
      </g>
     </g>
     <g id="text_36">
      <!-- 35 -->
      <g transform="translate(295.765909 351.429613)scale(0.1 -0.1)">
       <use xlink:href="#DejaVuSans-51"/>
       <use x="63.623047" xlink:href="#DejaVuSans-53"/>
      </g>
     </g>
    </g>
    <g id="ytick_28">
     <g id="line2d_50">
      <g>
       <use style="stroke:#000000;stroke-width:0.8;" x="315.490909" xlink:href="#m7924f71e85" y="325.291879"/>
      </g>
     </g>
     <g id="text_37">
      <!-- 40 -->
      <defs>
       <path d="M 37.796875 64.3125 
L 12.890625 25.390625 
L 37.796875 25.390625 
z
M 35.203125 72.90625 
L 47.609375 72.90625 
L 47.609375 25.390625 
L 58.015625 25.390625 
L 58.015625 17.1875 
L 47.609375 17.1875 
L 47.609375 0 
L 37.796875 0 
L 37.796875 17.1875 
L 4.890625 17.1875 
L 4.890625 26.703125 
z
" id="DejaVuSans-52"/>
      </defs>
      <g transform="translate(295.765909 329.091097)scale(0.1 -0.1)">
       <use xlink:href="#DejaVuSans-52"/>
       <use x="63.623047" xlink:href="#DejaVuSans-48"/>
      </g>
     </g>
    </g>
   </g>
   <g id="line2d_51">
    <path clip-path="url(#pa3154c3748)" d="M 345.927273 487.463244 
L 487.963636 487.463244 
L 487.963636 458.524591 
L 345.927273 458.524591 
L 345.927273 487.463244 
" style="fill:none;stroke:#000000;stroke-linecap:square;"/>
   </g>
   <g id="line2d_52">
    <path clip-path="url(#pa3154c3748)" d="M 416.945455 487.463244 
L 416.945455 500.529488 
" style="fill:none;stroke:#000000;stroke-linecap:square;"/>
   </g>
   <g id="line2d_53">
    <path clip-path="url(#pa3154c3748)" d="M 416.945455 458.524591 
L 416.945455 439.497091 
" style="fill:none;stroke:#000000;stroke-linecap:square;"/>
   </g>
   <g id="line2d_54">
    <path clip-path="url(#pa3154c3748)" d="M 381.436364 500.529488 
L 452.454545 500.529488 
" style="fill:none;stroke:#000000;stroke-linecap:square;"/>
   </g>
   <g id="line2d_55">
    <path clip-path="url(#pa3154c3748)" d="M 381.436364 439.497091 
L 452.454545 439.497091 
" style="fill:none;stroke:#000000;stroke-linecap:square;"/>
   </g>
   <g id="line2d_56">
    <path clip-path="url(#pa3154c3748)" d="M 345.927273 476.202399 
L 487.963636 476.202399 
" style="fill:none;stroke:#ff7f0e;stroke-linecap:square;"/>
   </g>
   <g id="patch_18">
    <path d="M 315.490909 504 
L 315.490909 318.4 
" style="fill:none;stroke:#000000;stroke-linecap:square;stroke-linejoin:miter;stroke-width:0.8;"/>
   </g>
   <g id="patch_19">
    <path d="M 518.4 504 
L 518.4 318.4 
" style="fill:none;stroke:#000000;stroke-linecap:square;stroke-linejoin:miter;stroke-width:0.8;"/>
   </g>
   <g id="patch_20">
    <path d="M 315.490909 504 
L 518.4 504 
" style="fill:none;stroke:#000000;stroke-linecap:square;stroke-linejoin:miter;stroke-width:0.8;"/>
   </g>
   <g id="patch_21">
    <path d="M 315.490909 318.4 
L 518.4 318.4 
" style="fill:none;stroke:#000000;stroke-linecap:square;stroke-linejoin:miter;stroke-width:0.8;"/>
   </g>
   <g id="text_38">
    <!-- Sep, Oct, Nov: -->
    <defs>
     <path d="M 53.515625 70.515625 
L 53.515625 60.890625 
Q 47.90625 63.578125 42.921875 64.890625 
Q 37.9375 66.21875 33.296875 66.21875 
Q 25.25 66.21875 20.875 63.09375 
Q 16.5 59.96875 16.5 54.203125 
Q 16.5 49.359375 19.40625 46.890625 
Q 22.3125 44.4375 30.421875 42.921875 
L 36.375 41.703125 
Q 47.40625 39.59375 52.65625 34.296875 
Q 57.90625 29 57.90625 20.125 
Q 57.90625 9.515625 50.796875 4.046875 
Q 43.703125 -1.421875 29.984375 -1.421875 
Q 24.8125 -1.421875 18.96875 -0.25 
Q 13.140625 0.921875 6.890625 3.21875 
L 6.890625 13.375 
Q 12.890625 10.015625 18.65625 8.296875 
Q 24.421875 6.59375 29.984375 6.59375 
Q 38.421875 6.59375 43.015625 9.90625 
Q 47.609375 13.234375 47.609375 19.390625 
Q 47.609375 24.75 44.3125 27.78125 
Q 41.015625 30.8125 33.5 32.328125 
L 27.484375 33.5 
Q 16.453125 35.6875 11.515625 40.375 
Q 6.59375 45.0625 6.59375 53.421875 
Q 6.59375 63.09375 13.40625 68.65625 
Q 20.21875 74.21875 32.171875 74.21875 
Q 37.3125 74.21875 42.625 73.28125 
Q 47.953125 72.359375 53.515625 70.515625 
z
" id="DejaVuSans-83"/>
     <path d="M 39.40625 66.21875 
Q 28.65625 66.21875 22.328125 58.203125 
Q 16.015625 50.203125 16.015625 36.375 
Q 16.015625 22.609375 22.328125 14.59375 
Q 28.65625 6.59375 39.40625 6.59375 
Q 50.140625 6.59375 56.421875 14.59375 
Q 62.703125 22.609375 62.703125 36.375 
Q 62.703125 50.203125 56.421875 58.203125 
Q 50.140625 66.21875 39.40625 66.21875 
z
M 39.40625 74.21875 
Q 54.734375 74.21875 63.90625 63.9375 
Q 73.09375 53.65625 73.09375 36.375 
Q 73.09375 19.140625 63.90625 8.859375 
Q 54.734375 -1.421875 39.40625 -1.421875 
Q 24.03125 -1.421875 14.8125 8.828125 
Q 5.609375 19.09375 5.609375 36.375 
Q 5.609375 53.65625 14.8125 63.9375 
Q 24.03125 74.21875 39.40625 74.21875 
z
" id="DejaVuSans-79"/>
     <path d="M 9.8125 72.90625 
L 23.09375 72.90625 
L 55.421875 11.921875 
L 55.421875 72.90625 
L 64.984375 72.90625 
L 64.984375 0 
L 51.703125 0 
L 19.390625 60.984375 
L 19.390625 0 
L 9.8125 0 
z
" id="DejaVuSans-78"/>
     <path d="M 2.984375 54.6875 
L 12.5 54.6875 
L 29.59375 8.796875 
L 46.6875 54.6875 
L 56.203125 54.6875 
L 35.6875 0 
L 23.484375 0 
z
" id="DejaVuSans-118"/>
    </defs>
    <g transform="translate(315.490909 312.4)scale(0.14 -0.14)">
     <use xlink:href="#DejaVuSans-83"/>
     <use x="63.476562" xlink:href="#DejaVuSans-101"/>
     <use x="125" xlink:href="#DejaVuSans-112"/>
     <use x="188.476562" xlink:href="#DejaVuSans-44"/>
     <use x="220.263672" xlink:href="#DejaVuSans-32"/>
     <use x="252.050781" xlink:href="#DejaVuSans-79"/>
     <use x="330.761719" xlink:href="#DejaVuSans-99"/>
     <use x="385.742188" xlink:href="#DejaVuSans-116"/>
     <use x="424.951172" xlink:href="#DejaVuSans-44"/>
     <use x="456.738281" xlink:href="#DejaVuSans-32"/>
     <use x="488.525391" xlink:href="#DejaVuSans-78"/>
     <use x="563.330078" xlink:href="#DejaVuSans-111"/>
     <use x="624.511719" xlink:href="#DejaVuSans-118"/>
     <use x="683.613281" xlink:href="#DejaVuSans-58"/>
    </g>
   </g>
   <g id="legend_1">
    <g id="patch_22">
     <path d="M 389.55625 355.75625 
L 511.4 355.75625 
Q 513.4 355.75625 513.4 353.75625 
L 513.4 325.4 
Q 513.4 323.4 511.4 323.4 
L 389.55625 323.4 
Q 387.55625 323.4 387.55625 325.4 
L 387.55625 353.75625 
Q 387.55625 355.75625 389.55625 355.75625 
z
" style="fill:#ffffff;opacity:0.8;stroke:#cccccc;stroke-linejoin:miter;"/>
    </g>
    <g id="PathCollection_6">
     <g>
      <use style="fill:#b8860b;fill-opacity:0.7;stroke:#ffffff;stroke-opacity:0.7;" x="401.55625" xlink:href="#m7da326fa39" y="332.373437"/>
     </g>
    </g>
    <g id="text_39">
     <!-- Daily total, pieces -->
     <g transform="translate(419.55625 334.998437)scale(0.1 -0.1)">
      <use xlink:href="#DejaVuSans-68"/>
      <use x="77.001953" xlink:href="#DejaVuSans-97"/>
      <use x="138.28125" xlink:href="#DejaVuSans-105"/>
      <use x="166.064453" xlink:href="#DejaVuSans-108"/>
      <use x="193.847656" xlink:href="#DejaVuSans-121"/>
      <use x="253.027344" xlink:href="#DejaVuSans-32"/>
      <use x="284.814453" xlink:href="#DejaVuSans-116"/>
      <use x="324.023438" xlink:href="#DejaVuSans-111"/>
      <use x="385.205078" xlink:href="#DejaVuSans-116"/>
      <use x="424.414062" xlink:href="#DejaVuSans-97"/>
      <use x="485.693359" xlink:href="#DejaVuSans-108"/>
      <use x="513.476562" xlink:href="#DejaVuSans-44"/>
      <use x="545.263672" xlink:href="#DejaVuSans-32"/>
      <use x="577.050781" xlink:href="#DejaVuSans-112"/>
      <use x="640.527344" xlink:href="#DejaVuSans-105"/>
      <use x="668.310547" xlink:href="#DejaVuSans-101"/>
      <use x="729.833984" xlink:href="#DejaVuSans-99"/>
      <use x="784.814453" xlink:href="#DejaVuSans-101"/>
      <use x="846.337891" xlink:href="#DejaVuSans-115"/>
     </g>
    </g>
    <g id="PathCollection_7">
     <g>
      <use style="fill:#ff0000;stroke:#ff0000;" x="401.55625" xlink:href="#mc1504c368e" y="347.051562"/>
     </g>
    </g>
    <g id="text_40">
     <!-- Day of interest -->
     <g transform="translate(419.55625 349.676562)scale(0.1 -0.1)">
      <use xlink:href="#DejaVuSans-68"/>
      <use x="77.001953" xlink:href="#DejaVuSans-97"/>
      <use x="138.28125" xlink:href="#DejaVuSans-121"/>
      <use x="197.460938" xlink:href="#DejaVuSans-32"/>
      <use x="229.248047" xlink:href="#DejaVuSans-111"/>
      <use x="290.429688" xlink:href="#DejaVuSans-102"/>
      <use x="325.634766" xlink:href="#DejaVuSans-32"/>
      <use x="357.421875" xlink:href="#DejaVuSans-105"/>
      <use x="385.205078" xlink:href="#DejaVuSans-110"/>
      <use x="448.583984" xlink:href="#DejaVuSans-116"/>
      <use x="487.792969" xlink:href="#DejaVuSans-101"/>
      <use x="549.316406" xlink:href="#DejaVuSans-114"/>
      <use x="590.398438" xlink:href="#DejaVuSans-101"/>
      <use x="651.921875" xlink:href="#DejaVuSans-115"/>
      <use x="704.021484" xlink:href="#DejaVuSans-116"/>
     </g>
    </g>
   </g>
  </g>
  <g id="text_41">
   <!-- Lake Geneva all data, total trash/meter/day 2015 - 2019 -->
   <defs>
    <path d="M 9.8125 72.90625 
L 19.671875 72.90625 
L 19.671875 8.296875 
L 55.171875 8.296875 
L 55.171875 0 
L 9.8125 0 
z
" id="DejaVuSans-76"/>
    <path d="M 9.078125 75.984375 
L 18.109375 75.984375 
L 18.109375 31.109375 
L 44.921875 54.6875 
L 56.390625 54.6875 
L 27.390625 29.109375 
L 57.625 0 
L 45.90625 0 
L 18.109375 26.703125 
L 18.109375 0 
L 9.078125 0 
z
" id="DejaVuSans-107"/>
    <path d="M 59.515625 10.40625 
L 59.515625 29.984375 
L 43.40625 29.984375 
L 43.40625 38.09375 
L 69.28125 38.09375 
L 69.28125 6.78125 
Q 63.578125 2.734375 56.6875 0.65625 
Q 49.8125 -1.421875 42 -1.421875 
Q 24.90625 -1.421875 15.25 8.5625 
Q 5.609375 18.5625 5.609375 36.375 
Q 5.609375 54.25 15.25 64.234375 
Q 24.90625 74.21875 42 74.21875 
Q 49.125 74.21875 55.546875 72.453125 
Q 61.96875 70.703125 67.390625 67.28125 
L 67.390625 56.78125 
Q 61.921875 61.421875 55.765625 63.765625 
Q 49.609375 66.109375 42.828125 66.109375 
Q 29.4375 66.109375 22.71875 58.640625 
Q 16.015625 51.171875 16.015625 36.375 
Q 16.015625 21.625 22.71875 14.15625 
Q 29.4375 6.6875 42.828125 6.6875 
Q 48.046875 6.6875 52.140625 7.59375 
Q 56.25 8.5 59.515625 10.40625 
z
" id="DejaVuSans-71"/>
    <path d="M 45.40625 46.390625 
L 45.40625 75.984375 
L 54.390625 75.984375 
L 54.390625 0 
L 45.40625 0 
L 45.40625 8.203125 
Q 42.578125 3.328125 38.25 0.953125 
Q 33.9375 -1.421875 27.875 -1.421875 
Q 17.96875 -1.421875 11.734375 6.484375 
Q 5.515625 14.40625 5.515625 27.296875 
Q 5.515625 40.1875 11.734375 48.09375 
Q 17.96875 56 27.875 56 
Q 33.9375 56 38.25 53.625 
Q 42.578125 51.265625 45.40625 46.390625 
z
M 14.796875 27.296875 
Q 14.796875 17.390625 18.875 11.75 
Q 22.953125 6.109375 30.078125 6.109375 
Q 37.203125 6.109375 41.296875 11.75 
Q 45.40625 17.390625 45.40625 27.296875 
Q 45.40625 37.203125 41.296875 42.84375 
Q 37.203125 48.484375 30.078125 48.484375 
Q 22.953125 48.484375 18.875 42.84375 
Q 14.796875 37.203125 14.796875 27.296875 
z
" id="DejaVuSans-100"/>
    <path d="M 54.890625 33.015625 
L 54.890625 0 
L 45.90625 0 
L 45.90625 32.71875 
Q 45.90625 40.484375 42.875 44.328125 
Q 39.84375 48.1875 33.796875 48.1875 
Q 26.515625 48.1875 22.3125 43.546875 
Q 18.109375 38.921875 18.109375 30.90625 
L 18.109375 0 
L 9.078125 0 
L 9.078125 75.984375 
L 18.109375 75.984375 
L 18.109375 46.1875 
Q 21.34375 51.125 25.703125 53.5625 
Q 30.078125 56 35.796875 56 
Q 45.21875 56 50.046875 50.171875 
Q 54.890625 44.34375 54.890625 33.015625 
z
" id="DejaVuSans-104"/>
    <path d="M 25.390625 72.90625 
L 33.6875 72.90625 
L 8.296875 -9.28125 
L 0 -9.28125 
z
" id="DejaVuSans-47"/>
    <path d="M 4.890625 31.390625 
L 31.203125 31.390625 
L 31.203125 23.390625 
L 4.890625 23.390625 
z
" id="DejaVuSans-45"/>
    <path d="M 10.984375 1.515625 
L 10.984375 10.5 
Q 14.703125 8.734375 18.5 7.8125 
Q 22.3125 6.890625 25.984375 6.890625 
Q 35.75 6.890625 40.890625 13.453125 
Q 46.046875 20.015625 46.78125 33.40625 
Q 43.953125 29.203125 39.59375 26.953125 
Q 35.25 24.703125 29.984375 24.703125 
Q 19.046875 24.703125 12.671875 31.3125 
Q 6.296875 37.9375 6.296875 49.421875 
Q 6.296875 60.640625 12.9375 67.421875 
Q 19.578125 74.21875 30.609375 74.21875 
Q 43.265625 74.21875 49.921875 64.515625 
Q 56.59375 54.828125 56.59375 36.375 
Q 56.59375 19.140625 48.40625 8.859375 
Q 40.234375 -1.421875 26.421875 -1.421875 
Q 22.703125 -1.421875 18.890625 -0.6875 
Q 15.09375 0.046875 10.984375 1.515625 
z
M 30.609375 32.421875 
Q 37.25 32.421875 41.125 36.953125 
Q 45.015625 41.5 45.015625 49.421875 
Q 45.015625 57.28125 41.125 61.84375 
Q 37.25 66.40625 30.609375 66.40625 
Q 23.96875 66.40625 20.09375 61.84375 
Q 16.21875 57.28125 16.21875 49.421875 
Q 16.21875 41.5 20.09375 36.953125 
Q 23.96875 32.421875 30.609375 32.421875 
z
" id="DejaVuSans-57"/>
   </defs>
   <g transform="translate(89.773125 22.157812)scale(0.14 -0.14)">
    <use xlink:href="#DejaVuSans-76"/>
    <use x="55.712891" xlink:href="#DejaVuSans-97"/>
    <use x="116.992188" xlink:href="#DejaVuSans-107"/>
    <use x="174.855469" xlink:href="#DejaVuSans-101"/>
    <use x="236.378906" xlink:href="#DejaVuSans-32"/>
    <use x="268.166016" xlink:href="#DejaVuSans-71"/>
    <use x="345.65625" xlink:href="#DejaVuSans-101"/>
    <use x="407.179688" xlink:href="#DejaVuSans-110"/>
    <use x="470.558594" xlink:href="#DejaVuSans-101"/>
    <use x="532.082031" xlink:href="#DejaVuSans-118"/>
    <use x="591.261719" xlink:href="#DejaVuSans-97"/>
    <use x="652.541016" xlink:href="#DejaVuSans-32"/>
    <use x="684.328125" xlink:href="#DejaVuSans-97"/>
    <use x="745.607422" xlink:href="#DejaVuSans-108"/>
    <use x="773.390625" xlink:href="#DejaVuSans-108"/>
    <use x="801.173828" xlink:href="#DejaVuSans-32"/>
    <use x="832.960938" xlink:href="#DejaVuSans-100"/>
    <use x="896.4375" xlink:href="#DejaVuSans-97"/>
    <use x="957.716797" xlink:href="#DejaVuSans-116"/>
    <use x="996.925781" xlink:href="#DejaVuSans-97"/>
    <use x="1058.205078" xlink:href="#DejaVuSans-44"/>
    <use x="1089.992188" xlink:href="#DejaVuSans-32"/>
    <use x="1121.779297" xlink:href="#DejaVuSans-116"/>
    <use x="1160.988281" xlink:href="#DejaVuSans-111"/>
    <use x="1222.169922" xlink:href="#DejaVuSans-116"/>
    <use x="1261.378906" xlink:href="#DejaVuSans-97"/>
    <use x="1322.658203" xlink:href="#DejaVuSans-108"/>
    <use x="1350.441406" xlink:href="#DejaVuSans-32"/>
    <use x="1382.228516" xlink:href="#DejaVuSans-116"/>
    <use x="1421.4375" xlink:href="#DejaVuSans-114"/>
    <use x="1462.550781" xlink:href="#DejaVuSans-97"/>
    <use x="1523.830078" xlink:href="#DejaVuSans-115"/>
    <use x="1575.929688" xlink:href="#DejaVuSans-104"/>
    <use x="1639.308594" xlink:href="#DejaVuSans-47"/>
    <use x="1673" xlink:href="#DejaVuSans-109"/>
    <use x="1770.412109" xlink:href="#DejaVuSans-101"/>
    <use x="1831.935547" xlink:href="#DejaVuSans-116"/>
    <use x="1871.144531" xlink:href="#DejaVuSans-101"/>
    <use x="1932.667969" xlink:href="#DejaVuSans-114"/>
    <use x="1973.78125" xlink:href="#DejaVuSans-47"/>
    <use x="2007.472656" xlink:href="#DejaVuSans-100"/>
    <use x="2070.949219" xlink:href="#DejaVuSans-97"/>
    <use x="2132.228516" xlink:href="#DejaVuSans-121"/>
    <use x="2191.408203" xlink:href="#DejaVuSans-32"/>
    <use x="2223.195312" xlink:href="#DejaVuSans-50"/>
    <use x="2286.818359" xlink:href="#DejaVuSans-48"/>
    <use x="2350.441406" xlink:href="#DejaVuSans-49"/>
    <use x="2414.064453" xlink:href="#DejaVuSans-53"/>
    <use x="2477.6875" xlink:href="#DejaVuSans-32"/>
    <use x="2509.474609" xlink:href="#DejaVuSans-45"/>
    <use x="2545.558594" xlink:href="#DejaVuSans-32"/>
    <use x="2577.345703" xlink:href="#DejaVuSans-50"/>
    <use x="2640.96875" xlink:href="#DejaVuSans-48"/>
    <use x="2704.591797" xlink:href="#DejaVuSans-49"/>
    <use x="2768.214844" xlink:href="#DejaVuSans-57"/>
   </g>
   <!-- Grouped by seasons of the year, n=150 -->
   <defs>
    <path d="M 10.59375 45.40625 
L 73.1875 45.40625 
L 73.1875 37.203125 
L 10.59375 37.203125 
z
M 10.59375 25.484375 
L 73.1875 25.484375 
L 73.1875 17.1875 
L 10.59375 17.1875 
z
" id="DejaVuSans-61"/>
   </defs>
   <g transform="translate(147.854531 41.026094)scale(0.14 -0.14)">
    <use xlink:href="#DejaVuSans-71"/>
    <use x="77.490234" xlink:href="#DejaVuSans-114"/>
    <use x="118.572266" xlink:href="#DejaVuSans-111"/>
    <use x="179.753906" xlink:href="#DejaVuSans-117"/>
    <use x="243.132812" xlink:href="#DejaVuSans-112"/>
    <use x="306.609375" xlink:href="#DejaVuSans-101"/>
    <use x="368.132812" xlink:href="#DejaVuSans-100"/>
    <use x="431.609375" xlink:href="#DejaVuSans-32"/>
    <use x="463.396484" xlink:href="#DejaVuSans-98"/>
    <use x="526.873047" xlink:href="#DejaVuSans-121"/>
    <use x="586.052734" xlink:href="#DejaVuSans-32"/>
    <use x="617.839844" xlink:href="#DejaVuSans-115"/>
    <use x="669.939453" xlink:href="#DejaVuSans-101"/>
    <use x="731.462891" xlink:href="#DejaVuSans-97"/>
    <use x="792.742188" xlink:href="#DejaVuSans-115"/>
    <use x="844.841797" xlink:href="#DejaVuSans-111"/>
    <use x="906.023438" xlink:href="#DejaVuSans-110"/>
    <use x="969.402344" xlink:href="#DejaVuSans-115"/>
    <use x="1021.501953" xlink:href="#DejaVuSans-32"/>
    <use x="1053.289062" xlink:href="#DejaVuSans-111"/>
    <use x="1114.470703" xlink:href="#DejaVuSans-102"/>
    <use x="1149.675781" xlink:href="#DejaVuSans-32"/>
    <use x="1181.462891" xlink:href="#DejaVuSans-116"/>
    <use x="1220.671875" xlink:href="#DejaVuSans-104"/>
    <use x="1284.050781" xlink:href="#DejaVuSans-101"/>
    <use x="1345.574219" xlink:href="#DejaVuSans-32"/>
    <use x="1377.361328" xlink:href="#DejaVuSans-121"/>
    <use x="1436.541016" xlink:href="#DejaVuSans-101"/>
    <use x="1498.064453" xlink:href="#DejaVuSans-97"/>
    <use x="1559.34375" xlink:href="#DejaVuSans-114"/>
    <use x="1600.457031" xlink:href="#DejaVuSans-44"/>
    <use x="1632.244141" xlink:href="#DejaVuSans-32"/>
    <use x="1664.03125" xlink:href="#DejaVuSans-110"/>
    <use x="1727.410156" xlink:href="#DejaVuSans-61"/>
    <use x="1811.199219" xlink:href="#DejaVuSans-49"/>
    <use x="1874.822266" xlink:href="#DejaVuSans-53"/>
    <use x="1938.445312" xlink:href="#DejaVuSans-48"/>
   </g>
   <!--  -->
   <g transform="translate(288 59.894375)scale(0.14 -0.14)"/>
  </g>
 </g>
 <defs>
  <clipPath id="p369428117e">
   <rect height="185.6" width="202.909091" x="72" y="86.4"/>
  </clipPath>
  <clipPath id="pf031365b9d">
   <rect height="185.6" width="202.909091" x="315.490909" y="86.4"/>
  </clipPath>
  <clipPath id="p8791387903">
   <rect height="185.6" width="202.909091" x="72" y="318.4"/>
  </clipPath>
  <clipPath id="pa3154c3748">
   <rect height="185.6" width="202.909091" x="315.490909" y="318.4"/>
  </clipPath>
 </defs>
</svg>
